<svg width="4" height="4" viewBox="0 0 4 4" fill="none" xmlns="http://www.w3.org/2000/svg">
<path d="M3.37484 2.52606C3.51858 2.28208 3.60037 2.02067 3.60037 1.77421C3.60037 1.7045 3.59294 1.63479 3.58055 1.56757C3.52602 1.28127 3.35501 1.03481 3.08734 0.85556C2.57182 0.509511 2.11332 0.708672 1.85308 1.00742C1.66472 1.22401 1.54823 1.53023 1.54823 1.84143C1.54823 2.10532 1.6325 2.37169 1.82829 2.59077C1.82829 2.59077 1.8506 2.61318 1.86052 2.62314C1.53832 2.64554 1.17894 2.53103 1.01289 2.12772C0.948448 1.97337 0.827005 1.87628 0.680778 1.85637C0.537028 1.83894 0.390798 1.90366 0.306531 2.01818C0.222265 2.13519 0.212355 2.28954 0.279272 2.43891C0.484982 2.89201 0.859226 3.21814 1.33261 3.35507C1.8159 3.49697 2.34381 3.41731 2.78249 3.14097C3.14187 3.23059 3.51363 3.22811 3.85565 3.14595C3.89283 2.90696 3.93001 2.67045 3.96967 2.43145C3.7813 2.49867 3.57559 2.53104 3.37484 2.52606ZM2.78497 2.06797C2.73788 2.15013 2.66848 2.22481 2.59165 2.29701C2.43551 2.2024 2.33637 2.09286 2.31655 1.97088C2.31407 1.96092 2.31407 1.95096 2.31407 1.941C2.31407 1.85387 2.3562 1.71445 2.43303 1.61238C2.47517 1.55512 2.52225 1.52026 2.56191 1.51528C2.63626 1.50532 2.72053 1.55512 2.78001 1.64225C2.82215 1.70698 2.84445 1.77919 2.84445 1.85387C2.84445 1.92607 2.82462 1.99826 2.78497 2.06797Z" fill="#F4BFD9"/>
</svg>
