<svg width="5" height="2" viewBox="0 0 5 2" fill="none" xmlns="http://www.w3.org/2000/svg">
<path d="M0.566223 0.265317C0.246505 0.312619 0.253939 0.803075 0.464606 0.932532C0.476999 0.94 0.489397 0.947458 0.501789 0.952437C1.18832 1.20139 1.90458 1.35575 2.64315 1.535C3.04466 1.63209 3.58248 1.78395 4.05834 1.78146C4.23926 1.78146 4.41276 1.75906 4.56642 1.7018C4.9134 1.57483 5.00262 1.11177 4.72504 0.865309C4.27396 0.46698 3.40651 0.442078 2.83152 0.392287C2.36061 0.349964 1.89219 0.320089 1.42872 0.297682C1.16353 0.285235 0.895857 0.272798 0.630665 0.26284C0.608359 0.260351 0.586051 0.262827 0.566223 0.265317Z" fill="#231F20"/>
</svg>
