<svg width="20" height="14" viewBox="0 0 20 14" fill="none" xmlns="http://www.w3.org/2000/svg">
<path d="M14.8246 1.39758C15.1393 1.76355 15.4194 2.1569 15.6598 2.58262C17.3402 5.57755 17.8086 9.18741 18.2721 12.5558C12.6138 12.8769 6.91836 12.6205 1.26009 12.5085C1.71365 9.1899 2.14242 5.4954 3.86493 2.58262C4.01612 2.32619 4.18217 2.08221 4.35318 1.8457C4.17474 1.71126 4.00373 1.56937 3.84263 1.4175C3.83519 1.41004 3.82776 1.40256 3.82032 1.39509C3.80545 1.4175 3.78562 1.43493 3.77075 1.45733C3.63444 1.64405 3.50556 1.83574 3.38411 2.03242C3.18088 2.36602 2.99996 2.7071 2.82647 3.05315C2.83886 3.05066 2.85125 3.04816 2.86364 3.04567C3.03713 3.01579 3.1784 3.13529 3.22054 3.26475C3.26515 3.39919 3.21062 3.52865 3.08175 3.59587C2.87356 3.70541 2.65793 3.80249 2.43983 3.89709C1.70869 5.64476 1.28488 7.53683 0.970121 9.4289C0.930466 9.66789 0.890806 9.9044 0.856108 10.1434C0.727229 10.9849 0.613221 11.8238 0.499213 12.6429C0.454601 12.9666 0.784234 13.1632 1.01225 13.096C1.05191 13.1159 1.099 13.1284 1.156 13.1284C2.51666 13.1109 3.87732 13.1383 5.24046 13.1732C5.53539 13.1807 5.83033 13.1881 6.12278 13.1956C7.49831 13.2305 8.87633 13.2628 10.2519 13.2454C11.2928 13.2329 12.3313 13.2354 13.3722 13.2354C13.6622 13.2354 13.9546 13.2329 14.2446 13.2329C15.6747 13.2255 17.1047 13.1981 18.5323 13.101C18.7603 13.1533 19.0701 12.9591 19.0255 12.6429C18.6314 9.80979 18.2746 6.65055 17.1295 3.93195C17.0056 3.63818 16.8718 3.3494 16.7305 3.06808C16.5496 2.71208 16.3562 2.36602 16.1406 2.03242C15.8953 1.64903 15.6226 1.28804 15.3326 0.946975C15.1963 1.08141 15.0526 1.21087 14.9064 1.33285C14.8791 1.35526 14.8518 1.37518 14.8246 1.39758Z" fill="#EE3424"/>
</svg>
