<svg width="18" height="19" viewBox="0 0 18 19" fill="none" xmlns="http://www.w3.org/2000/svg">
<path d="M2.35023 16.3179C2.77652 16.7386 3.36143 17.01 3.93395 17.2938C4.41477 17.5303 5.20787 17.7942 5.73082 17.9187C6.65527 18.1378 7.42111 18.0407 8.37035 17.9361C9.02961 17.8639 9.47821 17.6324 10.0978 17.4233C10.192 17.3909 10.8289 17.2141 10.9207 17.1793C11.3271 17.0249 11.4808 16.9527 11.8749 16.7312C12.1871 16.5544 12.435 16.2109 12.72 15.9918C13.0472 15.7378 13.352 15.4291 13.6172 15.1204C13.8849 14.8117 14.0286 14.6723 14.2071 14.3063C14.2715 14.1744 14.3855 13.7537 14.4376 13.6142C14.621 13.1188 14.7672 12.4516 14.7821 11.9637C14.7969 11.3985 14.5689 10.8981 14.4103 10.3554L13.6841 8.55048C14.8292 7.96295 16.4203 6.758 17.3571 5.85678C16.1601 6.05594 14.8366 5.38626 14.1947 4.1838C13.699 3.26018 13.3669 1.39799 14.0707 0.432039C12.4399 0.611288 9.84749 1.04198 8.24395 1.54736L9.04696 1.31832C8.62314 1.45027 6.93285 1.95814 6.93285 1.95814C5.40613 2.66766 4.34784 3.3025 3.27716 4.07676C2.92026 4.36305 1.77523 5.41115 1.77523 5.41115C1.77523 5.41115 0.954865 6.81775 0.55088 7.78868C0.213812 8.74218 -0.0241158 9.86994 0.0180176 10.8807C0.0403235 11.4135 0.136983 12.5163 0.250991 13.0292C0.387305 13.6366 0.76155 14.1346 1.03418 14.6748C1.3415 15.2698 1.87189 15.8474 2.35023 16.3179ZM9.03952 2.25938C9.25267 2.03034 9.51291 1.86852 9.79545 1.78636C10.1226 1.69176 10.4745 1.70669 10.8116 1.8486C11.3742 2.08759 11.7782 2.63778 11.7831 3.26017C11.7906 4.20869 10.8661 5.01034 9.91937 4.93067C8.64545 4.82611 8.22659 3.13571 9.03952 2.25938ZM5.21282 4.63691C5.30204 4.40289 5.42844 4.17634 5.58706 3.98464C5.72833 3.81535 5.88943 3.65602 6.07036 3.53403C6.41486 3.3025 6.82132 3.19793 7.24265 3.38216C7.72843 3.59377 8.04815 4.09418 8.18198 4.5921C8.39761 5.38875 8.13241 6.26009 7.35171 6.62357C6.54374 7.00198 5.60689 6.71319 5.24256 5.8767C5.06907 5.48086 5.05915 5.03772 5.21282 4.63691ZM1.86445 11.874C1.47534 11.3587 1.27458 10.5023 1.42577 9.77783C1.51251 9.36207 1.71575 8.98865 2.06521 8.74717C2.78891 8.24926 3.85712 8.43596 4.55851 8.87661C5.48793 9.46166 5.76799 10.5222 5.41358 11.5404C5.22274 12.0881 4.86088 12.5935 4.2958 12.7927C3.40108 13.1114 2.40228 12.591 1.86445 11.874Z" fill="#F4BFD9"/>
</svg>
