<svg width="20" height="21" viewBox="0 0 20 21" fill="none" xmlns="http://www.w3.org/2000/svg">
<path d="M2.81989 18.3952C2.82732 18.4026 2.83476 18.4101 2.84219 18.4176C3.00081 18.5695 3.1743 18.7089 3.35275 18.8458C3.63777 19.0624 3.94261 19.2591 4.27225 19.4308C4.91416 19.7644 5.60068 20.001 6.30704 20.1453C7.24141 20.3346 8.21048 20.3669 9.1622 20.2599C9.87103 20.1802 10.57 20.0234 11.2366 19.7968C11.3259 19.7669 11.4126 19.7346 11.5018 19.7022C11.9554 19.5329 12.4015 19.3238 12.8278 19.0798C13.1773 18.8782 13.5119 18.6491 13.8241 18.3977C13.8514 18.3753 13.8762 18.3578 13.9034 18.3354C14.0521 18.2134 14.1934 18.084 14.3297 17.9496C14.5082 17.7753 14.6767 17.5935 14.8329 17.4018C15.041 17.1454 15.2294 16.8716 15.393 16.5828C15.4475 16.4857 15.4996 16.3886 15.5466 16.289C15.626 16.1272 15.6954 15.9654 15.7524 15.8036C15.9382 15.2882 16.0299 14.7629 16.0399 14.2401C16.0522 13.6351 15.9581 13.0302 15.7821 12.4402C15.6061 11.8526 15.3508 11.28 15.0361 10.7423C16.7784 10.085 18.3597 8.52907 19.4155 7.14487C19.4551 7.09259 19.47 7.03783 19.4675 6.98306C20.1218 6.11421 19.9657 4.8271 19.4502 3.86862C18.6819 2.43713 16.8379 1.44876 15.2319 1.94419C15.1972 1.95414 15.1699 1.97157 15.1427 1.98899C13.2863 2.19812 11.4002 2.52177 9.59096 3.06947C9.58849 3.06947 9.58849 3.06947 9.58849 3.07196C9.50175 3.09935 9.415 3.12673 9.32825 3.15163C9.17955 3.19893 9.03332 3.24622 8.88709 3.29601C8.80778 3.3234 8.73095 3.35079 8.65412 3.37817C8.50541 3.43045 8.35671 3.48523 8.21048 3.54C8.22287 3.39062 8.22783 3.24125 8.23031 3.09685C8.23526 2.72591 8.18569 2.345 8.07912 1.98899C7.90563 1.40395 7.55369 0.88364 7.05305 0.535103C6.22773 -0.0399857 5.01825 0.149223 4.72828 1.20728C4.58701 1.7276 4.70597 2.29522 4.88194 2.79064C5.11491 3.45037 5.47676 4.05783 5.8981 4.61549C5.77913 4.68271 5.66017 4.74992 5.54368 4.82211C5.52881 4.82958 5.51394 4.83955 5.49907 4.84951C5.30576 4.96652 5.11244 5.0885 4.92407 5.21297C4.91912 5.21795 4.91168 5.22044 4.90672 5.22542C4.85716 5.25778 4.81007 5.29264 4.7605 5.32501C4.63658 5.00634 4.47548 4.69515 4.31934 4.41881C4.09876 4.03043 3.81622 3.66199 3.47667 3.36822C2.97603 2.93255 2.31428 2.6562 1.65006 2.81553C1.09489 2.94748 0.685948 3.43544 0.606638 3.9931C0.490151 4.79723 0.894137 5.5416 1.38239 6.14656C1.73185 6.57974 2.16062 6.95317 2.61665 7.2793C1.94252 8.11579 1.41213 9.06682 1.07507 10.095C0.777653 10.9962 0.633901 11.9472 0.646293 12.8982C0.653729 13.4982 0.71569 14.0882 0.832176 14.6608C0.864396 14.8152 0.901573 14.9671 0.941228 15.1214C1.08002 15.6467 1.26838 16.1521 1.51126 16.6276C1.84585 17.2824 2.27959 17.8798 2.81989 18.3952ZM15.2715 2.62135C15.2988 2.60144 15.3186 2.58152 15.336 2.55662C16.6818 2.4421 17.8367 2.71595 18.6819 3.86364C19.294 4.69266 19.584 5.95735 18.7959 6.76646C17.7326 7.85937 16.3199 7.22703 15.5913 6.16399C15.0386 5.36235 14.2157 3.36573 15.2715 2.62135ZM5.71717 0.896091C5.64777 0.923477 5.76178 0.873686 5.71717 0.896091V0.896091ZM5.58829 0.973267C5.58581 0.973267 5.58581 0.973267 5.58829 0.973267C5.54864 1.00065 5.64282 0.925964 5.58829 0.973267ZM5.33797 2.15082C5.28592 1.89689 5.28097 1.60809 5.33053 1.39897C5.37762 1.19981 5.4272 1.1077 5.58334 0.973267C5.58582 0.970778 5.5883 0.970772 5.59077 0.968283C5.60812 0.955835 5.62795 0.943384 5.64777 0.933426C5.6676 0.920979 5.68743 0.911018 5.70726 0.90106C5.71222 0.898571 5.71221 0.898581 5.71717 0.896091C5.7593 0.878664 5.80144 0.868698 5.84605 0.856249C5.86836 0.851271 5.89066 0.846294 5.91297 0.843805C5.8981 0.843805 5.91793 0.841312 5.92536 0.841312C5.93032 0.841312 5.93032 0.841316 5.91297 0.843805C5.91792 0.843805 5.92784 0.843803 5.94271 0.841312C5.9898 0.836334 6.03689 0.838823 6.08646 0.841312C6.12364 0.843803 6.13355 0.843803 6.13851 0.841312C6.13851 0.841312 6.14347 0.843809 6.17321 0.848789C6.22278 0.858747 6.27234 0.871199 6.32191 0.883646C6.34669 0.891115 6.45079 0.928457 6.45575 0.928457C6.45079 0.925966 6.44831 0.923473 6.44336 0.923473C6.45327 0.928452 6.45575 0.928457 6.45575 0.928457C6.90186 1.12513 7.21167 1.49608 7.38764 1.94171C7.519 2.26535 7.576 2.60642 7.58839 2.95247C7.59831 3.2537 7.54626 3.53999 7.49916 3.82878C7.11501 3.99309 6.73581 4.17235 6.36653 4.36653C5.92041 3.67942 5.50402 2.95246 5.33797 2.15082ZM1.31547 4.88435C1.21634 4.60801 1.17668 4.3018 1.22625 4.0628C1.27086 3.85119 1.39478 3.66447 1.51126 3.57733C1.71202 3.42796 1.85577 3.40058 2.09866 3.40804C2.33163 3.41551 2.60922 3.53501 2.84714 3.68937C3.54606 4.14993 3.92031 4.95905 4.19541 5.73579C3.7493 6.08184 3.33044 6.46523 2.95372 6.88596C2.27215 6.34573 1.61289 5.69844 1.31547 4.88435ZM1.45427 14.4766C1.34026 13.9663 1.27334 13.4385 1.24855 12.9057C1.20642 11.895 1.35761 10.8817 1.69467 9.92819C1.87064 9.43277 2.10609 8.96226 2.38863 8.5216C2.38863 8.5216 2.38864 8.5216 2.39111 8.5216C2.47042 8.39713 2.55221 8.27513 2.63896 8.15563C2.64391 8.14816 2.65135 8.1407 2.65631 8.13323C2.73562 8.02618 2.81492 7.92162 2.89919 7.81706C2.91158 7.80212 2.92397 7.78718 2.93636 7.77225C2.98593 7.7125 3.03799 7.65274 3.09003 7.59299C3.12473 7.6154 3.15943 7.6378 3.19412 7.65772C3.45932 7.81954 3.67494 7.42371 3.43205 7.24695C3.4271 7.24197 3.41966 7.23698 3.41223 7.23449C3.72947 6.90089 4.06901 6.59219 4.42591 6.3034C4.59196 6.49759 5.00338 6.37311 4.96868 6.0893C4.96125 6.02955 4.95134 5.97229 4.93894 5.91005C5.09756 5.79553 5.25866 5.68351 5.42472 5.57646C5.47181 5.54658 5.52138 5.51671 5.56847 5.48683C5.70478 5.3997 5.8411 5.31256 5.97989 5.2304C6.02698 5.20302 6.07407 5.17812 6.12116 5.15073C6.16825 5.12335 6.21781 5.09598 6.26738 5.06859C6.2773 5.07855 6.28474 5.09098 6.29465 5.10094C6.4607 5.29762 6.7829 5.05862 6.68128 4.84203C6.93904 4.7076 7.20423 4.58064 7.46942 4.45865C7.58095 4.64287 7.91307 4.69016 8.0122 4.46362C8.05186 4.37399 8.0816 4.2794 8.10887 4.18231C8.19809 4.14497 8.28978 4.10762 8.38149 4.07028C8.38644 4.06779 8.39388 4.06529 8.39884 4.0628C8.81026 3.90347 9.22911 3.75658 9.65293 3.62464C11.259 3.12175 12.9319 2.80309 14.5627 2.62384C13.8588 3.58979 14.419 5.2802 14.9146 6.20383C15.559 7.40628 16.652 8.10335 17.8491 7.90418C16.9098 8.80789 15.8961 9.60954 14.7486 10.1971C14.7238 10.1647 14.699 10.1348 14.6693 10.1099C14.4289 9.90331 14.129 10.1572 14.2479 10.4336C14.1364 10.4834 14.0249 10.5307 13.9134 10.5755C13.6432 10.6825 13.7473 11.051 14.0323 11.0062C14.2009 10.9788 14.3719 10.9439 14.5379 10.8991C14.8205 11.4095 15.0534 11.9447 15.2145 12.4924C15.3732 13.0352 15.4574 13.5928 15.4426 14.1604C15.4277 14.6484 15.3385 15.1438 15.1575 15.6392C15.108 15.7762 15.0485 15.9131 14.984 16.0425C14.8031 16.4085 14.5751 16.7496 14.3074 17.0583C14.0422 17.367 13.7374 17.6483 13.4102 17.9023C13.1252 18.1213 12.8204 18.3205 12.5081 18.4973C12.114 18.7188 11.7026 18.908 11.2961 19.0624C11.2044 19.0972 11.1127 19.1296 11.0185 19.162C10.3989 19.3711 9.74959 19.518 9.09032 19.5877C8.14108 19.6922 7.1745 19.6449 6.25004 19.4259C5.72709 19.3039 5.22149 19.1246 4.74067 18.8881C4.16815 18.6068 3.66999 18.2458 3.2437 17.8276C2.76536 17.3546 2.37624 16.8068 2.07387 16.2069C1.79381 15.6666 1.59058 15.0816 1.45427 14.4766Z" fill="#EB99C2"/>
</svg>
