<svg width="3" height="5" viewBox="0 0 3 5" fill="none" xmlns="http://www.w3.org/2000/svg">
<path d="M2.49662 3.82875C2.54619 3.53996 2.59575 3.25617 2.58584 2.95244C2.57345 2.60639 2.51644 2.26532 2.38509 1.94168C2.20664 1.49854 1.89683 1.1251 1.45319 0.928428C1.44823 0.928428 1.34415 0.888597 1.31936 0.883618C1.26979 0.868681 1.2227 0.856229 1.17065 0.848761C1.14339 0.843781 1.13595 0.841285 1.13595 0.841285C1.13099 0.841285 1.12108 0.841285 1.08391 0.841285C1.03682 0.838795 0.98973 0.838795 0.940161 0.841285C0.922812 0.843774 0.91537 0.843777 0.910413 0.843777C0.888107 0.848756 0.865804 0.851242 0.843498 0.856221C0.801365 0.86618 0.756756 0.878636 0.714622 0.896063C0.712144 0.898552 0.709663 0.898542 0.704706 0.901032C0.684879 0.91099 0.665054 0.920949 0.645226 0.933397C0.625399 0.943355 0.605569 0.955807 0.58822 0.968255C0.583263 0.970744 0.583263 0.973238 0.580785 0.973238C0.422165 1.10767 0.375077 1.19978 0.327987 1.39894C0.278418 1.60807 0.283375 1.89437 0.335422 2.15079C0.501477 2.95243 0.915372 3.67939 1.36149 4.36401C1.73326 4.17232 2.11246 3.99306 2.49662 3.82875Z" fill="#F4BFD9"/>
</svg>
