<svg width="41" height="16" viewBox="0 0 41 16" fill="none" xmlns="http://www.w3.org/2000/svg">
<path d="M1.65846 6.06625C1.73346 6.26269 1.88346 6.4138 2.07846 6.4138C2.27346 6.4138 2.42346 6.29292 2.45346 6.06625L3.39846 3.27069L4.34346 6.06625C4.41846 6.26269 4.53846 6.4138 4.71846 6.4138H4.76346C4.95846 6.4138 5.10846 6.29292 5.13846 6.06625L6.39846 2.57558C6.39846 2.53025 6.44346 2.45469 6.44346 2.37914C6.44346 2.18269 6.29346 2.03158 6.06846 2.03158C5.87346 2.03158 5.76846 2.15247 5.72346 2.30358L4.73346 5.22003L3.78846 2.34891C3.71346 2.15247 3.59346 2.04669 3.41346 2.04669H3.36846C3.17346 2.04669 3.06846 2.16758 2.99346 2.34891L2.04846 5.22003L1.10346 2.34891C1.02846 2.15247 0.908456 2.04669 0.728456 2.04669C0.533456 2.04669 0.353456 2.1978 0.353456 2.39425C0.353456 2.4698 0.398457 2.51514 0.398457 2.59069L1.65846 6.06625ZM8.39346 6.4138C9.08346 6.4138 9.53346 6.11158 9.80346 5.83958V6.03603C9.80346 6.23247 9.95346 6.38358 10.1785 6.38358C10.3735 6.38358 10.5235 6.23247 10.5235 6.00581V3.78447C10.5235 3.24047 10.3735 2.83247 10.0735 2.51514C9.77346 2.21292 9.30846 2.0618 8.70846 2.0618C8.21346 2.0618 7.79346 2.13736 7.34346 2.3338C7.22346 2.37914 7.11846 2.48492 7.11846 2.63603C7.11846 2.83247 7.26846 2.98358 7.46346 2.98358C7.50846 2.98358 7.53846 2.98358 7.61346 2.93825C7.95846 2.78714 8.30346 2.71158 8.63346 2.71158C9.17346 2.71158 9.77346 2.90803 9.77346 3.73914V3.78447C9.47346 3.70891 9.12846 3.63336 8.58846 3.63336C7.47846 3.63336 6.75846 4.17736 6.75846 5.00847C6.80346 5.94536 7.59846 6.4138 8.39346 6.4138ZM7.56846 5.02358C7.56846 4.52492 7.98846 4.25292 8.67846 4.25292C9.05346 4.25292 9.44346 4.29825 9.81846 4.40403V4.75158C9.81846 5.3258 9.24846 5.77914 8.52846 5.77914C8.06346 5.79425 7.56846 5.56758 7.56846 5.02358ZM11.9035 6.36847C12.0985 6.36847 12.2785 6.21736 12.2785 5.99069V4.61558C12.2785 3.58803 12.7735 2.92314 13.6435 2.81736C13.8385 2.77203 13.9885 2.62092 13.9885 2.43958C13.9885 2.21292 13.8385 2.0618 13.6135 2.0618C13.1185 2.0618 12.5935 2.40936 12.2785 2.93825V2.43958C12.2785 2.21292 12.1285 2.0618 11.9035 2.0618C11.7085 2.0618 11.5285 2.21292 11.5285 2.43958V6.00581C11.5135 6.21736 11.7085 6.36847 11.9035 6.36847ZM17.9485 5.52225C17.9485 5.3258 17.7985 5.17469 17.6035 5.17469C17.4835 5.17469 17.4085 5.22003 17.3785 5.25025C17.0335 5.55247 16.6885 5.70358 16.2385 5.70358C15.5185 5.70358 14.9785 5.20491 14.8735 4.43425H17.7235C17.9185 4.43425 18.0685 4.28314 18.0685 4.08669C18.0685 3.0138 17.3785 1.94091 16.1335 1.94091C14.9935 1.94091 14.1235 2.89291 14.1235 4.16225C14.1235 5.43158 15.0385 6.38358 16.2235 6.38358C16.8685 6.38358 17.3635 6.18714 17.8285 5.7338C17.9185 5.71869 17.9485 5.64314 17.9485 5.52225ZM16.1635 2.65114C16.9585 2.65114 17.3035 3.30092 17.3785 3.92047H14.9035C14.9785 3.18003 15.5185 2.65114 16.1635 2.65114ZM21.8335 5.99069C21.8335 6.21736 21.9835 6.36847 22.2085 6.36847C22.4035 6.36847 22.5835 6.21736 22.5835 5.99069V3.72403C22.5835 2.69647 21.9385 2.00136 20.9485 2.00136C20.3785 2.00136 19.9585 2.22803 19.6135 2.65114V0.732026C19.6135 0.535581 19.4635 0.354248 19.2385 0.354248C19.0435 0.354248 18.8635 0.505359 18.8635 0.732026V5.99069C18.8635 6.21736 19.0135 6.36847 19.2385 6.36847C19.4635 6.36847 19.6135 6.21736 19.6135 5.99069V3.92047C19.6135 3.19514 20.0635 2.69647 20.7535 2.69647C21.3985 2.69647 21.8185 3.11958 21.8185 3.89025V5.99069H21.8335ZM27.7285 4.22269C27.7285 2.95336 26.7835 2.00136 25.5235 2.00136C24.3085 2.00136 23.3185 2.95336 23.3185 4.22269C23.3185 5.44669 24.2635 6.4138 25.4935 6.4138C26.7385 6.44403 27.7285 5.44669 27.7285 4.22269ZM26.9635 4.22269C26.9635 5.06892 26.3485 5.71869 25.5235 5.71869C24.7285 5.71869 24.0835 5.06892 24.0835 4.19247C24.0835 3.31603 24.6985 2.66625 25.4935 2.66625C26.3185 2.69647 26.9635 3.34625 26.9635 4.22269ZM31.4185 5.79425V6.02091C31.4185 6.24758 31.5685 6.39869 31.7935 6.39869C31.9885 6.39869 32.1685 6.24758 32.1685 6.02091V2.45469C32.1685 2.22803 32.0185 2.07692 31.7935 2.07692C31.5985 2.07692 31.4185 2.22803 31.4185 2.45469V4.52492C31.4185 5.25025 30.9685 5.74891 30.2785 5.74891C29.6335 5.74891 29.2135 5.3258 29.2135 4.60047V2.48492C29.2135 2.28847 29.0635 2.10714 28.8385 2.10714C28.6135 2.10714 28.4635 2.25825 28.4635 2.48492V4.75158C28.4635 5.77914 29.1085 6.47425 30.0985 6.47425C30.6235 6.4138 31.0735 6.21736 31.4185 5.79425ZM33.0235 5.8698C33.4735 6.21736 34.0885 6.4138 34.6285 6.4138C35.5435 6.4138 36.1435 5.8698 36.1435 5.11425C36.1435 4.26803 35.3485 4.04136 34.7785 3.89025C34.2835 3.73914 33.7885 3.58803 33.7885 3.27069C33.7885 2.96847 34.0885 2.72669 34.5085 2.72669C34.8085 2.72669 35.1985 2.84758 35.5285 3.02891C35.5735 3.02891 35.6035 3.07425 35.6785 3.07425C35.8735 3.07425 36.0235 2.92314 36.0235 2.72669C36.0235 2.6058 35.9485 2.50003 35.8285 2.42447C35.4085 2.1978 34.9135 2.07692 34.4935 2.07692C33.6235 2.07692 33.0535 2.57558 33.0535 3.34625C33.0535 4.19247 33.8485 4.41914 34.4635 4.57025C35.0035 4.72136 35.4085 4.87247 35.4085 5.22003C35.4085 5.56758 35.1085 5.79425 34.6435 5.79425C34.2235 5.79425 33.8035 5.64314 33.3835 5.37114C33.3385 5.3258 33.2635 5.29558 33.1885 5.29558C32.9935 5.29558 32.8435 5.44669 32.8435 5.64314C32.8585 5.74891 32.9335 5.83958 33.0235 5.8698ZM40.7035 4.14714C40.7035 3.07425 40.0135 2.00136 38.7235 2.00136C37.5835 2.00136 36.7135 2.95336 36.7135 4.22269C36.7135 5.49203 37.6285 6.44403 38.8135 6.44403C39.4585 6.44403 39.9535 6.24758 40.4185 5.79425C40.4935 5.71869 40.5385 5.64314 40.5385 5.52225C40.5385 5.3258 40.3885 5.17469 40.1935 5.17469C40.0735 5.17469 39.9985 5.22003 39.9685 5.25025C39.6235 5.55247 39.2785 5.70358 38.8285 5.70358C38.1085 5.70358 37.5685 5.20491 37.4635 4.43425H40.3135C40.5535 4.52491 40.7035 4.34358 40.7035 4.14714ZM37.4635 3.92047C37.5835 3.19514 38.0785 2.65114 38.7235 2.65114C39.5185 2.65114 39.8635 3.30092 39.9385 3.92047H37.4635ZM2.22846 11.4307C1.68846 11.2796 1.23846 11.1285 1.23846 10.7809C1.23846 10.4787 1.53846 10.2369 1.95846 10.2369C2.25846 10.2369 2.64846 10.3578 2.97846 10.5391C3.02346 10.5391 3.05346 10.5845 3.12846 10.5845C3.32346 10.5845 3.47346 10.4334 3.47346 10.2369C3.47346 10.116 3.39846 10.0102 3.27846 9.93469C2.85846 9.70803 2.36346 9.58714 1.94346 9.58714C1.07346 9.58714 0.503456 10.0858 0.503456 10.8111C0.503456 11.6574 1.29846 11.884 1.91346 12.0351C2.45346 12.1862 2.85846 12.3374 2.85846 12.6849C2.85846 13.0325 2.55846 13.2591 2.09346 13.2591C1.67346 13.2591 1.25346 13.108 0.833458 12.836C0.788458 12.7907 0.713455 12.7605 0.638455 12.7605C0.443455 12.7605 0.293457 12.9116 0.293457 13.108C0.293457 13.2591 0.368457 13.3347 0.443457 13.38C0.893457 13.7276 1.50846 13.924 2.04846 13.924C2.96346 13.924 3.56346 13.38 3.56346 12.6245C3.60846 11.8538 2.76846 11.5818 2.22846 11.4307ZM6.26346 10.3578C6.45846 10.3578 6.60846 10.2067 6.60846 10.0102C6.60846 9.8138 6.45846 9.66269 6.26346 9.66269H5.27346V8.78625C5.27346 8.5898 5.07846 8.40847 4.89846 8.40847C4.71846 8.40847 4.52346 8.55958 4.52346 8.78625V9.66269H4.25346C4.05846 9.66269 3.90846 9.8138 3.90846 10.0102C3.90846 10.2067 4.05846 10.3578 4.25346 10.3578H4.52346V12.7756C4.52346 13.5765 4.94346 13.9996 5.73846 13.9996C5.96346 13.9996 6.15846 13.9543 6.35346 13.8787C6.50346 13.8334 6.57846 13.7276 6.57846 13.5765C6.57846 13.38 6.42846 13.2289 6.23346 13.2289C6.18846 13.2289 6.18846 13.2289 6.15846 13.2289C6.08346 13.2289 6.00846 13.2743 5.85846 13.2743C5.43846 13.2743 5.24346 13.0778 5.24346 12.6547V10.3125L6.26346 10.3578ZM8.96346 9.63247C8.46846 9.63247 8.04846 9.70802 7.59846 9.90447C7.47846 9.9498 7.40346 10.0556 7.40346 10.2067C7.40346 10.4031 7.55346 10.5542 7.74846 10.5542C7.79346 10.5542 7.82346 10.5542 7.89846 10.5089C8.24346 10.3578 8.58846 10.2822 8.91846 10.2822C9.45846 10.2822 10.0585 10.4787 10.0585 11.3098V11.3551C9.75846 11.2796 9.41346 11.204 8.87346 11.204C7.76346 11.204 7.04346 11.748 7.04346 12.5791C7.04346 13.4556 7.83846 13.924 8.64846 13.924C9.33846 13.924 9.78846 13.6218 10.0585 13.3498V13.5462C10.0585 13.7427 10.2085 13.8938 10.4035 13.8938C10.5985 13.8938 10.7485 13.7427 10.7485 13.516V11.2494C10.7485 10.7054 10.5985 10.2974 10.3285 9.98003C10.0285 9.78358 9.57846 9.63247 8.96346 9.63247ZM10.0735 12.3071C10.0735 12.8814 9.50346 13.3347 8.78346 13.3347C8.33346 13.3347 7.83846 13.108 7.83846 12.6094C7.83846 12.1107 8.25846 11.8387 8.94846 11.8387C9.32346 11.8387 9.71346 11.884 10.0885 11.9898V12.3071H10.0735ZM13.6435 10.3578C13.8385 10.3578 13.9885 10.2067 13.9885 10.0102C13.9885 9.8138 13.8385 9.66269 13.6435 9.66269H12.6535V8.78625C12.6535 8.5898 12.4585 8.40847 12.2785 8.40847C12.0835 8.40847 11.9035 8.55958 11.9035 8.78625V9.66269H11.6335C11.4385 9.66269 11.2885 9.8138 11.2885 10.0102C11.2885 10.2067 11.4385 10.3578 11.6335 10.3578H11.9035V12.7756C11.9035 13.5765 12.3235 13.9996 13.1185 13.9996C13.3435 13.9996 13.5385 13.9543 13.7335 13.8787C13.8835 13.8334 13.9585 13.7276 13.9585 13.5765C13.9585 13.38 13.8085 13.2289 13.6135 13.2289C13.5685 13.2289 13.5685 13.2289 13.5385 13.2289C13.4635 13.2289 13.3885 13.2743 13.2385 13.2743C12.8185 13.2743 12.6235 13.0778 12.6235 12.6547V10.3125L13.6435 10.3578ZM15.1735 9.63247C14.9785 9.63247 14.7985 9.78358 14.7985 10.0102V13.5765C14.7985 13.8031 14.9485 13.9543 15.1735 13.9543C15.3985 13.9543 15.5485 13.8031 15.5485 13.5765V10.0102C15.5485 9.78358 15.3985 9.63247 15.1735 9.63247ZM15.1735 8.06091C14.9485 8.06091 14.7535 8.21203 14.7535 8.43869V8.55958C14.7535 8.78625 14.9485 8.93736 15.1735 8.93736C15.3985 8.93736 15.5935 8.78625 15.5935 8.55958V8.43869C15.5935 8.21203 15.4435 8.06091 15.1735 8.06091ZM18.5935 9.58714C17.3785 9.58714 16.3885 10.5391 16.3885 11.8085C16.3885 13.0325 17.3335 13.9996 18.5635 13.9996C19.7935 13.9996 20.7685 13.0476 20.7685 11.7782C20.7985 10.5542 19.8535 9.58714 18.5935 9.58714ZM20.0485 11.8085C20.0485 12.6547 19.4335 13.3045 18.6085 13.3045C17.8135 13.3045 17.1685 12.6547 17.1685 11.7782C17.1685 10.9018 17.7835 10.252 18.5785 10.252C19.3885 10.2822 20.0485 10.932 20.0485 11.8085ZM23.6635 9.58714C23.0935 9.58714 22.6735 9.8138 22.3285 10.2369V10.0102C22.3285 9.78358 22.1785 9.63247 21.9535 9.63247C21.7585 9.63247 21.5785 9.78358 21.5785 10.0102V13.5765C21.5785 13.8031 21.7285 13.9543 21.9535 13.9543C22.1785 13.9543 22.3285 13.8031 22.3285 13.5765V11.5062C22.3285 10.7809 22.7785 10.2822 23.4685 10.2822C24.1135 10.2822 24.5335 10.7054 24.5335 11.4307V13.5462C24.5335 13.7729 24.6835 13.924 24.9085 13.924C25.1035 13.924 25.2835 13.7729 25.2835 13.5462V11.2796C25.2985 10.2369 24.6535 9.58714 23.6635 9.58714ZM28.0735 9.58714C26.9335 9.58714 26.0635 10.5391 26.0635 11.7782C26.0635 13.0476 26.9785 13.9996 28.1635 13.9996C28.8085 13.9996 29.3035 13.8031 29.7685 13.3498C29.8435 13.2743 29.8885 13.1987 29.8885 13.0778C29.8885 12.8814 29.7385 12.7302 29.5435 12.7302C29.4235 12.7302 29.3485 12.7756 29.3185 12.8058C28.9735 13.108 28.6285 13.2591 28.1785 13.2591C27.4585 13.2591 26.9185 12.7605 26.8135 11.9898H29.6635C29.8585 11.9898 30.0085 11.8387 30.0085 11.6422C30.0085 10.66 29.3335 9.58714 28.0735 9.58714ZM26.8135 11.5062C26.9335 10.7809 27.4285 10.2369 28.0735 10.2369C28.8685 10.2369 29.2135 10.8867 29.2885 11.5062H26.8135ZM32.8585 9.63247C32.3635 9.63247 31.8385 9.98003 31.5235 10.5089V10.0102C31.5235 9.78358 31.3735 9.63247 31.1485 9.63247C30.9535 9.63247 30.7735 9.78358 30.7735 10.0102V13.5765C30.7735 13.8031 30.9235 13.9543 31.1485 13.9543C31.3435 13.9543 31.5235 13.8031 31.5235 13.5765V12.2014C31.5235 11.1738 32.0185 10.5089 32.8885 10.4031C33.0835 10.3578 33.2335 10.2067 33.2335 10.0254C33.2485 9.78358 33.0985 9.63247 32.8585 9.63247ZM37.1635 9.63247C37.0435 9.63247 36.8935 9.6778 36.8185 9.90447L35.6035 12.972L34.2685 9.90447C34.1935 9.70802 34.0735 9.63247 33.8935 9.63247C33.6685 9.63247 33.5185 9.78358 33.5185 10.0102C33.5185 10.0858 33.5185 10.1311 33.5635 10.2067L35.2435 13.8031V13.8485C35.0185 14.3471 34.8235 14.5436 34.4785 14.5436C34.2835 14.5436 34.1785 14.4982 34.0585 14.468C34.0135 14.468 33.9385 14.4227 33.8635 14.4227C33.6685 14.4227 33.5185 14.5738 33.5185 14.7702C33.5185 14.9214 33.5935 15.0422 33.7435 15.1178C33.9385 15.1934 34.1185 15.2387 34.4335 15.2387C35.0785 15.2387 35.4985 14.8911 35.8735 14.0449L37.4785 10.2067C37.4785 10.1614 37.5235 10.0858 37.5235 10.0556C37.5385 9.78358 37.3585 9.63247 37.1635 9.63247Z" fill="black"/>
</svg>
