<svg width="10" height="11" viewBox="0 0 10 11" fill="none" xmlns="http://www.w3.org/2000/svg">
<path d="M6.41891 10.7971C6.88089 10.7971 7.33578 10.7697 7.78553 10.718C8.24978 10.6587 8.62344 10.582 8.90697 10.4846C9.0282 10.4285 9.1138 10.3765 9.15698 10.3336C9.19488 10.2879 9.23322 10.2067 9.27384 10.0891C9.34479 9.81745 9.41409 9.48025 9.47584 9.07305C9.54514 8.66836 9.5782 8.42634 9.5782 8.35178C9.5782 8.2296 9.54514 8.15946 9.47584 8.14542C9.40458 8.14542 9.35929 8.21557 9.34026 8.35178C9.32336 8.48956 9.27112 8.67055 9.18537 8.89677C9.10444 9.12993 8.98532 9.32858 8.82574 9.4916C8.55203 9.75645 8.214 9.93523 7.81422 10.023C7.40945 10.1252 6.94491 10.1747 6.42148 10.1747C4.91898 10.1567 3.71889 9.65034 2.8215 8.65037C1.89769 7.68194 1.43344 6.533 1.42393 5.2026C1.41442 4.50611 1.50244 3.85675 1.68814 3.26178C1.85255 2.6643 2.18122 2.13253 2.67385 1.66211C2.79795 1.53583 2.94998 1.41116 3.12632 1.29135C3.29994 1.18494 3.51191 1.08325 3.7595 0.981569C4.01178 0.883978 4.31448 0.804667 4.66414 0.748544C5.00217 0.696209 5.39742 0.669244 5.85216 0.669244C7.14027 0.696203 8.0594 0.951762 8.61423 1.443C8.79978 1.59686 8.9426 1.79359 9.04737 2.03542C9.14505 2.27962 9.19488 2.53991 9.19488 2.82305C9.18536 3.0127 9.22356 3.10777 9.30916 3.10777C9.38299 3.11693 9.4236 3.02168 9.43296 2.82305C9.44263 2.4789 9.45425 2.01242 9.47358 1.42486C9.50921 0.979032 9.53321 0.723155 9.54257 0.662145C9.55676 0.583009 9.49728 0.535882 9.36623 0.517597C8.94501 0.479008 8.47352 0.411503 7.95462 0.314076C7.22587 0.205296 6.55706 0.150887 5.94984 0.150887C4.89981 0.160226 4.0382 0.29594 3.36199 0.56284C2.68321 0.841088 2.13834 1.18743 1.72875 1.60299C1.12878 2.22114 0.719035 2.87476 0.497555 3.55801C0.278643 4.24804 0.171602 4.83132 0.181264 5.309C0.171602 5.96261 0.28589 6.6443 0.52624 7.34962C0.769007 8.05952 1.21196 8.72053 1.85481 9.33142C2.88566 10.2992 4.40718 10.7879 6.41891 10.795V10.7971Z" fill="#525252"/>
</svg>
