<svg width="11" height="10" viewBox="0 0 11 10" fill="none" xmlns="http://www.w3.org/2000/svg">
<path d="M3.00567 1.24028C3.00567 1.17264 3.03949 1.12691 3.10697 1.10326C3.26323 1.06573 3.53831 1.04226 3.93129 1.03013C5.32614 1.05756 6.03633 1.85193 6.05943 3.41581C6.04447 4.33852 5.79295 4.94815 5.30712 5.248C5.16777 5.33707 5.01755 5.39682 4.85676 5.42836C4.6922 5.45796 4.53579 5.47396 4.38799 5.47396C4.10672 5.47396 3.84871 5.45427 3.61213 5.41639C3.37118 5.3765 3.19997 5.33503 3.09656 5.28711C3.03511 5.24582 3.00567 5.19599 3.00567 5.14271V1.24028ZM2.02706 6.19028C2.02706 7.37722 2.00577 8.24318 1.96138 8.78644C1.94478 8.96348 1.91277 9.10412 1.86642 9.21352C1.81781 9.33428 1.73341 9.41024 1.60856 9.44178C1.48597 9.47138 1.36352 9.48738 1.23882 9.48738C1.17541 9.49925 1.14371 9.52337 1.14371 9.56051C1.14371 9.6201 1.20923 9.65039 1.34254 9.65039C1.90447 9.63412 2.28915 9.62424 2.49206 9.61619C2.68847 9.62424 3.19182 9.63418 4.00331 9.65039C4.13632 9.65039 4.20184 9.62013 4.20184 9.56051C4.20184 9.52333 4.16998 9.49731 4.10672 9.48738C3.95016 9.48738 3.7622 9.47144 3.54646 9.44178C3.36695 9.41024 3.24859 9.33428 3.19182 9.21352C3.12811 9.10601 3.0878 8.96348 3.07119 8.78881C3.01835 8.24318 2.99706 7.3772 3.00567 6.19247V5.90667C3.00567 5.84346 3.03511 5.81317 3.09459 5.81317L4.60766 5.83508C4.67092 5.83508 4.72376 5.85888 4.76392 5.90445C5.07477 6.32175 5.5206 6.90869 6.09943 7.66935C6.44396 8.11596 6.74832 8.48312 7.01237 8.77052C7.2642 9.06248 7.51331 9.27895 7.76287 9.42335C7.91716 9.50501 8.09471 9.56049 8.28901 9.59282C8.47728 9.62988 8.73937 9.65039 9.07498 9.65039H9.9458C10.1529 9.65039 10.2545 9.62013 10.2459 9.56051C10.2333 9.52333 10.1954 9.49921 10.1317 9.48738C10.0513 9.49925 9.89085 9.48737 9.65216 9.45189C9.50405 9.43738 9.30537 9.37023 9.05385 9.25514C8.78979 9.14195 8.48981 8.92362 8.15359 8.59651C7.45216 7.83206 6.60052 6.81633 5.60303 5.54788C6.15227 5.04704 6.54118 4.57313 6.76961 4.12636C6.98082 3.67406 7.08635 3.22886 7.08635 2.79406C7.07805 2.37156 6.97644 2.02032 6.78244 1.7405C6.70167 1.60145 6.61727 1.48241 6.52412 1.38562C6.42493 1.28993 6.33208 1.21633 6.24557 1.17077C5.91585 0.948958 5.56061 0.802032 5.17608 0.728412C4.79139 0.674961 4.39826 0.646889 3.99455 0.646889C3.3905 0.662982 2.90844 0.67495 2.54716 0.682703C2.33157 0.666785 1.86838 0.654994 1.15639 0.646889C1.02308 0.646889 0.958008 0.676847 0.958008 0.736442C0.958008 0.785898 0.991527 0.809576 1.05931 0.809576C1.20712 0.809576 1.34646 0.821696 1.47328 0.845427C1.68057 0.874912 1.82233 0.946776 1.8939 1.05981C1.95715 1.1607 1.99339 1.31615 2.00154 1.52629C2.0186 1.64327 2.02706 2.50295 2.02706 4.10481L2.02706 6.19028Z" fill="#525252"/>
</svg>
