<svg width="7" height="10" viewBox="0 0 7 10" fill="none" xmlns="http://www.w3.org/2000/svg">
<path d="M1.94823 6.18877C1.94823 7.37208 1.9283 8.23694 1.88588 8.78005C1.87017 8.95441 1.83968 9.09488 1.79514 9.20444C1.74894 9.32505 1.66847 9.40041 1.54966 9.43195C1.4331 9.4622 1.3161 9.47762 1.19683 9.47762C1.13674 9.48948 1.1067 9.51344 1.1067 9.55108C1.1067 9.61019 1.16905 9.64063 1.29391 9.64063C1.4873 9.64063 1.71301 9.634 1.97087 9.61873C2.23417 9.60892 2.3936 9.60104 2.4398 9.60474C2.68936 9.62225 4.25376 9.6552 5.92987 9.67411C6.16116 9.67646 6.32588 9.65822 6.40906 9.62844C6.49089 9.59913 6.5469 9.50783 6.57785 9.36673C6.61274 9.20877 6.65047 8.99105 6.68293 8.72272C6.71448 8.45567 6.73064 8.28306 6.73277 8.21086C6.7366 8.10255 6.71628 8.03948 6.65864 8.03648C6.60732 8.03354 6.57138 8.09624 6.55583 8.21086C6.49317 8.66993 6.31488 8.96442 6.02637 9.07162C5.87252 9.12871 5.68093 9.16082 5.46866 9.17422C5.25066 9.18826 5.0562 9.19661 4.89315 9.19802C4.33621 9.20214 3.36726 9.14487 3.19635 9.012C3.0259 8.87926 2.93471 8.61535 2.92671 8.22469C2.91463 7.62421 2.91463 6.94807 2.92671 6.1945V5.15023C2.92671 5.09695 2.95298 5.06874 3.00748 5.06874C3.50857 5.06874 4.67092 5.08278 5.2878 5.12642C5.51229 5.14187 5.67444 5.1994 5.75884 5.2828C5.83734 5.36083 5.87932 5.45588 5.89532 5.54275C5.92341 5.69078 5.94215 5.82006 5.94215 5.929C5.94215 6.00294 5.97024 6.03809 6.02835 6.03809C6.07289 6.03809 6.10399 6.00991 6.10701 5.95298C6.10921 5.90881 6.10701 5.86137 6.10701 5.81833C6.10701 5.64429 6.11441 5.38762 6.15532 5.05687C6.20287 4.67425 6.25195 4.44945 6.25406 4.38891C6.25626 4.32869 6.23385 4.2956 6.19156 4.2956C6.15288 4.2956 6.10082 4.35111 6.02035 4.44663C5.92947 4.55462 5.73773 4.60664 5.46281 4.61484C5.28526 4.62013 4.36054 4.62429 3.90294 4.62664C3.43296 4.62898 3.13025 4.63879 2.99528 4.63879C2.93685 4.63879 2.91466 4.60109 2.92674 4.52167V1.23091C2.92674 1.15178 2.94894 1.11379 2.99528 1.11379C3.11425 1.11379 3.3771 1.11144 3.7802 1.11379C4.18783 1.11673 5.0662 1.13446 5.20132 1.14756C5.50643 1.17764 5.72006 1.23174 5.83737 1.30426C5.94698 1.37237 6.01522 1.4589 6.03847 1.55428C6.08119 1.72832 6.10701 1.86941 6.10701 1.97599C6.10701 2.08161 6.13829 2.13507 6.19744 2.13287C6.24712 2.1311 6.27732 2.0797 6.28411 2.00011C6.30722 1.72754 6.31358 1.46127 6.3445 1.21708C6.38377 0.90587 6.4384 0.722672 6.44142 0.661972C6.44418 0.599864 6.4251 0.56441 6.39492 0.557003C6.34239 0.564463 6.28818 0.582844 6.23594 0.612212C6.13343 0.636353 5.96101 0.667895 5.72656 0.672118C4.74296 0.688975 3.2462 0.694665 2.44588 0.684092C2.24177 0.681155 1.79745 0.656018 1.11867 0.648206C0.991852 0.648206 0.929199 0.677681 0.929199 0.73758C0.929199 0.786743 0.96166 0.810894 1.02597 0.810894C1.16729 0.810894 1.29969 0.822421 1.42107 0.846385C1.6181 0.876341 1.75337 0.94729 1.82161 1.06048C1.88215 1.16153 1.91627 1.31805 1.92397 1.52646C1.94042 1.64328 1.94828 2.50199 1.94828 4.10322L1.94823 6.18877Z" fill="#525252"/>
</svg>
