<svg width="22" height="15" viewBox="0 0 22 15" fill="none" xmlns="http://www.w3.org/2000/svg">
<path fill-rule="evenodd" clip-rule="evenodd" d="M12.0109 12.3782C9.20587 11.5246 6.5513 10.3738 3.9819 9.0517L3.85272 11.6011C3.50919 13.0534 1.34578 13.0406 0.952562 11.7086C0.601931 9.53014 0.938369 7.52434 1.96187 5.68841L2.19751 3.33156C2.38773 1.49846 4.1054 1.17996 4.60367 2.15384C6.14105 0.954893 7.82181 0.524574 10.0392 0.654802C12.556 1.13325 12.8783 2.21188 12.1869 3.69677C11.1521 5.16325 8.43789 6.1074 5.82733 6.93124C7.66281 8.14859 9.53521 8.98658 11.4218 9.68585C11.3451 6.27444 12.1429 3.34005 14.6584 1.10352C16.0439 -0.77771 19.3657 0.902519 20.047 3.08526C22.3127 8.66101 21.5362 12.4277 17.0873 14.0089C14.9338 14.4406 13.1082 14.1773 12.0109 12.3782ZM13.7229 9.93357C15.1354 9.77503 15.6748 10.4885 15.618 11.7978C18.1321 11.6987 20.0669 8.70065 18.2201 4.95092C17.3158 4.71736 17.1895 3.77179 16.9652 3.27919C14.7975 3.40941 13.774 6.5717 13.7229 9.93357ZM5.25241 4.66923L5.586 4.36065C6.89058 3.5085 7.73237 3.21124 8.60966 3.30325C7.53222 3.84115 6.41644 4.30403 5.25241 4.66923Z" fill="#FE9DE2" stroke="#000200" stroke-width="0.0306625"/>
</svg>
