<svg width="80" height="22" viewBox="0 0 80 22" fill="none" xmlns="http://www.w3.org/2000/svg">
<path d="M75.5817 4.70494L72.9117 11.2559L71.1062 6.68642C70.41 4.78782 68.2718 4.98747 68.2718 4.98747H62.1323C59.4279 4.98747 57.1213 6.67135 56.2377 9.0333C56.2377 9.00693 56.2415 8.9768 56.2415 8.95043C56.2415 4.39227 52.4928 0.696777 47.8644 0.696777H41.373V4.49775H43.0179V10.6908C42.7692 7.5001 40.0572 4.98747 36.7522 4.98747C33.4893 4.98747 30.8079 7.43983 30.498 10.574C30.192 7.43983 27.5105 4.98747 24.2438 4.98747C21.3252 4.98747 18.8733 6.94635 18.1656 9.60213C18.1694 9.51549 18.1733 9.42884 18.1733 9.33844V6.02718H10.3699V9.73021H14.13C13.9273 12.0922 11.9152 13.9456 9.4633 13.9456C6.87747 13.9456 4.78127 11.8812 4.78127 9.33467C4.78127 6.78813 6.87747 4.72377 9.4633 4.72377H18.1541V0.726914H9.42887C4.59766 0.726914 0.680664 4.58063 0.680664 9.33844C0.680664 14.0962 4.59766 17.9537 9.42887 17.9537C13.6022 17.9537 17.0907 15.0719 17.9629 11.2182C17.9858 14.6161 20.7897 17.3661 24.2438 17.3661C27.5067 17.3661 30.1882 14.9175 30.498 11.7795C30.804 14.9137 33.4855 17.3661 36.7522 17.3661C40.0572 17.3661 42.7654 14.8534 43.0179 11.6627V17.2041H47.8644C51.6169 17.2041 54.7918 14.7743 55.859 11.4254C55.9891 14.7216 58.7509 17.2304 62.1361 17.3661C63.146 17.4037 64.458 16.9215 64.458 16.9215C64.8673 16.7596 65.2766 16.8424 65.2766 16.8424H67.2466V8.22338C67.9466 8.22338 67.9849 8.58879 67.9849 8.58879L71.1062 15.9496L70.7773 16.9215C69.9969 18.9821 68.2718 18.6619 68.2718 18.6619H67.1624V21.3705H70.7352C73.1986 21.2499 73.7724 18.903 73.7724 18.903L79.3189 4.70871H75.5817V4.70494ZM24.2438 14.1678C22.5646 14.1678 21.2028 12.8305 21.2028 11.1768C21.2028 9.52302 22.5646 8.18194 24.2438 8.18194C25.9231 8.18194 27.2849 9.52302 27.2849 11.1768C27.2849 12.8305 25.9231 14.1678 24.2438 14.1678ZM36.7522 14.1678C35.0729 14.1678 33.7112 12.8305 33.7112 11.1768C33.7112 9.52302 35.0729 8.18194 36.7522 8.18194C38.4315 8.18194 39.7932 9.52302 39.7932 11.1768C39.7932 12.8305 38.4315 14.1678 36.7522 14.1678ZM47.8185 13.3993H46.7092V4.50152H47.8185C50.3125 4.50152 52.336 6.4943 52.336 8.95043C52.3398 11.4103 50.3125 13.3993 47.8185 13.3993ZM63.6433 13.761C63.1919 14.0171 62.6946 14.1678 62.1323 14.1678C60.4569 14.1678 59.0951 12.8267 59.0951 11.1768C59.0951 9.52302 60.4569 8.18194 62.1323 8.18194C62.6717 8.18194 63.2072 8.31756 63.6433 8.56619V13.761Z" fill="#DF610F"/>
</svg>
