<svg width="8" height="7" viewBox="0 0 8 7" fill="none" xmlns="http://www.w3.org/2000/svg">
<path d="M1.67026 0.629405C1.67026 0.580216 1.69657 0.546953 1.74906 0.529755C1.87059 0.502458 2.08454 0.485392 2.39019 0.476566C3.47508 0.496516 4.02744 1.07424 4.04541 2.21161C4.03378 2.88267 3.83815 3.32604 3.46028 3.54411C3.3519 3.60889 3.23506 3.65235 3.11 3.67528C2.98201 3.69681 2.86036 3.70845 2.7454 3.70845C2.52664 3.70845 2.32596 3.69413 2.14196 3.66657C1.95455 3.63757 1.82139 3.60741 1.74095 3.57256C1.69316 3.54252 1.67026 3.50629 1.67026 3.46753V0.629405ZM0.909119 4.22941C0.909119 5.09264 0.892564 5.72243 0.858039 6.11752C0.845124 6.24628 0.820231 6.34856 0.78418 6.42813C0.746371 6.51595 0.680729 6.5712 0.583619 6.59413C0.48827 6.61566 0.393039 6.6273 0.296046 6.6273C0.246728 6.63593 0.222069 6.65347 0.222069 6.68049C0.222069 6.72382 0.273032 6.74585 0.376717 6.74585C0.81377 6.73402 1.11297 6.72683 1.27078 6.72098C1.42355 6.72683 1.81505 6.73406 2.4462 6.74585C2.54965 6.74585 2.60062 6.72384 2.60062 6.68049C2.60062 6.65344 2.57584 6.63452 2.52664 6.6273C2.40487 6.6273 2.25868 6.6157 2.09088 6.59413C1.95126 6.57119 1.8592 6.51595 1.81505 6.42813C1.76549 6.34994 1.73414 6.24628 1.72123 6.11924C1.68013 5.72242 1.66357 5.09262 1.67026 4.231V4.02315C1.67026 3.97717 1.69316 3.95515 1.73943 3.95515L2.91625 3.97108C2.96545 3.97108 3.00655 3.98838 3.03779 4.02153C3.27956 4.32502 3.62632 4.75189 4.07652 5.30509C4.34449 5.6299 4.58121 5.89693 4.78659 6.10594C4.98245 6.31828 5.1762 6.47571 5.3703 6.58073C5.49031 6.64012 5.6284 6.68047 5.77953 6.70398C5.92596 6.73093 6.12981 6.74585 6.39084 6.74585H7.06814C7.22925 6.74585 7.30828 6.72384 7.30158 6.68049C7.29172 6.65344 7.26225 6.6359 7.21269 6.6273C7.15022 6.63593 7.0254 6.62729 6.83975 6.60148C6.72456 6.59093 6.57003 6.54209 6.3744 6.4584C6.16903 6.37608 5.9357 6.21729 5.6742 5.97939C5.12864 5.42343 4.46625 4.68471 3.69043 3.76221C4.11762 3.39795 4.42011 3.0533 4.59777 2.72837C4.76205 2.39943 4.84413 2.07564 4.84413 1.75943C4.83767 1.45216 4.75864 1.19671 4.60775 0.993199C4.54493 0.892073 4.47929 0.805503 4.40684 0.735104C4.32969 0.665513 4.25747 0.611986 4.19019 0.57885C3.93373 0.417535 3.65744 0.31068 3.35836 0.257138C3.05916 0.218265 2.75339 0.197848 2.43939 0.197848C1.96958 0.209553 1.59464 0.218256 1.31364 0.223895C1.14596 0.212318 0.785706 0.203743 0.231933 0.197848C0.128247 0.197848 0.0776367 0.219636 0.0776367 0.262978C0.0776367 0.298946 0.103707 0.316166 0.156429 0.316166C0.271387 0.316166 0.37977 0.324981 0.478406 0.342239C0.63963 0.363684 0.749891 0.415949 0.80555 0.498155C0.854751 0.571531 0.882933 0.684583 0.889274 0.837414C0.902543 0.922486 0.909119 1.54771 0.909119 2.7127L0.909119 4.22941Z" fill="#525252"/>
</svg>
