<svg width="8" height="7" viewBox="0 0 8 7" fill="none" xmlns="http://www.w3.org/2000/svg">
<path d="M3.32 3.87878C3.28947 3.87878 3.27973 3.85905 3.29264 3.81962L4.11543 1.48217C4.1671 1.34928 4.21536 1.34928 4.25716 1.48217L5.14983 3.81962C5.16908 3.85905 5.15452 3.87878 5.10779 3.87878H3.32ZM2.01225 5.79625C1.93651 6.01536 1.83823 6.19811 1.71892 6.3412C1.59974 6.49094 1.43546 6.58014 1.22621 6.60777C1.1311 6.61887 1.03927 6.62458 0.950849 6.62458C0.902352 6.62458 0.874993 6.64203 0.868652 6.67837C0.868652 6.72114 0.928069 6.74314 1.04725 6.74314C1.57073 6.73131 1.92359 6.72434 2.10396 6.71858C2.28279 6.7243 2.52751 6.73131 2.83528 6.74314C2.92053 6.74314 2.9675 6.72115 2.97207 6.67837C2.97207 6.64202 2.94143 6.62458 2.88213 6.62458H2.79007C2.70799 6.62458 2.63072 6.60166 2.56144 6.55719C2.47596 6.52404 2.43263 6.46329 2.43263 6.37546C2.43263 6.21391 2.47596 6.02095 2.56144 5.79623L3.12355 4.25952C3.14105 4.21503 3.17334 4.19199 3.22031 4.19199H5.23179C5.27536 4.19199 5.30295 4.2094 5.31422 4.24208L6.18868 6.37546C6.21264 6.44586 6.21921 6.49791 6.20641 6.53117C6.18868 6.57162 6.16296 6.59743 6.13384 6.60774C6.08723 6.61334 6.06445 6.6332 6.06445 6.66977C6.06445 6.70693 6.15979 6.72744 6.34791 6.72744C7.08921 6.73868 7.57887 6.74316 7.81548 6.74316C7.93455 6.74316 7.99725 6.72115 8.00406 6.67837C8.00406 6.64202 7.9733 6.62461 7.912 6.62461C7.81207 6.63324 7.68643 6.61637 7.53695 6.57463C7.44324 6.5572 7.33063 6.4852 7.19853 6.35804C7.05516 6.23135 6.90062 5.98369 6.73153 5.6145C5.78768 3.38048 5.05965 1.6406 4.55073 0.39535C4.45562 0.176246 4.38645 0.070888 4.3396 0.0828147C4.30426 0.0708966 4.23462 0.181771 4.13505 0.415321L2.01225 5.79625Z" fill="#525252"/>
</svg>
