<svg width="9" height="8" viewBox="0 0 9 8" fill="none" xmlns="http://www.w3.org/2000/svg">
<path d="M5.67008 7.8479C6.02917 7.8479 6.38262 7.82804 6.733 7.79046C7.09385 7.74747 7.38459 7.69162 7.60488 7.62065C7.69952 7.57973 7.7661 7.54212 7.79945 7.51036C7.82929 7.47777 7.85864 7.41841 7.89023 7.33322C7.94588 7.13567 7.99966 6.89042 8.04769 6.59427C8.10123 6.29984 8.12718 6.12373 8.12718 6.0695C8.12718 5.98075 8.10124 5.92975 8.04769 5.91966C7.99214 5.91966 7.95716 5.97066 7.94201 6.0695C7.92897 6.1697 7.88858 6.30155 7.82177 6.46596C7.75871 6.63542 7.66618 6.78013 7.54218 6.89856C7.32929 7.0913 7.06625 7.22074 6.75531 7.28517C6.44027 7.35924 6.07918 7.39546 5.67196 7.39546C4.50335 7.38239 3.56983 7.01389 2.87185 6.28687C2.15345 5.58244 1.79249 4.74639 1.78498 3.77906C1.77771 3.2724 1.84628 2.8006 1.99059 2.36755C2.11846 1.93324 2.37397 1.54688 2.75713 1.20452C2.85377 1.11222 2.97214 1.02153 3.10917 0.934854C3.24409 0.85712 3.40896 0.783049 3.60165 0.708985C3.7981 0.638586 4.03319 0.58092 4.30502 0.539642C4.56817 0.501923 4.87547 0.482308 5.22904 0.482308C6.23102 0.501915 6.94578 0.687553 7.37743 1.0447C7.52163 1.15683 7.63283 1.2999 7.71421 1.47579C7.7903 1.65361 7.82928 1.84279 7.82928 2.04848C7.8218 2.18652 7.85133 2.25544 7.91805 2.25544C7.97547 2.2621 8.00706 2.19317 8.01422 2.04848C8.02153 1.79853 8.03102 1.45928 8.04603 1.03174C8.07363 0.707496 8.09217 0.521643 8.09957 0.477041C8.11047 0.419714 8.06414 0.385199 7.96254 0.371785C7.63458 0.343805 7.26798 0.294499 6.86427 0.223875C6.2977 0.144876 5.77727 0.105217 5.30523 0.105217C4.48842 0.112009 3.81816 0.21048 3.29222 0.404819C2.76463 0.607408 2.34061 0.859072 2.02204 1.16153C1.5554 1.61097 1.23658 2.0862 1.06491 2.58323C0.894412 3.08495 0.810925 3.50929 0.818323 3.85681C0.810929 4.33216 0.899816 4.82699 1.08687 5.3403C1.27593 5.85715 1.62009 6.33791 2.12021 6.78173C2.92174 7.48594 4.10527 7.84125 5.67006 7.84652L5.67008 7.8479Z" fill="#525252"/>
</svg>
