<svg width="70" height="19" viewBox="0 0 70 19" fill="none" xmlns="http://www.w3.org/2000/svg">
<path d="M66.1341 4.11676L63.7979 9.84883L62.2181 5.85055C61.6089 4.18928 59.7379 4.36397 59.7379 4.36397H54.3659C51.9995 4.36397 49.9813 5.83737 49.2081 7.90408C49.2081 7.88101 49.2115 7.85464 49.2115 7.83156C49.2115 3.84318 45.9314 0.609619 41.8814 0.609619H36.2015V3.93547H37.6407V9.3544C37.4232 6.56253 35.0501 4.36397 32.1583 4.36397C29.3033 4.36397 26.957 6.50979 26.6859 9.25222C26.4181 6.50979 24.0718 4.36397 21.2135 4.36397C18.6597 4.36397 16.5142 6.07799 15.895 8.4018C15.8984 8.32599 15.9017 8.25018 15.9017 8.17107V5.27372H9.07376V8.51387H12.3639C12.1865 10.5806 10.426 12.2023 8.28051 12.2023C6.01791 12.2023 4.18373 10.396 4.18373 8.16777C4.18373 5.93955 6.01791 4.13324 8.28051 4.13324H15.885V0.635989H8.25038C4.02307 0.635989 0.595703 4.00799 0.595703 8.17107C0.595703 12.3342 4.02307 15.7094 8.25038 15.7094C11.902 15.7094 14.9545 13.1879 15.7176 9.81587C15.7377 12.789 18.1911 15.1952 21.2135 15.1952C24.0685 15.1952 26.4148 13.0527 26.6859 10.307C26.9536 13.0494 29.2999 15.1952 32.1583 15.1952C35.0501 15.1952 37.4198 12.9967 37.6407 10.2048V15.0535H41.8814C45.1649 15.0535 47.9429 12.9275 48.8768 9.99716C48.9906 12.8813 51.4071 15.0766 54.3693 15.1952C55.2529 15.2282 56.4009 14.8063 56.4009 14.8063C56.759 14.6646 57.1172 14.7371 57.1172 14.7371H58.8409V7.1954C59.4534 7.1954 59.4869 7.51513 59.4869 7.51513L62.2181 13.9559L61.9302 14.8063C61.2474 16.6093 59.7379 16.3291 59.7379 16.3291H58.7673V18.6991H61.8934C64.0489 18.5936 64.5509 16.5401 64.5509 16.5401L69.4042 4.12006H66.1341V4.11676ZM21.2135 12.3968C19.7441 12.3968 18.5526 11.2266 18.5526 9.77961C18.5526 8.33258 19.7441 7.15914 21.2135 7.15914C22.6828 7.15914 23.8744 8.33258 23.8744 9.77961C23.8744 11.2266 22.6828 12.3968 21.2135 12.3968ZM32.1583 12.3968C30.6889 12.3968 29.4974 11.2266 29.4974 9.77961C29.4974 8.33258 30.6889 7.15914 32.1583 7.15914C33.6276 7.15914 34.8192 8.33258 34.8192 9.77961C34.8192 11.2266 33.6276 12.3968 32.1583 12.3968ZM41.8413 11.7244H40.8706V3.93877H41.8413C44.0235 3.93877 45.7941 5.68245 45.7941 7.83156C45.7975 9.98397 44.0235 11.7244 41.8413 11.7244ZM55.688 12.0408C55.293 12.2649 54.8579 12.3968 54.3659 12.3968C52.8999 12.3968 51.7084 11.2233 51.7084 9.77961C51.7084 8.33258 52.8999 7.15914 54.3659 7.15914C54.8378 7.15914 55.3064 7.2778 55.688 7.49535V12.0408Z" fill="#DF610F"/>
</svg>
