<svg width="10" height="11" viewBox="0 0 10 11" fill="none" xmlns="http://www.w3.org/2000/svg">
<path d="M6.49345 0.195642C5.24679 0.195642 3.99519 0.566575 3.00629 1.16407C1.53658 2.07027 0.983887 3.61381 0.983887 5.4262C0.983887 6.93239 1.53658 8.14728 2.63948 9.0709C3.55154 9.82524 4.63958 10.2012 5.90358 10.2012C7.29646 10.2012 8.35228 9.71322 9.07102 8.73731C9.24699 8.48089 9.33621 8.23193 9.33621 7.99294C9.33621 7.39295 8.97188 6.97968 8.18374 7.06931C8.03751 7.08673 7.6484 7.2137 7.00896 7.55726C6.57771 7.77883 5.84906 8.22944 4.41652 7.65933C3.70769 7.37801 3.28883 6.98466 3.28883 5.88926C3.28883 5.59798 3.32848 5.34155 3.41027 5.11998C4.41652 5.36644 5.41285 5.49092 6.40422 5.49092C8.73395 5.49092 9.90129 4.79136 9.90129 3.39222C9.90129 3.23787 9.88395 3.07606 9.8542 2.90428C9.54936 1.26864 8.39688 0.195642 6.49345 0.195642ZM6.97922 3.68351C6.81812 3.72584 5.99528 3.63123 4.5107 3.39721L4.2232 3.36484C4.43139 3.00386 5.02869 2.47855 5.49464 2.34661C5.66813 2.29682 5.84658 2.28189 6.02255 2.28189C6.4067 2.28189 6.73385 2.38894 7.004 2.60055C7.27663 2.81216 7.41295 3.02377 7.41295 3.23787C7.41047 3.47189 7.26672 3.61879 6.97922 3.68351Z" fill="#DB87B9"/>
</svg>
