<svg width="3" height="4" viewBox="0 0 3 4" fill="none" xmlns="http://www.w3.org/2000/svg">
<path d="M2.02508 3.15327C2.64469 2.90182 2.89748 2.22467 2.60007 1.61472C2.46128 1.32594 2.23078 1.02969 1.90363 0.955001C1.62605 0.890272 1.20719 1.03466 1.01387 1.24877C0.9073 1.36827 0.815601 1.5027 0.746205 1.64958C0.607413 1.94335 0.580147 2.27944 0.696634 2.58566C0.912257 3.13585 1.47982 3.37235 2.02508 3.15327ZM0.949431 1.97571C1.02131 1.58485 1.58144 1.50518 1.82185 1.7865C2.08208 2.09521 1.96559 2.53089 1.54922 2.60309C1.2295 2.65786 0.892427 2.2894 0.949431 1.97571Z" fill="white"/>
</svg>
