<svg width="4" height="4" viewBox="0 0 4 4" fill="none" xmlns="http://www.w3.org/2000/svg">
<path d="M2.35164 3.62111C3.12987 3.25764 3.39754 2.38879 3.18192 1.58964C3.04808 1.09173 2.72836 0.591331 2.24259 0.379719C1.82125 0.195491 1.41479 0.297559 1.07029 0.531578C0.889366 0.653566 0.728265 0.810407 0.586994 0.982187C0.428374 1.17388 0.301971 1.40043 0.212748 1.63445C0.0615631 2.03776 0.0690047 2.48089 0.242495 2.87424C0.606825 3.71073 1.54367 3.99952 2.35164 3.62111ZM0.748091 1.64689C0.817487 1.50001 0.909193 1.36807 1.01577 1.24608C1.20661 1.03198 1.62546 0.890074 1.90552 0.952313C2.23268 1.027 2.46317 1.32325 2.60196 1.61204C2.89937 2.22447 2.64657 2.89914 2.02696 3.15058C1.47923 3.37215 0.911667 3.13316 0.701 2.58297C0.579556 2.27675 0.609298 1.94315 0.748091 1.64689Z" fill="#EB99C2"/>
</svg>
