<svg width="4" height="4" viewBox="0 0 4 4" fill="none" xmlns="http://www.w3.org/2000/svg">
<path d="M1.91946 3.93087C2.86374 4.00805 3.79067 3.2089 3.78324 2.26038C3.77828 1.63799 3.3743 1.0878 2.8117 0.848801C2.47711 0.706897 2.12269 0.691959 1.79554 0.786562C1.51299 0.868718 1.25275 1.03054 1.03961 1.25958C0.226683 2.13591 0.645543 3.82631 1.91946 3.93087ZM1.40394 1.64546C1.60221 1.40647 1.82279 1.34672 2.11525 1.36913C2.64316 1.40896 3.1091 1.68778 3.15619 2.25788C3.2132 2.90766 2.44488 3.40059 1.85254 3.31595C1.40642 3.25122 1.19327 2.80311 1.17097 2.39233C1.1561 2.12595 1.23293 1.8521 1.40394 1.64546Z" fill="#EB99C2"/>
</svg>
