<svg width="12" height="8" viewBox="0 0 12 8" fill="none" xmlns="http://www.w3.org/2000/svg">
<path d="M11.0192 1.49259L9.23422 6.55482C9.00922 7.17437 8.61922 7.43126 8.12422 7.43126H8.04922C7.55422 7.43126 7.17922 7.15926 6.98422 6.58504L5.87422 3.01882L4.73422 6.58504C4.53922 7.15926 4.11922 7.43126 3.66922 7.43126H3.59422C3.09922 7.43126 2.72422 7.15926 2.48422 6.55482L0.774219 1.56815C0.729219 1.44726 0.699219 1.26593 0.699219 1.06948C0.699219 0.616148 1.07422 0.147705 1.64422 0.147705C2.13922 0.147705 2.48422 0.449926 2.58922 0.91837L3.65422 4.51482L4.76422 0.948595C4.91422 0.495261 5.25922 0.147705 5.78422 0.147705H5.90422C6.39922 0.147705 6.77422 0.495261 6.92422 0.948595L8.03422 4.54504L9.14422 0.948595C9.26422 0.525483 9.56422 0.177927 10.0892 0.177927C10.6142 0.177927 11.0042 0.601039 11.0042 1.09971C11.0942 1.22059 11.0492 1.41704 11.0192 1.49259Z" fill="#333333"/>
</svg>
