<svg width="6" height="8" viewBox="0 0 6 8" fill="none" xmlns="http://www.w3.org/2000/svg">
<path d="M5.94324 5.1643C5.94324 6.73585 4.75824 7.46119 3.24324 7.46119C2.37324 7.46119 1.45824 7.18919 0.573242 6.6603C0.348242 6.53941 0.198242 6.28252 0.198242 5.96519C0.198242 5.51185 0.543243 5.1643 0.993243 5.1643C1.14324 5.1643 1.29324 5.20963 1.36824 5.28519C2.05824 5.7083 2.70324 5.93497 3.27324 5.93497C3.84324 5.93497 4.11324 5.73852 4.11324 5.39096V5.34563C4.11324 4.92252 3.42324 4.77141 2.67324 4.54474C1.68324 4.27274 0.573242 3.77407 0.573242 2.42919V2.38385C0.573242 0.933187 1.71324 0.117188 3.12324 0.117188C3.84324 0.117188 4.60824 0.313631 5.29824 0.661186C5.59824 0.812297 5.74824 1.0843 5.74824 1.43185C5.74824 1.88519 5.40324 2.23274 4.95324 2.23274C4.80324 2.23274 4.72824 2.18741 4.57824 2.15719C4.00824 1.88519 3.46824 1.70385 3.06324 1.70385C2.56824 1.70385 2.34324 1.9003 2.34324 2.20252V2.24785C2.34324 2.62563 3.03324 2.82208 3.78324 3.09408C4.80324 3.36608 5.94324 3.81941 5.94324 5.1643Z" fill="#333333"/>
</svg>
