<svg width="10" height="10" viewBox="0 0 10 10" fill="none" xmlns="http://www.w3.org/2000/svg">
<path d="M3.84119 5.7082C3.80194 5.7082 3.78941 5.68106 3.80601 5.62686L4.86389 2.41286C4.93032 2.23014 4.99237 2.23014 5.04611 2.41286L6.19382 5.62686C6.21858 5.68107 6.19985 5.7082 6.13977 5.7082H3.84119ZM2.15979 8.34472C2.06241 8.64599 1.93605 8.89728 1.78266 9.09403C1.62942 9.29992 1.4182 9.42257 1.14917 9.46056C1.02688 9.47583 0.908818 9.48368 0.795134 9.48368C0.732782 9.48368 0.697606 9.50767 0.689453 9.55764C0.689453 9.61645 0.765845 9.64669 0.919085 9.64669C1.59213 9.63042 2.0458 9.62085 2.2777 9.61292C2.50763 9.62079 2.82227 9.63042 3.21797 9.64669C3.32758 9.64669 3.38797 9.61647 3.39385 9.55764C3.39385 9.50766 3.35445 9.48368 3.27821 9.48368H3.15984C3.05431 9.48368 2.95497 9.45217 2.8659 9.39101C2.75599 9.34543 2.70028 9.2619 2.70028 9.14113C2.70028 8.919 2.75599 8.65368 2.8659 8.34469L3.58861 6.23172C3.6111 6.17055 3.65262 6.13887 3.71301 6.13887H6.2992C6.35521 6.13887 6.39069 6.16281 6.40518 6.20774L7.52949 9.14113C7.56029 9.23793 7.56874 9.30951 7.55229 9.35523C7.52949 9.41086 7.49643 9.44634 7.45899 9.46052C7.39905 9.46822 7.36976 9.49553 7.36976 9.54581C7.36976 9.59691 7.49235 9.62511 7.73421 9.62511C8.68731 9.64056 9.31687 9.64673 9.62109 9.64673C9.77417 9.64673 9.8548 9.61647 9.86355 9.55764C9.86355 9.50766 9.824 9.48372 9.74519 9.48372C9.61671 9.49558 9.45517 9.47239 9.26298 9.41499C9.1425 9.39103 8.99771 9.29202 8.82787 9.11719C8.64353 8.94299 8.44485 8.60245 8.22744 8.09481C7.01391 5.02303 6.07787 2.6307 5.42355 0.918483C5.30126 0.617215 5.21234 0.472348 5.1521 0.488748C5.10666 0.47236 5.01713 0.624812 4.8891 0.945944L2.15979 8.34472Z" fill="#525252"/>
</svg>
