<svg width="11" height="10" viewBox="0 0 11 10" fill="none" xmlns="http://www.w3.org/2000/svg">
<path d="M3.88107 9.16713C3.19609 9.15849 2.6304 8.91632 2.18411 8.43991C1.72757 7.9739 1.49733 7.36442 1.48934 6.60818C1.48934 6.13208 1.59215 5.72675 1.79747 5.39301C2.00144 5.06809 2.25417 4.80642 2.56246 4.60746C2.74996 4.85938 2.98821 5.15293 3.28064 5.48683C3.57625 5.82971 3.80905 6.09394 3.97557 6.2765C4.51667 6.83836 5.23832 7.50915 6.14115 8.2892C5.94367 8.50218 5.65592 8.69673 5.27728 8.87061C4.91131 9.06736 4.44631 9.16713 3.88107 9.16713ZM3.46151 9.79443C3.91624 9.78574 4.31466 9.72662 4.66205 9.61375C5.01005 9.51033 5.30822 9.38879 5.55476 9.24991C5.8161 9.09966 6.02384 8.95211 6.17799 8.8096C6.32202 8.67449 6.42694 8.57484 6.4908 8.51383C7.11991 9.00412 7.59095 9.3139 7.90121 9.44633C8.20784 9.57355 8.56579 9.63314 8.97523 9.62558H10.1474C10.2706 9.61724 10.3366 9.59105 10.3446 9.54581C10.3446 9.49019 10.291 9.46257 10.1824 9.46257C9.95612 9.46257 9.71757 9.41296 9.46424 9.31171C9.19113 9.21429 8.95697 9.11069 8.75904 9.00412C8.59041 8.90669 8.37451 8.76594 8.11106 8.58496C7.84187 8.4024 7.50867 8.14874 7.10753 7.82304C7.38729 7.48156 7.65482 7.04911 7.91193 6.52462C8.15635 6.00895 8.28196 5.5048 8.29012 5.01246C8.29012 4.94625 8.28196 4.89107 8.26751 4.84346C8.23477 4.8064 8.17088 4.7823 8.07426 4.77395C7.40575 4.71639 6.93078 4.68676 6.64695 4.68676C6.52783 4.68676 6.46382 4.71446 6.45597 4.77029C6.46379 4.82363 6.50952 4.84945 6.59517 4.84945C6.69224 4.84945 6.79717 4.85734 6.9101 4.87361C7.0191 4.90298 7.10969 4.96046 7.18412 5.04197C7.34234 5.2324 7.41828 5.42539 7.41013 5.6237C7.39578 6.41983 7.19001 7.08068 6.79717 7.60471C6.0568 6.95346 5.30419 6.24088 4.53678 5.46919C3.91356 4.80186 3.44917 4.23797 3.14088 3.78158C2.81357 3.31888 2.65096 2.86419 2.65096 2.41978C2.65957 1.86438 2.82594 1.46334 3.15265 1.21504C3.45355 0.978881 3.79233 0.859549 4.17097 0.859549C4.43201 0.859549 4.66662 0.911412 4.87633 1.01672C5.06761 1.11005 5.23021 1.23285 5.36156 1.38404C5.51405 1.53459 5.61896 1.70141 5.67845 1.88397C5.71738 2.06652 5.73597 2.23725 5.73597 2.39806C5.72781 2.5568 5.75239 2.63262 5.80799 2.62427C5.85732 2.64036 5.89842 2.57285 5.93149 2.41978C5.95399 2.30092 5.97463 2.09472 5.98855 1.80449C6.00531 1.50086 6.01363 1.25066 6.01363 1.05249C6.01363 0.978873 6.0097 0.918982 6.00143 0.871845C5.97882 0.826148 5.92926 0.784339 5.85317 0.7506C5.52012 0.560316 5.04093 0.460364 4.41378 0.452793C3.60939 0.469064 2.98436 0.714666 2.53597 1.19123C2.07549 1.65362 1.84314 2.13808 1.84314 2.64603C1.82655 3.15429 2.0299 3.70228 2.45172 4.29173C1.94989 4.55958 1.51795 4.92671 1.15833 5.39745C0.767457 5.87355 0.569981 6.46128 0.561523 7.16013C0.561523 7.41631 0.617392 7.69361 0.730314 7.99788C0.843546 8.29551 1.01038 8.5815 1.232 8.85107C1.69293 9.45644 2.4373 9.77031 3.46151 9.79443Z" fill="#525252"/>
</svg>
