<svg width="10" height="11" viewBox="0 0 10 11" fill="none" xmlns="http://www.w3.org/2000/svg">
<path d="M6.57743 10.7905C7.0391 10.7905 7.49354 10.7632 7.94404 10.7115C8.40799 10.6524 8.78179 10.5756 9.06502 10.4781C9.1867 10.4218 9.2723 10.3701 9.31518 10.3264C9.35355 10.2816 9.39128 10.2 9.4319 10.0828C9.50345 9.81121 9.57259 9.47399 9.63435 9.06678C9.70319 8.66195 9.73655 8.41979 9.73655 8.34523C9.73655 8.2232 9.7032 8.15306 9.63435 8.1392C9.56293 8.1392 9.51795 8.20933 9.49848 8.34523C9.48171 8.48301 9.42978 8.66429 9.34388 8.89036C9.2628 9.12337 9.14383 9.32234 8.9844 9.48519C8.71069 9.7502 8.3725 9.92818 7.97272 10.0168C7.56766 10.1186 7.10341 10.1684 6.57984 10.1684C5.07734 10.1504 3.8771 9.64376 2.9797 8.64411C2.05604 7.67552 1.59195 6.52595 1.58229 5.19587C1.57295 4.49921 1.6611 3.85049 1.84664 3.25505C2.01105 2.65787 2.33957 2.12663 2.8322 1.65589C2.95645 1.52897 3.10864 1.40427 3.28483 1.28509C3.4583 1.1782 3.67026 1.07636 3.91801 0.974519C4.17059 0.87772 4.47285 0.798429 4.82235 0.741673C5.16068 0.689808 5.55578 0.662838 6.01037 0.662838C7.29863 0.689797 8.21761 0.945049 8.77258 1.43612C8.95798 1.5903 9.10096 1.78703 9.20559 2.02887C9.30342 2.27338 9.35354 2.5335 9.35354 2.81632C9.34392 3.00613 9.38189 3.1009 9.46767 3.1009C9.5415 3.11006 9.58211 3.01527 9.59132 2.81632C9.60071 2.47265 9.61292 2.00618 9.63221 1.41831C9.6677 0.972471 9.69154 0.716923 9.70105 0.655596C9.71506 0.576771 9.6555 0.529312 9.52487 0.510869C9.1032 0.472397 8.63186 0.404601 8.11281 0.307491C7.38436 0.19887 6.71524 0.144338 6.10833 0.144338C5.05814 0.153677 4.19639 0.289074 3.52017 0.556292C2.84185 0.83485 2.29668 1.18089 1.88709 1.59677C1.28711 2.21475 0.877213 2.86819 0.656494 3.5516C0.437276 4.24147 0.329936 4.82494 0.339448 5.30277C0.329942 5.95638 0.444225 6.63678 0.684728 7.34257C0.927795 8.05325 1.3703 8.71429 2.0133 9.32455C3.04385 10.2928 4.56552 10.7814 6.5774 10.7886L6.57743 10.7905Z" fill="#525252"/>
</svg>
