<svg width="49" height="14" viewBox="0 0 49 14" fill="none" xmlns="http://www.w3.org/2000/svg">
<path fill-rule="evenodd" clip-rule="evenodd" d="M1.46813 6.78231C1.68532 6.55724 1.89116 6.32368 2.0828 6.08021C2.39936 5.67962 2.67759 5.25779 2.91608 4.81615C3.14179 4.29948 3.15882 3.90171 3.05236 3.68514L3.04668 3.67382C3.02397 3.63135 2.99699 3.60163 2.97002 3.58747C2.94589 3.57473 2.91182 3.57332 2.87207 3.58322C2.67901 3.63277 2.43485 3.87341 2.19494 4.36601C1.89542 5.04971 1.67538 5.68528 1.54762 6.30952C1.51497 6.46665 1.488 6.62377 1.46813 6.78231ZM6.99305 7.98267L7.10378 8.46679L7.11797 8.52907C7.45867 8.31532 7.73974 8.10582 7.95125 7.8935C8.21387 7.63021 8.36718 7.36834 8.39132 7.09372C8.40551 6.92952 8.55173 6.80779 8.71781 6.82336C8.88248 6.83751 9.00457 6.98331 8.98895 7.14893C8.9492 7.57359 8.73769 7.95578 8.37712 8.31674C8.09463 8.59843 7.71703 8.87162 7.25851 9.14624C7.64889 10.9142 7.81923 12.3722 6.46923 13.029C6.4593 13.0347 6.44794 13.0389 6.438 13.0418C5.88722 13.2753 5.24841 13.2187 4.74447 12.9738V12.9752C4.48469 12.8492 4.25614 12.6695 4.08863 12.4515C3.91403 12.225 3.80614 11.9561 3.79478 11.6602C3.77917 11.237 3.96371 10.7698 4.44068 10.3084L4.46198 10.29C5.18453 9.71244 5.78927 9.34299 6.24494 9.06272C6.36703 8.9877 6.47917 8.91975 6.57712 8.85747L6.54731 8.73007C6.4962 8.7782 6.44226 8.82349 6.38406 8.86596C6.37412 8.87304 6.36419 8.8787 6.35425 8.88578C5.75661 9.2156 5.26403 9.27363 4.89352 9.15756L4.87791 9.15331C4.64368 9.07687 4.46056 8.93249 4.3328 8.74281C4.21072 8.56304 4.14116 8.34363 4.12696 8.10582L4.12554 8.08176L4.08295 8.0945C3.87854 8.15679 3.66135 8.19359 3.45693 8.19076C3.24542 8.72866 2.94731 9.06838 2.63217 9.24815V9.24674C2.41071 9.37413 2.18075 9.42368 1.96356 9.40952C1.7421 9.39537 1.53201 9.31468 1.35598 9.18021C1.09337 8.98062 0.903144 8.66496 0.857718 8.2771V8.27286C0.781062 7.55094 0.819391 6.8729 0.958508 6.19062C1.09479 5.51683 1.32901 4.84304 1.64274 4.12395L1.65125 4.10555C1.97917 3.43318 2.37523 3.08779 2.72302 2.99861H2.72444C2.90898 2.9519 3.08643 2.97172 3.24116 3.04957C3.38311 3.12176 3.50094 3.24067 3.58469 3.40062L3.59463 3.42044C3.76923 3.77715 3.77207 4.36318 3.46403 5.06103L3.45409 5.08227C3.19431 5.56637 2.89478 6.02217 2.55693 6.44966C2.22049 6.87432 1.84289 7.27774 1.42128 7.65852C1.42412 7.83829 1.43548 8.02089 1.45535 8.20633C1.48091 8.42573 1.58169 8.59984 1.71797 8.70318C1.80031 8.76546 1.89825 8.80368 2.00046 8.81076C2.10693 8.81783 2.22192 8.79236 2.33406 8.72724V8.72582C2.52854 8.614 2.71876 8.39459 2.87065 8.03788C2.76419 7.97276 2.67192 7.88359 2.60094 7.76752C2.56403 7.70806 2.53422 7.64153 2.5115 7.56793C2.46892 7.4292 2.44904 7.28906 2.46892 7.15317C2.49305 6.99322 2.56545 6.84742 2.71166 6.72569C2.81529 6.63934 2.93595 6.5898 3.05661 6.58272C3.18579 6.57564 3.3093 6.61528 3.41292 6.70728C3.49668 6.78089 3.56482 6.88706 3.60315 7.02437C3.64147 7.16309 3.65283 7.34852 3.62018 7.58067C3.71529 7.56934 3.81324 7.54811 3.90835 7.5198C4.02901 7.483 4.144 7.43487 4.24195 7.38108C4.34416 7.10505 4.5145 6.83185 4.75583 6.58696C4.87223 6.46948 5.06245 6.46806 5.18027 6.58414C5.2981 6.70021 5.29952 6.88989 5.18311 7.00738C4.85236 7.34144 4.70472 7.74062 4.7246 8.06761C4.73169 8.19783 4.76718 8.31391 4.82822 8.40309C4.88217 8.48377 4.96166 8.54605 5.06387 8.57861L5.07523 8.58286C5.29668 8.64938 5.6175 8.59984 6.04195 8.36911C6.24068 8.2219 6.36135 8.00674 6.42807 7.76185L6.43516 7.7392C6.52176 7.40231 6.51324 7.00879 6.46214 6.63651C6.44084 6.47231 6.55583 6.32226 6.71908 6.29961C6.88374 6.27838 7.03422 6.39304 7.05693 6.55583C7.11655 6.99464 7.12507 7.46742 7.01434 7.89067L7.00867 7.91897L6.99305 7.98267ZM6.20662 12.4897C7.11513 12.0466 7.01718 10.9015 6.71624 9.47889L6.55867 9.57514C6.1186 9.84409 5.538 10.1994 4.8481 10.75C4.5145 11.0756 4.38532 11.3799 4.39384 11.6404C4.39952 11.8046 4.4634 11.9575 4.56419 12.0891C4.67207 12.2307 4.8268 12.3496 5.00567 12.4359V12.4373C5.36482 12.6129 5.8134 12.6539 6.1981 12.494L6.20662 12.4897Z" fill="#000200"/>
<path fill-rule="evenodd" clip-rule="evenodd" d="M17.8696 2.79752C17.881 3.21086 17.5545 3.55483 17.14 3.56615C16.7254 3.57748 16.3805 3.25191 16.3691 2.83857L16.3677 2.81451C16.3635 2.69985 16.3081 2.62766 16.2371 2.58519C16.1037 2.50451 15.9276 2.4762 15.7843 2.4762L15.7445 2.47761C15.7076 2.47903 15.6721 2.4762 15.6352 2.47195V2.47478C15.2235 2.42524 14.7054 2.52857 14.2142 2.69985C13.6081 2.91218 13.0772 3.21086 12.833 3.45433C12.8174 3.47131 12.8004 3.48547 12.7819 3.50104C12.7407 3.53501 12.7095 3.57464 12.6896 3.61428C12.674 3.64684 12.6669 3.68223 12.6698 3.71478C12.674 3.75017 12.6953 3.79405 12.7365 3.8436C12.806 3.92711 12.9196 4.01204 13.0843 4.09131L16.2016 5.25063C16.2456 5.26762 16.2882 5.28743 16.328 5.3115C16.7822 5.57903 17.1073 5.89894 17.3004 6.2514C17.4537 6.53026 17.5261 6.82611 17.5176 7.12903C17.509 7.42487 17.4224 7.71506 17.2606 7.9925C17.0235 8.39593 16.619 8.77104 16.054 9.08245C15.4237 9.4519 14.8232 9.66282 14.2029 9.71378C13.584 9.76332 12.9636 9.64866 12.2922 9.3698C11.8379 9.20277 11.4575 8.93524 11.2048 8.62382C10.8882 8.23314 10.7505 7.77026 10.8641 7.30314C10.962 6.90113 11.3666 6.65483 11.7698 6.75108C12.1729 6.84875 12.4199 7.25218 12.3234 7.65419C12.3191 7.66976 12.3447 7.64852 12.3688 7.67967C12.4611 7.79291 12.6187 7.89624 12.8174 7.96843L12.8557 7.98259C13.3029 8.17086 13.7018 8.24871 14.0865 8.21757C14.4712 8.18643 14.8644 8.04204 15.2988 7.78725L15.3187 7.77593C15.648 7.59474 15.8652 7.41072 15.9674 7.23519C16 7.17857 16.0185 7.12903 16.0185 7.08798C16.0199 7.05542 16.0086 7.01579 15.9844 6.97332C15.9234 6.86149 15.7999 6.74401 15.6139 6.62935L12.559 5.49268C12.5264 5.48277 12.4937 5.47003 12.4611 5.45446C12.0778 5.27327 11.7911 5.04962 11.5866 4.80615C11.3453 4.51739 11.2161 4.20172 11.1792 3.88606C11.1423 3.56615 11.2019 3.25474 11.334 2.97588C11.4447 2.74232 11.6079 2.53282 11.8067 2.36437C12.2013 1.98784 12.9352 1.56319 13.7217 1.28716C14.3945 1.05218 15.1327 0.912044 15.7758 0.981405C16.1448 0.97999 16.6147 1.06492 17.0079 1.30131C17.475 1.58158 17.8384 2.04163 17.8682 2.75647V2.76496L17.8696 2.79752Z" fill="#000200"/>
<path fill-rule="evenodd" clip-rule="evenodd" d="M40.2815 5.63667C39.9905 5.96791 39.4851 6.00188 39.1515 5.7117C38.9343 5.52202 38.8435 5.23891 38.8903 4.97421C38.7285 4.84964 38.5737 4.79585 38.4431 4.80576C38.3736 4.81142 38.3054 4.83973 38.2458 4.88928C38.1635 4.95722 38.0925 5.06339 38.04 5.20352C37.8384 5.7485 37.9449 6.64028 38.6263 7.78686L38.6419 7.80951C38.9329 8.27521 39.2253 8.50594 39.5589 8.46206C40.0728 8.39412 40.7741 7.92275 41.7337 6.99275C42.4293 6.27649 42.6266 5.64234 42.5116 5.21202C42.4789 5.08745 42.4151 4.9827 42.3313 4.90626L42.3327 4.90485L42.3313 4.90343C42.2447 4.82558 42.1297 4.77037 41.9949 4.74489C41.542 4.66563 40.9174 4.90909 40.2815 5.63667ZM21.9734 3.97485C22.3212 4.19992 22.4192 4.66421 22.1935 5.0096C21.9677 5.3564 21.5021 5.45407 21.1558 5.229C21.116 5.20352 21.0663 5.17663 21.011 5.14832L20.9826 5.13416C20.7838 5.04499 20.5993 5.04074 20.4318 5.11434C20.1791 5.22617 19.9193 5.48946 19.6595 5.88864C19.5559 6.04718 19.4537 6.22695 19.3529 6.42795C19.1769 6.85686 19.1428 7.21215 19.2095 7.45421C19.228 7.51932 19.2507 7.56603 19.2763 7.59151C19.3288 7.59151 19.4012 7.56462 19.492 7.50517L19.898 6.81864C20.3097 5.94951 20.6731 5.60978 21.2878 5.78247C21.7293 5.90704 21.9564 6.30763 22.2701 6.98992L23.393 5.37197C23.6286 5.03225 24.0957 4.9459 24.4378 5.18087C24.5726 5.27288 24.6677 5.4017 24.7174 5.54467L24.7188 5.54325L25.1759 6.81864L26.0163 5.23467C26.2094 4.86804 26.6636 4.72791 27.0313 4.92042C27.1946 5.00535 27.3124 5.14266 27.3777 5.3012L28.2748 7.16686C28.4239 6.80165 28.5304 6.32887 28.5758 5.7485C28.5701 5.67914 28.5673 5.6112 28.5644 5.54467C28.5147 5.51777 28.4693 5.48663 28.4253 5.44841C28.1059 5.16814 27.9824 4.78028 28.0165 4.43489C28.0335 4.26078 28.0917 4.09375 28.1854 3.94937C28.2905 3.78658 28.4381 3.65636 28.6226 3.57284C28.9165 3.43978 29.2799 3.43553 29.6632 3.65069L29.6618 3.65211C29.8406 3.75261 29.9755 3.92248 30.0252 4.13056L30.989 4.12348C31.0245 4.12348 31.06 4.12631 31.0955 4.13056V4.12914C32.5548 4.33439 32.5534 5.09028 32.552 6.11795C32.552 6.20854 32.552 6.3048 32.5548 6.41097C32.5548 6.43361 32.5548 6.45626 32.5534 6.47891H32.5548C32.5009 7.29567 32.5094 7.69485 32.5818 7.7359C32.6343 7.76563 32.9523 7.5717 33.4974 7.19234C33.6365 7.09467 33.7174 6.96585 33.7614 6.73654C33.7813 6.63462 33.7955 6.51996 33.8054 6.38832C33.7912 6.1406 33.7884 5.8759 33.7969 5.59421C33.7983 5.54325 33.8054 5.4937 33.8168 5.44558C33.8125 5.26864 33.8054 5.07754 33.7969 4.86804C33.7813 4.45471 34.1035 4.10649 34.5181 4.09092C34.9326 4.07535 35.2818 4.39667 35.2974 4.81001C35.3244 5.46964 35.3329 5.98772 35.3088 6.40955C35.3428 6.87384 35.428 7.22065 35.5515 7.44996C35.5998 7.54055 35.6381 7.59152 35.6651 7.60284L35.7233 7.58161C35.922 7.50375 36.1647 7.28293 36.433 6.91489C36.4515 6.888 36.4728 6.86394 36.4941 6.84129C36.2755 5.9764 36.3209 5.23042 36.5324 4.65572C36.6857 4.24097 36.9256 3.90407 37.2209 3.65919C37.5389 3.3959 37.9193 3.24302 38.3296 3.21188C38.8647 3.17224 39.4368 3.3506 39.9564 3.78375C40.7627 3.21613 41.586 3.05051 42.2802 3.17649H42.283C42.716 3.25576 43.1007 3.44686 43.4088 3.72713L43.4102 3.72571C43.7196 4.0074 43.9468 4.37686 44.0603 4.80718C44.3045 5.72869 44.022 6.93754 42.8736 8.11668L42.858 8.13225C41.6357 9.31846 40.6378 9.93421 39.7647 10.0489C38.7086 10.1876 37.925 9.69357 37.2791 8.6574C37.2692 8.64042 37.2592 8.62343 37.2493 8.60645C37.2067 8.53567 37.167 8.4649 37.1286 8.39553C36.8433 8.67156 36.5537 8.8669 36.2712 8.97731C35.8595 9.13868 35.4578 9.1401 35.083 8.98156C34.8091 8.8669 34.572 8.67156 34.3775 8.40119L34.3548 8.41677C33.3058 9.14718 32.4853 9.40339 31.8394 9.03677C31.2147 8.68289 30.9592 7.84206 31.0529 6.3954C31.0515 6.30339 31.0515 6.20996 31.0515 6.11937C31.0515 5.85891 31.0515 5.66357 30.9181 5.6211L30.0706 5.62676L30.072 5.64517C30.0805 5.69896 30.0819 5.75416 30.0791 5.81078C30.0209 6.63037 29.8576 7.31266 29.6206 7.84489C29.3296 8.50028 28.9165 8.95608 28.4353 9.19814V9.19672L28.4211 9.2038C28.0477 9.38215 27.5991 9.22361 27.4217 8.85133L26.6509 7.24754L25.7267 8.98864C25.6444 9.16558 25.4939 9.31138 25.2952 9.38215C24.9034 9.52087 24.4733 9.31845 24.3327 8.92777L23.7933 7.42448L22.7755 8.88955C22.7045 8.99147 22.608 9.07782 22.4873 9.13585C22.1154 9.31704 21.6668 9.16417 21.4837 8.7933L21.0237 7.85905L20.7072 8.39412C20.6603 8.4748 20.5979 8.54841 20.5198 8.60928C20.0783 8.95325 19.6312 9.10046 19.2223 9.08631C18.8532 9.07498 18.5267 8.93909 18.2641 8.70128C18.0299 8.48896 17.8553 8.20019 17.7602 7.85197C17.6097 7.30982 17.6494 6.60206 17.9688 5.83768L17.9887 5.7938C18.1179 5.53193 18.2556 5.29129 18.3976 5.0733C18.8177 4.42923 19.2933 3.98051 19.8171 3.74836C20.402 3.48932 21.0081 3.49215 21.627 3.78375C21.6441 3.79083 21.6611 3.79932 21.6782 3.80782C21.7704 3.84887 21.8684 3.90549 21.9734 3.97485Z" fill="#000200"/>
<path fill-rule="evenodd" clip-rule="evenodd" d="M34.5792 2.01294C34.8404 2.01294 35.0774 2.11911 35.2492 2.28897C35.421 2.46025 35.526 2.69664 35.526 2.9571C35.526 3.21755 35.4196 3.45395 35.2492 3.62522C35.0774 3.7965 34.8404 3.90125 34.5792 3.90125C34.318 3.90125 34.0809 3.79509 33.9091 3.62522C33.7374 3.45395 33.6323 3.21755 33.6323 2.9571C33.6323 2.69664 33.7388 2.46025 33.9091 2.28897C34.0795 2.11911 34.3166 2.01294 34.5792 2.01294Z" fill="#000200"/>
<path fill-rule="evenodd" clip-rule="evenodd" d="M46.6518 1.91992C47.0919 1.91992 47.4894 2.09827 47.7775 2.38563C48.0657 2.67298 48.2446 3.07074 48.2446 3.50814C48.2446 3.94695 48.0657 4.3433 47.7775 4.63065C47.4894 4.918 47.0919 5.09636 46.6518 5.09636C46.2132 5.09636 45.8143 4.918 45.5261 4.63065C45.2379 4.3433 45.0591 3.94695 45.0591 3.50814C45.0591 3.07074 45.2379 2.67298 45.5261 2.38563C45.8143 2.09827 46.2132 1.91992 46.6518 1.91992ZM47.4936 2.66873C47.2779 2.45357 46.9797 2.32051 46.6518 2.32051C46.3225 2.32051 46.0258 2.45357 45.81 2.66873C45.5943 2.88389 45.4608 3.18115 45.4608 3.50814C45.4608 3.83512 45.5943 4.13239 45.81 4.34755C46.0258 4.56271 46.3239 4.69576 46.6518 4.69576C46.9797 4.69576 47.2779 4.56271 47.4936 4.34755C47.7094 4.13239 47.8428 3.83512 47.8428 3.50814C47.8428 3.17973 47.7094 2.88248 47.4936 2.66873Z" fill="#000200"/>
<path fill-rule="evenodd" clip-rule="evenodd" d="M45.9604 4.24697V2.6177V2.54126H46.0371H46.761C46.8363 2.54126 46.9044 2.5455 46.9626 2.55258C47.0237 2.56108 47.0762 2.57382 47.1202 2.5908C47.167 2.60779 47.2082 2.63327 47.2451 2.66441C47.2806 2.69555 47.3132 2.73236 47.3402 2.77624C47.3672 2.82012 47.3871 2.86541 47.3998 2.91213C47.4126 2.96025 47.4197 3.0098 47.4197 3.06076C47.4197 3.12729 47.4084 3.18957 47.3871 3.24761C47.3643 3.30564 47.3317 3.35802 47.2863 3.40473C47.2423 3.45144 47.1855 3.49108 47.1173 3.51939L47.0733 3.53637C47.1046 3.5661 47.1344 3.59866 47.1642 3.63263C47.1954 3.67085 47.2267 3.71332 47.2565 3.75861L47.5404 4.20167L47.6156 4.31916H47.4765H47.2039H47.1614L47.1386 4.28377L46.9229 3.94405C46.8931 3.89733 46.8647 3.85487 46.8377 3.81665C46.8121 3.78126 46.7894 3.75012 46.771 3.72605C46.7525 3.70199 46.7355 3.68217 46.7199 3.6666C46.7043 3.65245 46.6915 3.64112 46.6815 3.63405C46.6688 3.62555 46.656 3.61848 46.6432 3.61281C46.6319 3.60715 46.6191 3.60291 46.6077 3.60007C46.5992 3.59866 46.5864 3.59724 46.5708 3.59583H46.5694C46.5524 3.59441 46.5296 3.59441 46.5027 3.59441H46.3281V4.24131V4.31774H46.2514H46.0356H45.959L45.9604 4.24697ZM46.3295 3.26034H46.7184C46.8079 3.26034 46.8774 3.25185 46.9243 3.23487C46.9442 3.22779 46.9626 3.21788 46.9768 3.20656C46.991 3.19523 47.0038 3.18249 47.0123 3.16834C47.0222 3.15277 47.0308 3.13578 47.0364 3.11738C47.0421 3.10039 47.0435 3.08199 47.0435 3.06359C47.0435 3.03528 47.0378 3.01121 47.0293 2.98857C47.0194 2.96733 47.0052 2.94752 46.9853 2.93053C46.9669 2.91354 46.9399 2.9008 46.9072 2.89089C46.8703 2.88099 46.8249 2.87533 46.771 2.87533H46.3309L46.3295 3.26034Z" fill="#000200"/>
</svg>
