<svg width="75" height="24" viewBox="0 0 75 24" fill="none" xmlns="http://www.w3.org/2000/svg">
<path fill-rule="evenodd" clip-rule="evenodd" d="M66.392 16.9213L66.5538 10.6533C66.5666 10.2952 66.6333 9.92575 66.7511 9.56904C66.1791 9.4742 65.6382 9.1826 65.2194 8.68009C64.1761 7.42593 64.6317 5.8179 65.7915 4.84118L65.6538 4.68264L65.5814 4.54109C63.78 1.0136 67.769 -0.694935 69.647 1.62794L69.7379 1.55292L69.7904 1.51612C70.9857 0.70502 72.6721 0.426161 73.6445 1.7426C74.4948 2.89484 74.0789 4.3316 73.0923 5.18799C73.115 5.20639 73.1392 5.22337 73.1619 5.24178L73.2584 5.31538L73.3393 5.40598C74.4082 6.6021 74.3004 8.39274 73.0015 9.36945C72.6267 9.65114 72.2278 9.81392 71.8246 9.87337C71.9865 10.7284 71.9524 11.6654 71.8616 12.4963V19.7283L71.8431 19.8415C71.4172 22.4022 69.0366 23.0066 67.1188 21.5798L66.9428 21.4481L66.8548 21.325C66.6475 21.5345 66.3977 21.7171 66.101 21.8657C63.8354 23.076 62.1276 21.9252 61.4491 19.5839L61.4349 19.5343L61.0729 17.823C61.0715 17.8258 61.0687 17.83 61.0672 17.8329L61.0388 17.8867L61.0062 17.9376C59.9117 19.6532 58.045 20.0538 56.6482 19.1267C56.0349 21.9082 52.371 22.7561 51.0835 20.0581C50.2758 20.9909 49.1273 21.768 47.5644 22.3243L47.4693 22.3583L47.3699 22.3781C44.9439 22.8651 42.6229 22.5706 41.1253 20.5662C39.1223 19.9307 37.1775 19.1436 35.2795 18.2505L35.2526 18.7954L35.2228 18.92C34.628 21.4326 31.3133 21.7624 30.0045 19.925C29.9278 20.0269 29.8483 20.1289 29.7646 20.2294L29.7305 20.2704L29.6936 20.3086C27.11 22.9953 23.9671 22.6485 21.4388 20.1005L21.3778 20.0383L21.3239 19.9689C21.2032 19.8132 21.0882 19.6547 20.9775 19.4961C20.0988 20.4827 18.6579 20.6936 17.3235 20.3157L14.3056 19.4296C14.2942 19.8358 14.2616 20.2435 14.1934 20.6696L14.1792 20.7573L14.1551 20.8423C13.7846 22.112 12.7284 22.8778 11.4466 23.0505L11.4239 23.0533C9.91629 23.2303 8.6032 22.1785 8.2114 20.7602L8.17307 20.62L8.01692 18.1018C6.97212 16.1385 6.99484 14.0095 8.84026 12.8375L8.75509 9.95123C7.83806 10.659 6.89405 11.3356 5.91597 11.974L6.00398 12.0957L4.5461 13.0909C2.93064 14.413 1.68711 14.3436 0.598307 12.8828C-0.254848 11.3823 -0.146962 10.6632 1.11219 9.85073C1.83616 9.35388 2.39689 8.85703 2.7972 8.35876L2.86108 8.34886C4.51061 6.53415 8.39026 4.04283 12.9073 1.3321C14.5071 0.380865 17.2284 1.451 15.0679 4.20844C14.5866 4.71096 14.0969 5.2078 13.5986 5.69758C13.9564 6.17602 14.1395 6.78611 14.1508 7.42027L14.1523 7.46274L14.0571 9.77429C15.3958 8.96744 16.7983 8.27666 18.2377 7.64534L18.2605 7.63543L18.2832 7.62694C18.6281 7.48963 18.983 7.39479 19.3407 7.34949C20.9931 4.8058 24.7975 6.13639 24.6769 9.62141L24.6754 9.66246L24.6712 9.7021C24.5548 10.9605 24.4071 14.1242 24.8756 15.2849C25.036 15.5496 25.3682 16.0734 25.6393 16.3862C25.8764 16.0578 26.1504 15.5227 26.2909 15.2326C26.7523 13.4943 27.0518 11.756 27.3627 9.98803C27.4237 8.65461 27.8056 7.24474 28.8205 6.31474C29.695 5.51356 30.9485 5.22054 32.0543 5.7089C32.7556 6.0189 33.2467 6.56246 33.5164 7.21502C33.9068 7.18529 34.3043 7.24474 34.6762 7.4047C36.3272 6.42516 38.1101 6.13214 40.1245 6.24963L40.2153 6.25529L40.3048 6.27228C41.5114 6.50159 42.5136 6.94182 43.1538 7.59721C43.3043 7.44292 43.4619 7.29146 43.6251 7.14141C45.8638 4.34292 50.3879 6.60917 51.3731 9.60159C51.4299 9.74173 51.4852 9.88328 51.5392 10.0234C51.6343 9.78844 51.7379 9.55488 51.8486 9.32274L52.1056 8.78625L52.2475 8.73954C52.2702 8.53146 52.3029 8.33753 52.4264 8.07C52.7841 7.30986 53.457 6.7394 54.2846 6.5568C56.0548 6.16612 57.3295 7.54625 57.7327 9.12315L58.3885 10.8487L59.3141 8.93205L59.3581 8.86269C60.0196 7.82369 61.0601 6.97579 62.3675 7.11735C64.7453 7.37639 65.4295 10.3178 65.4537 12.2883C65.6013 13.7746 65.739 15.2679 66.0343 16.733C66.1606 16.7882 66.2799 16.8505 66.392 16.9213ZM8.73947 9.51808L8.71392 8.6447C8.60604 7.54767 8.88001 6.41949 9.67212 5.61689C10.3961 4.88223 11.4863 4.53826 12.4814 4.8879C12.7426 4.97991 12.9712 5.1073 13.1713 5.26584C13.5575 4.92187 13.9109 4.58497 14.2019 4.26365C13.1415 4.1957 12.5467 3.36196 12.666 2.4178C10.5239 3.4752 8.47828 4.76474 6.49657 6.25246C5.32686 7.06639 4.27638 8.03744 3.27417 9.0736C3.31108 9.78561 3.47859 10.5387 3.80225 11.2224L3.83206 11.2733C4.39137 10.9279 5.02307 10.8614 5.45178 11.3469L5.47307 11.3767L7.64641 9.94415C7.91045 9.73607 8.24689 9.62424 8.60604 9.6568L8.73947 9.51808ZM14.2232 1.75392C14.7101 1.75392 15.1034 2.14744 15.1034 2.63297C15.1034 3.11849 14.7087 3.51059 14.2232 3.51059C13.7363 3.51059 13.3417 3.11707 13.3417 2.63297C13.3417 2.14744 13.7363 1.75392 14.2232 1.75392ZM3.61203 11.3526L3.64468 11.4021C3.47007 11.5338 3.30682 11.6909 3.16345 11.8636C2.45083 12.6322 1.90998 12.5558 1.47559 12.2543C1.07812 11.9981 0.87938 11.5564 0.967392 11.1205C1.10367 10.7213 1.30241 10.5939 1.63174 10.5344C2.23506 10.4424 2.90083 10.7496 3.61203 11.3526ZM46.6701 16.968C47.0377 16.6622 47.2918 16.2277 47.4253 15.7634C47.6836 14.8617 47.5105 13.8821 47.1598 13.0173C46.8035 12.8063 46.5068 12.5162 46.2712 12.1623C45.6494 12.9436 45.3456 14.488 45.2136 15.6912C45.8709 15.9191 46.3649 16.3607 46.6701 16.968Z" fill="#000200" stroke="#000200" stroke-width="0.0306625"/>
</svg>
