<svg width="25" height="16" viewBox="0 0 25 16" fill="none" xmlns="http://www.w3.org/2000/svg">
<path fill-rule="evenodd" clip-rule="evenodd" d="M20.7608 4.14326C20.4158 6.10376 20.149 7.7401 19.6138 9.72467C18.1758 12.7808 17.2176 12.601 15.6206 9.93134C15.0542 8.68285 15.074 5.69609 15.2699 3.57846C15.3452 1.39006 12.9688 0.471383 12.2179 2.76312C11.7721 2.68102 11.2952 2.73764 10.7997 2.9344C8.60653 3.89554 6.78807 4.87508 5.13855 6.05705C4.75952 6.21842 4.63318 6.2623 4.55794 5.93531L4.74107 1.45376C4.73539 1.14376 4.67009 0.891794 4.56362 0.695036C4.27261 0.968233 3.97877 1.2386 3.68208 1.50613C3.38539 1.50047 3.15542 1.22444 3.21078 0.941338C3.48618 0.704946 3.77151 0.465721 4.054 0.226498C3.20936 -0.114644 1.91189 0.736086 2.11488 2.5522L2.26678 7.70472C0.418513 8.36294 0.334759 9.92143 1.39517 11.7036L1.56268 14.3959C1.80826 15.2834 2.57056 15.7491 3.25621 15.6685C3.90353 15.5807 4.57214 15.248 4.80211 14.4582C4.94406 13.5607 4.91 12.8516 4.86457 12.0164C4.90574 11.7375 4.92703 11.6271 5.30321 11.6823L9.71236 12.9761C10.6947 13.255 11.7892 13.1078 12.1994 12.1212C12.5018 10.717 11.4471 10.5457 10.2759 10.4098C8.70164 10.2527 7.12877 9.90444 5.55447 9.46988C5.26914 9.36796 5.07041 9.25189 5.25779 9.12449L8.49296 7.54901C9.68539 6.94316 10.8253 6.42225 12.0007 5.75554L12.0163 5.97919C12.2661 8.68992 12.8396 11.0567 14.4324 13.1219C16.4709 15.1759 18.7024 15.3953 20.6728 13.3456C22.1278 11.579 22.4501 9.55056 22.9355 7.08896C23.0676 6.27787 23.2095 5.47526 23.4821 4.7307C23.7021 4.19421 24.2387 3.226 24.3423 2.67252C24.5524 0.233575 20.9027 -0.120306 20.7608 4.14326Z" fill="#FE9DE2" stroke="#000200" stroke-width="0.0306625"/>
</svg>
