<svg width="9" height="8" viewBox="0 0 9 8" fill="none" xmlns="http://www.w3.org/2000/svg">
<path d="M5.76896 7.85257C6.12828 7.85257 6.48208 7.83264 6.83189 7.79503C7.19297 7.75193 7.48359 7.69618 7.70412 7.62532C7.79841 7.58453 7.86499 7.54669 7.89857 7.51551C7.92805 7.48227 7.95787 7.4232 7.98946 7.33766C8.04465 7.14012 8.09855 6.89488 8.14657 6.59873C8.20047 6.30442 8.22619 6.1284 8.22619 6.07417C8.22619 5.98532 8.20047 5.93431 8.14657 5.9241C8.09115 5.9241 8.05592 5.97511 8.04113 6.07417C8.02797 6.17438 7.98735 6.30601 7.92065 6.47053C7.85771 6.64011 7.76506 6.78458 7.64094 6.90313C7.42805 7.09575 7.16514 7.22577 6.8542 7.28964C6.53938 7.36393 6.17807 7.39992 5.77096 7.39992C4.60235 7.38685 3.66895 7.01859 2.97098 6.29134C2.25246 5.58702 1.89138 4.75143 1.88398 3.78386C1.87658 3.27732 1.94504 2.80506 2.08947 2.37236C2.21735 1.93783 2.47298 1.55109 2.85614 1.20896C2.95266 1.11713 3.0709 1.02645 3.20806 0.939319C3.34309 0.861928 3.50796 0.787973 3.70053 0.714024C3.89675 0.643049 4.13219 0.585368 4.40414 0.544551C4.66705 0.50649 4.97447 0.486878 5.32815 0.486878C6.33002 0.506485 7.0449 0.692347 7.47643 1.04961C7.62075 1.16151 7.73183 1.30458 7.81332 1.48046C7.8893 1.65806 7.92805 1.84736 7.92805 2.05328C7.92065 2.19121 7.95036 2.26035 8.01694 2.26035C8.07436 2.26701 8.10594 2.19774 8.11322 2.05328C8.12074 1.80299 8.12978 1.46373 8.14481 1.03641C8.17253 0.712179 8.19119 0.526086 8.19847 0.481716C8.20951 0.424162 8.16325 0.389888 8.06132 0.37659C7.73371 0.348525 7.36699 0.29943 6.9634 0.228575C6.3966 0.149462 5.87641 0.109891 5.40413 0.109891C4.58744 0.116683 3.9173 0.215385 3.39136 0.409494C2.86342 0.611856 2.43963 0.863742 2.12106 1.16597C1.65441 1.61553 1.33572 2.09089 1.16346 2.5878C0.993198 3.08964 0.909944 3.51384 0.917459 3.86125C0.909944 4.3366 0.998834 4.83237 1.18577 5.34534C1.37459 5.86162 1.71911 6.34236 2.21911 6.78664C3.02088 7.4905 4.20428 7.84593 5.76896 7.85109V7.85257Z" fill="#525252"/>
</svg>
