<svg width="9" height="7" viewBox="0 0 9 7" fill="none" xmlns="http://www.w3.org/2000/svg">
<path d="M3.23958 6.39461C2.70683 6.38833 2.26684 6.2122 1.91973 5.86572C1.56464 5.5268 1.38557 5.08355 1.37935 4.53356C1.37935 4.1873 1.45931 3.89252 1.61901 3.64979C1.77765 3.41349 1.97421 3.22318 2.214 3.07849C2.35984 3.2617 2.54513 3.47519 2.77259 3.71803C3.0025 3.9674 3.18357 4.15956 3.31309 4.29233C3.73394 4.70096 4.29522 5.18881 4.99742 5.75611C4.84383 5.91101 4.62002 6.0525 4.32552 6.17896C4.04088 6.32205 3.67922 6.39461 3.23958 6.39461ZM2.91326 6.85083C3.26694 6.84451 3.57682 6.80151 3.84702 6.71942C4.11768 6.64421 4.34959 6.55582 4.54135 6.45481C4.74461 6.34554 4.90618 6.23823 5.02608 6.13458C5.1381 6.03632 5.21971 5.96385 5.26938 5.91948C5.75868 6.27606 6.12505 6.50135 6.36636 6.59766C6.60485 6.69019 6.88326 6.73353 7.20171 6.72803H8.1134C8.20922 6.72196 8.26053 6.70291 8.26675 6.67002C8.26675 6.62956 8.2251 6.60947 8.14064 6.60947C7.96462 6.60947 7.77909 6.57339 7.58205 6.49976C7.36963 6.42891 7.1875 6.35356 7.03356 6.27606C6.9024 6.2052 6.73448 6.10283 6.52958 5.97121C6.32021 5.83845 6.06105 5.65396 5.74906 5.41709C5.96664 5.16874 6.17472 4.85423 6.37469 4.47278C6.5648 4.09775 6.6625 3.7311 6.66884 3.37303C6.66884 3.32488 6.6625 3.28475 6.65126 3.25012C6.62579 3.22317 6.57611 3.20564 6.50095 3.19957C5.981 3.15771 5.61158 3.13616 5.39083 3.13616C5.29818 3.13616 5.24839 3.15631 5.24228 3.19691C5.24836 3.2357 5.28393 3.25448 5.35055 3.25448C5.42605 3.25448 5.50766 3.26022 5.59549 3.27205C5.68028 3.29341 5.75073 3.33521 5.80862 3.39449C5.93168 3.53299 5.99075 3.67334 5.98441 3.81757C5.97325 4.39657 5.8132 4.87719 5.50766 5.2583C4.93182 4.78467 4.34645 4.26643 3.74958 3.7052C3.26486 3.21987 2.90366 2.80977 2.66388 2.47785C2.40931 2.14134 2.28284 1.81065 2.28284 1.48745C2.28953 1.08352 2.41893 0.79185 2.67304 0.61127C2.90707 0.439519 3.17057 0.352732 3.46507 0.352732C3.66809 0.352732 3.85057 0.390451 4.01367 0.467035C4.16245 0.534914 4.28891 0.624226 4.39107 0.734177C4.50968 0.843671 4.59128 0.964992 4.63755 1.09776C4.66782 1.23053 4.68228 1.3547 4.68228 1.47165C4.67594 1.5871 4.69506 1.64224 4.7383 1.63617C4.77667 1.64787 4.80864 1.59877 4.83435 1.48745C4.85185 1.401 4.86791 1.25104 4.87873 1.03996C4.89177 0.819139 4.89825 0.637177 4.89825 0.493056C4.89825 0.439513 4.89518 0.395956 4.88875 0.361675C4.87117 0.328441 4.83262 0.298034 4.77344 0.273497C4.5144 0.135108 4.1417 0.0624161 3.65392 0.05691C3.02828 0.0687428 2.54214 0.247364 2.19339 0.593957C1.83525 0.93024 1.65453 1.28257 1.65453 1.65199C1.64162 2.02163 1.79979 2.42017 2.12787 2.84886C1.73755 3.04366 1.4016 3.31067 1.12189 3.65303C0.817886 3.99928 0.664293 4.42672 0.657715 4.93497C0.657715 5.12129 0.701168 5.32296 0.788996 5.54424C0.877065 5.76071 1.00682 5.96869 1.1792 6.16475C1.53769 6.60502 2.11665 6.83329 2.91326 6.85083Z" fill="#525252"/>
</svg>
