<svg width="9" height="8" viewBox="0 0 9 8" fill="none" xmlns="http://www.w3.org/2000/svg">
<path d="M1.7566 4.12014C1.76268 3.17012 2.02762 2.45742 2.54968 1.98527C3.05907 1.51324 3.71324 1.27685 4.51314 1.27685C5.28391 1.27685 5.95076 1.54604 6.5137 2.08594C7.07863 2.63032 7.36925 3.42213 7.38017 4.46605C7.37409 5.08747 7.28165 5.58999 7.09964 5.97569C6.91482 6.36734 6.6808 6.6698 6.39874 6.88271C6.12115 7.09161 5.83874 7.23092 5.55 7.30465C5.26125 7.38628 5.00315 7.42664 4.77629 7.42664C3.90641 7.42104 3.19071 7.11867 2.63271 6.52006C2.05498 5.9327 1.76271 5.13242 1.7566 4.12014ZM0.862418 4.36079C0.855725 5.184 1.14459 5.94243 1.72877 6.63345C2.30791 7.3607 3.23932 7.73343 4.52312 7.75659C5.6767 7.73916 6.59179 7.39096 7.26686 6.71003C7.93864 6.04045 8.27765 5.21164 8.2841 4.22081C8.27142 3.20314 7.91903 2.40871 7.22493 1.83854C6.54646 1.27283 5.66366 0.987803 4.57819 0.98207C3.28793 1.0121 2.34713 1.39951 1.75144 2.14213C1.15257 2.86789 0.855725 3.60626 0.862418 4.36079Z" fill="#525252"/>
</svg>
