<svg width="5" height="7" viewBox="0 0 5 7" fill="none" xmlns="http://www.w3.org/2000/svg">
<path d="M0.958106 4.22848C0.958106 5.08907 0.942606 5.71807 0.90961 6.11305C0.897395 6.23986 0.873677 6.34202 0.839037 6.4217C0.803105 6.50942 0.740518 6.56422 0.648105 6.58716C0.557453 6.60916 0.466449 6.62038 0.373683 6.62038C0.326948 6.629 0.303581 6.64643 0.303581 6.6738C0.303581 6.71679 0.352079 6.73893 0.449189 6.73893C0.599609 6.73893 0.775158 6.7341 0.975719 6.723C1.18051 6.71586 1.30451 6.71014 1.34044 6.71283C1.53454 6.72556 2.75129 6.74953 4.05494 6.76328C4.23483 6.76499 4.36294 6.75172 4.42764 6.73006C4.49128 6.70875 4.53485 6.64234 4.55892 6.53973C4.58606 6.42485 4.6154 6.2665 4.64065 6.07136C4.66519 5.87714 4.67776 5.7516 4.67942 5.69909C4.68239 5.62033 4.66659 5.57445 4.62176 5.57227C4.58184 5.57014 4.55389 5.61574 4.54179 5.69909C4.49306 6.03297 4.35439 6.24714 4.12999 6.3251C4.01033 6.36662 3.86132 6.38997 3.69622 6.39972C3.52666 6.40993 3.37542 6.41601 3.2486 6.41703C2.81542 6.42002 2.06179 6.37837 1.92887 6.28174C1.7963 6.1852 1.72537 5.99327 1.71915 5.70916C1.70975 5.27244 1.70975 4.7807 1.71915 4.23265V3.47318C1.71915 3.43443 1.73958 3.41392 1.78197 3.41392C2.1717 3.41392 3.07575 3.42413 3.55555 3.45587C3.73016 3.4671 3.85627 3.50894 3.92191 3.5696C3.98297 3.62635 4.01562 3.69548 4.02806 3.75865C4.04992 3.86631 4.06449 3.96033 4.06449 4.03956C4.06449 4.09333 4.08634 4.1189 4.13154 4.1189C4.16617 4.1189 4.19037 4.09841 4.19272 4.057C4.19442 4.02488 4.19272 3.99038 4.19272 3.95907C4.19272 3.8325 4.19847 3.64583 4.23029 3.40529C4.26727 3.12702 4.30544 2.96353 4.30709 2.9195C4.30879 2.8757 4.29137 2.85163 4.25847 2.85163C4.22839 2.85163 4.1879 2.892 4.12531 2.96147C4.05463 3.04001 3.90549 3.07784 3.69167 3.08381C3.55357 3.08765 2.83435 3.09068 2.47844 3.09239C2.1129 3.09409 1.87746 3.10122 1.77248 3.10122C1.72704 3.10122 1.70978 3.07381 1.71917 3.01605V0.622771C1.71917 0.565217 1.73643 0.537591 1.77248 0.537591C1.86501 0.537591 2.06945 0.535882 2.38297 0.537591C2.70002 0.539727 3.38319 0.552625 3.48829 0.562151C3.7256 0.584023 3.89176 0.623372 3.98299 0.676116C4.06825 0.725646 4.12132 0.788582 4.13941 0.857947C4.17263 0.984524 4.19272 1.08713 4.19272 1.16464C4.19272 1.24146 4.21704 1.28034 4.26305 1.27874C4.30169 1.27745 4.32517 1.24007 4.33046 1.18219C4.34843 0.983953 4.35338 0.790301 4.37743 0.612707C4.40797 0.386375 4.45046 0.253139 4.45281 0.208995C4.45496 0.163826 4.44011 0.138041 4.41664 0.132654C4.37578 0.138079 4.33362 0.151447 4.29299 0.172806C4.21326 0.190363 4.07916 0.213303 3.8968 0.216374C3.13178 0.228634 1.96764 0.232771 1.34517 0.225082C1.18641 0.222946 0.840834 0.204665 0.312894 0.198983C0.214257 0.198983 0.165527 0.220419 0.165527 0.263983C0.165527 0.299737 0.190775 0.317302 0.240796 0.317302C0.350705 0.317302 0.453687 0.325685 0.548096 0.343114C0.701335 0.3649 0.806546 0.416499 0.859622 0.49882C0.906709 0.572312 0.933248 0.686144 0.939237 0.837715C0.952033 0.922672 0.958146 1.54719 0.958146 2.71172L0.958106 4.22848Z" fill="#525252"/>
</svg>
