<svg width="61" height="29" viewBox="0 0 61 29" fill="none" xmlns="http://www.w3.org/2000/svg">
<path fill-rule="evenodd" clip-rule="evenodd" d="M12.6974 23.122C12.8663 22.9477 13.0264 22.7669 13.1755 22.5784C13.4217 22.2683 13.6381 21.9417 13.8236 21.5998C13.9991 21.1998 14.0124 20.8919 13.9296 20.7242L13.9251 20.7154C13.9075 20.6825 13.8865 20.6595 13.8655 20.6486C13.8467 20.6387 13.8202 20.6376 13.7893 20.6453C13.6392 20.6836 13.4493 20.8699 13.2627 21.2513C13.0297 21.7806 12.8586 22.2727 12.7592 22.756C12.7338 22.8776 12.7128 22.9993 12.6974 23.122ZM16.9945 24.0513L17.0807 24.4261L17.0917 24.4743C17.3567 24.3088 17.5753 24.1466 17.7398 23.9823C17.9441 23.7784 18.0633 23.5757 18.0821 23.3631C18.0931 23.236 18.2068 23.1417 18.336 23.1538C18.4641 23.1647 18.5591 23.2776 18.5469 23.4058C18.516 23.7346 18.3515 24.0305 18.071 24.3099C17.8513 24.528 17.5576 24.7395 17.201 24.9521C17.5046 26.3209 17.6371 27.4497 16.5871 27.9582C16.5794 27.9625 16.5706 27.9658 16.5628 27.968C16.1344 28.1488 15.6376 28.105 15.2456 27.9154V27.9165C15.0436 27.819 14.8658 27.6798 14.7356 27.511C14.5997 27.3357 14.5158 27.1275 14.507 26.8984C14.4949 26.5708 14.6384 26.2091 15.0094 25.8519L15.0259 25.8376C15.5879 25.3905 16.0583 25.1045 16.4127 24.8875C16.5076 24.8294 16.5949 24.7768 16.671 24.7286L16.6479 24.6299C16.6081 24.6672 16.5661 24.7023 16.5209 24.7351C16.5132 24.7406 16.5054 24.745 16.4977 24.7505C16.0329 25.0058 15.6497 25.0508 15.3616 24.9609L15.3494 24.9576C15.1673 24.8984 15.0248 24.7866 14.9255 24.6398C14.8305 24.5006 14.7764 24.3308 14.7654 24.1466L14.7643 24.128L14.7311 24.1379C14.5721 24.1861 14.4032 24.2146 14.2442 24.2124C14.0797 24.6288 13.8479 24.8919 13.6027 25.031V25.0299C13.4305 25.1286 13.2516 25.1669 13.0827 25.156C12.9105 25.145 12.7471 25.0825 12.6102 24.9784C12.4059 24.8239 12.2579 24.5795 12.2226 24.2793V24.276C12.163 23.7171 12.1928 23.1921 12.301 22.6639C12.407 22.1423 12.5892 21.6206 12.8332 21.0639L12.8398 21.0497C13.0949 20.5291 13.4029 20.2617 13.6734 20.1927H13.6745C13.818 20.1565 13.9561 20.1719 14.0764 20.2321C14.1868 20.288 14.2785 20.3801 14.3436 20.5039L14.3513 20.5193C14.4871 20.7954 14.4893 21.2491 14.2497 21.7894L14.242 21.8058C14.04 22.1806 13.807 22.5335 13.5442 22.8645C13.2826 23.1932 12.9889 23.5056 12.6609 23.8003C12.6632 23.9395 12.672 24.0809 12.6874 24.2245C12.7073 24.3943 12.7857 24.5291 12.8917 24.6091C12.9557 24.6573 13.0319 24.6869 13.1114 24.6924C13.1942 24.6979 13.2837 24.6782 13.3709 24.6277V24.6267C13.5221 24.5401 13.6701 24.3702 13.7882 24.094C13.7054 24.0436 13.6337 23.9746 13.5785 23.8847C13.5497 23.8387 13.5266 23.7872 13.5089 23.7302C13.4758 23.6228 13.4603 23.5143 13.4758 23.4091C13.4945 23.2853 13.5509 23.1724 13.6646 23.0782C13.7452 23.0113 13.839 22.973 13.9329 22.9675C14.0333 22.962 14.1294 22.9927 14.21 23.0639C14.2751 23.1209 14.3281 23.2031 14.3579 23.3094C14.3878 23.4168 14.3966 23.5603 14.3712 23.7401C14.4452 23.7313 14.5214 23.7149 14.5953 23.693C14.6892 23.6645 14.7786 23.6272 14.8548 23.5856C14.9343 23.3719 15.0668 23.1603 15.2545 22.9708C15.345 22.8798 15.493 22.8787 15.5846 22.9686C15.6762 23.0584 15.6773 23.2053 15.5868 23.2962C15.3296 23.5549 15.2147 23.8639 15.2302 24.1171C15.2357 24.2179 15.2633 24.3077 15.3108 24.3768C15.3527 24.4393 15.4146 24.4875 15.4941 24.5127L15.5029 24.516C15.6751 24.5675 15.9247 24.5291 16.2548 24.3505C16.4094 24.2365 16.5032 24.0699 16.5551 23.8803L16.5606 23.8628C16.628 23.602 16.6214 23.2973 16.5816 23.0091C16.565 22.882 16.6545 22.7658 16.7814 22.7483C16.9095 22.7319 17.0266 22.8206 17.0442 22.9467C17.0906 23.2864 17.0972 23.6524 17.0111 23.9801L17.0067 24.002L16.9945 24.0513ZM16.3829 27.5406C17.0895 27.1976 17.0133 26.311 16.7792 25.2097L16.6567 25.2842C16.3144 25.4924 15.8628 25.7675 15.3262 26.1938C15.0668 26.4458 14.9663 26.6814 14.9729 26.8831C14.9773 27.0102 15.027 27.1286 15.1054 27.2305C15.1893 27.3401 15.3097 27.4321 15.4488 27.499V27.5001C15.7281 27.636 16.077 27.6677 16.3762 27.5439L16.3829 27.5406Z" fill="#000200"/>
<path fill-rule="evenodd" clip-rule="evenodd" d="M25.454 20.037C25.4628 20.357 25.2089 20.6233 24.8865 20.632C24.5641 20.6408 24.2958 20.3888 24.2869 20.0688L24.2858 20.0501C24.2825 19.9614 24.2395 19.9055 24.1843 19.8726C24.0805 19.8101 23.9436 19.7882 23.832 19.7882L23.8011 19.7893C23.7724 19.7904 23.7448 19.7882 23.7161 19.7849V19.7871C23.3959 19.7488 22.9929 19.8288 22.6109 19.9614C22.1395 20.1257 21.7265 20.357 21.5366 20.5455C21.5245 20.5586 21.5112 20.5696 21.4969 20.5816C21.4649 20.6079 21.4406 20.6386 21.4251 20.6693C21.413 20.6945 21.4074 20.7219 21.4097 20.7471C21.413 20.7745 21.4295 20.8085 21.4615 20.8468C21.5156 20.9115 21.604 20.9773 21.732 21.0386L24.1567 21.9362C24.1909 21.9493 24.224 21.9647 24.2549 21.9833C24.6082 22.1904 24.8611 22.4381 25.0112 22.711C25.1305 22.9268 25.1868 23.1559 25.1802 23.3904C25.1735 23.6194 25.1062 23.8441 24.9803 24.0589C24.7959 24.3712 24.4813 24.6616 24.0418 24.9027C23.5516 25.1888 23.0846 25.3521 22.6021 25.3915C22.1207 25.4299 21.6382 25.3411 21.116 25.1252C20.7626 24.9959 20.4668 24.7888 20.2702 24.5477C20.024 24.2452 19.9169 23.8868 20.0052 23.5252C20.0814 23.214 20.3961 23.0233 20.7097 23.0978C21.0232 23.1734 21.2153 23.4857 21.1403 23.797C21.1369 23.809 21.1568 23.7926 21.1756 23.8167C21.2473 23.9044 21.3699 23.9844 21.5245 24.0403L21.5543 24.0512C21.9021 24.197 22.2123 24.2573 22.5115 24.2331C22.8108 24.209 23.1166 24.0973 23.4544 23.9L23.4699 23.8912C23.7261 23.751 23.895 23.6085 23.9745 23.4726C23.9999 23.4288 24.0142 23.3904 24.0142 23.3586C24.0153 23.3334 24.0065 23.3027 23.9877 23.2699C23.9403 23.1833 23.8442 23.0923 23.6996 23.0036L21.3235 22.1236C21.2981 22.1159 21.2727 22.106 21.2473 22.094C20.9492 21.9537 20.7262 21.7805 20.5672 21.592C20.3795 21.3685 20.2791 21.1241 20.2503 20.8797C20.2216 20.632 20.268 20.391 20.3707 20.1751C20.4568 19.9942 20.5838 19.832 20.7384 19.7016C21.0453 19.4101 21.6161 19.0814 22.2278 18.8677C22.7511 18.6857 23.3253 18.5773 23.8254 18.631C24.1125 18.6299 24.4779 18.6956 24.7838 18.8786C25.147 19.0956 25.4297 19.4518 25.4529 20.0052V20.0118L25.454 20.037Z" fill="#000200"/>
<path fill-rule="evenodd" clip-rule="evenodd" d="M42.8854 22.2353C42.6591 22.4917 42.266 22.518 42.0066 22.2933C41.8376 22.1465 41.767 21.9273 41.8034 21.7224C41.6775 21.6259 41.5572 21.5843 41.4556 21.592C41.4015 21.5964 41.3485 21.6183 41.3021 21.6566C41.2381 21.7092 41.1829 21.7914 41.142 21.8999C40.9853 22.3218 41.0681 23.0122 41.598 23.8999L41.6102 23.9174C41.8365 24.278 42.064 24.4566 42.3234 24.4226C42.7231 24.37 43.2685 24.0051 44.0149 23.2851C44.5559 22.7306 44.7094 22.2396 44.62 21.9065C44.5946 21.81 44.5449 21.729 44.4797 21.6698L44.4808 21.6687L44.4797 21.6676C44.4124 21.6073 44.323 21.5646 44.2181 21.5448C43.8659 21.4835 43.3801 21.672 42.8854 22.2353ZM28.6458 20.9487C28.9163 21.1229 28.9925 21.4824 28.817 21.7498C28.6414 22.0183 28.2793 22.0939 28.0099 21.9196C27.979 21.8999 27.9403 21.8791 27.8973 21.8572L27.8752 21.8462C27.7206 21.7772 27.5771 21.7739 27.4468 21.8309C27.2503 21.9174 27.0482 22.1213 26.8461 22.4303C26.7655 22.5531 26.6861 22.6922 26.6077 22.8479C26.4708 23.1799 26.4443 23.455 26.4961 23.6424C26.5105 23.6928 26.5282 23.729 26.548 23.7487C26.5889 23.7487 26.6452 23.7279 26.7159 23.6818L27.0316 23.1503C27.3518 22.4774 27.6345 22.2144 28.1126 22.3481C28.4559 22.4446 28.6326 22.7547 28.8766 23.2829L29.7499 22.0303C29.9332 21.7673 30.2965 21.7005 30.5626 21.8824C30.6674 21.9536 30.7414 22.0533 30.7801 22.164L30.7812 22.1629L31.1367 23.1503L31.7903 21.924C31.9405 21.6402 32.2938 21.5317 32.5797 21.6807C32.7067 21.7465 32.7984 21.8528 32.8491 21.9755L33.5469 23.4199C33.6629 23.1372 33.7457 22.7711 33.781 22.3218C33.7766 22.2681 33.7744 22.2155 33.7722 22.164C33.7335 22.1432 33.6982 22.1191 33.664 22.0895C33.4156 21.8725 33.3195 21.5722 33.346 21.3048C33.3592 21.17 33.4045 21.0407 33.4774 20.929C33.5591 20.8029 33.6739 20.7021 33.8174 20.6374C34.046 20.5344 34.3286 20.5311 34.6267 20.6977L34.6256 20.6988C34.7648 20.7766 34.8696 20.9081 34.9083 21.0692L35.658 21.0637C35.6856 21.0637 35.7132 21.0659 35.7408 21.0692V21.0681C36.8758 21.227 36.8747 21.8122 36.8736 22.6079C36.8736 22.678 36.8736 22.7525 36.8758 22.8347C36.8758 22.8522 36.8758 22.8698 36.8747 22.8873H36.8758C36.8338 23.5196 36.8405 23.8287 36.8968 23.8605C36.9376 23.8835 37.1849 23.7333 37.6089 23.4396C37.7171 23.364 37.7801 23.2643 37.8143 23.0868C37.8297 23.0079 37.8408 22.9191 37.8485 22.8172C37.8375 22.6254 37.8353 22.4205 37.8419 22.2024C37.843 22.1629 37.8485 22.1246 37.8573 22.0873C37.854 21.9503 37.8485 21.8024 37.8419 21.6402C37.8297 21.3202 38.0804 21.0506 38.4028 21.0385C38.7252 21.0265 38.9968 21.2753 39.0089 21.5953C39.0299 22.1059 39.0365 22.507 39.0178 22.8336C39.0443 23.1931 39.1105 23.4616 39.2066 23.6391C39.2441 23.7092 39.2739 23.7487 39.2949 23.7574L39.3402 23.741C39.4947 23.6807 39.6835 23.5098 39.8922 23.2248C39.9066 23.204 39.9231 23.1854 39.9397 23.1679C39.7696 22.4983 39.805 21.9207 39.9695 21.4758C40.0887 21.1547 40.2753 20.8939 40.505 20.7043C40.7523 20.5005 41.0482 20.3821 41.3673 20.358C41.7835 20.3273 42.2285 20.4654 42.6326 20.8007C43.2597 20.3613 43.9001 20.2331 44.44 20.3306H44.4422C44.779 20.392 45.0782 20.5399 45.3178 20.7569L45.3189 20.7558C45.5596 20.9739 45.7362 21.2599 45.8245 21.5931C46.0144 22.3065 45.7947 23.2424 44.9015 24.1553L44.8894 24.1673C43.9387 25.0857 43.1626 25.5624 42.4835 25.6511C41.6621 25.7585 41.0526 25.3761 40.5502 24.5739C40.5425 24.5607 40.5348 24.5476 40.5271 24.5344C40.4939 24.4796 40.463 24.4248 40.4332 24.3711C40.2113 24.5848 39.9861 24.7361 39.7663 24.8216C39.4461 24.9465 39.1337 24.9476 38.8422 24.8248C38.6291 24.7361 38.4447 24.5848 38.2935 24.3755L38.2758 24.3876C37.4599 24.9531 36.8217 25.1514 36.3193 24.8676C35.8335 24.5936 35.6348 23.9427 35.7077 22.8227C35.7066 22.7514 35.7066 22.6791 35.7066 22.609C35.7066 22.4073 35.7066 22.2561 35.6028 22.2232L34.9436 22.2276L34.9447 22.2418C34.9514 22.2835 34.9525 22.3262 34.9502 22.37C34.905 23.0046 34.778 23.5328 34.5936 23.9448C34.3673 24.4522 34.046 24.8051 33.6717 24.9925V24.9914L33.6607 24.9969C33.3703 25.135 33.0214 25.0122 32.8834 24.724L32.2838 23.4824L31.5651 24.8303C31.501 24.9673 31.384 25.0802 31.2294 25.135C30.9247 25.2424 30.5902 25.0857 30.4808 24.7832L30.0613 23.6194L29.2696 24.7536C29.2144 24.8325 29.1394 24.8994 29.0455 24.9443C28.7562 25.0846 28.4073 24.9662 28.2649 24.6791L27.9072 23.9558L27.661 24.37C27.6245 24.4325 27.576 24.4895 27.5152 24.5366C27.1719 24.8029 26.8241 24.9169 26.5061 24.9059C26.219 24.8972 25.9651 24.792 25.7608 24.6079C25.5786 24.4435 25.4428 24.2199 25.3689 23.9503C25.2518 23.5306 25.2827 22.9827 25.5312 22.3909L25.5466 22.3569C25.6471 22.1542 25.7542 21.9679 25.8646 21.7991C26.1914 21.3005 26.5613 20.9531 26.9687 20.7733C27.4236 20.5728 27.895 20.575 28.3764 20.8007C28.3897 20.8062 28.4029 20.8128 28.4162 20.8194C28.4879 20.8511 28.5641 20.895 28.6458 20.9487Z" fill="#000200"/>
<path fill-rule="evenodd" clip-rule="evenodd" d="M38.4503 19.4297C38.6535 19.4297 38.8378 19.5119 38.9714 19.6434C39.105 19.776 39.1867 19.959 39.1867 20.1606C39.1867 20.3623 39.1039 20.5453 38.9714 20.6779C38.8378 20.8105 38.6535 20.8916 38.4503 20.8916C38.2471 20.8916 38.0628 20.8094 37.9292 20.6779C37.7956 20.5453 37.7139 20.3623 37.7139 20.1606C37.7139 19.959 37.7967 19.776 37.9292 19.6434C38.0617 19.5119 38.246 19.4297 38.4503 19.4297Z" fill="#000200"/>
<path fill-rule="evenodd" clip-rule="evenodd" d="M47.8404 19.3577C48.1826 19.3577 48.4918 19.4957 48.7159 19.7182C48.94 19.9407 49.0792 20.2486 49.0792 20.5873C49.0792 20.927 48.94 21.2338 48.7159 21.4563C48.4918 21.6788 48.1826 21.8168 47.8404 21.8168C47.4992 21.8168 47.1889 21.6788 46.9648 21.4563C46.7407 21.2338 46.6016 20.927 46.6016 20.5873C46.6016 20.2486 46.7407 19.9407 46.9648 19.7182C47.1889 19.4957 47.4992 19.3577 47.8404 19.3577ZM48.4951 19.9374C48.3273 19.7708 48.0954 19.6678 47.8404 19.6678C47.5842 19.6678 47.3535 19.7708 47.1856 19.9374C47.0178 20.104 46.914 20.3341 46.914 20.5873C46.914 20.8404 47.0178 21.0705 47.1856 21.2371C47.3535 21.4037 47.5853 21.5067 47.8404 21.5067C48.0954 21.5067 48.3273 21.4037 48.4951 21.2371C48.6629 21.0705 48.7667 20.8404 48.7667 20.5873C48.7667 20.333 48.6629 20.1029 48.4951 19.9374Z" fill="#000200"/>
<path fill-rule="evenodd" clip-rule="evenodd" d="M47.3029 21.1594V19.898V19.8389H47.3625H47.9256C47.9841 19.8389 48.0371 19.8422 48.0824 19.8476C48.1298 19.8542 48.1707 19.8641 48.2049 19.8772C48.2413 19.8904 48.2734 19.9101 48.3021 19.9342C48.3297 19.9583 48.3551 19.9868 48.376 20.0208C48.397 20.0548 48.4125 20.0898 48.4224 20.126C48.4324 20.1633 48.4379 20.2016 48.4379 20.2411C48.4379 20.2926 48.429 20.3408 48.4125 20.3857C48.3948 20.4306 48.3694 20.4712 48.3341 20.5074C48.2999 20.5435 48.2557 20.5742 48.2027 20.5961L48.1685 20.6093C48.1928 20.6323 48.216 20.6575 48.2391 20.6838C48.2634 20.7134 48.2877 20.7463 48.3109 20.7813L48.5317 21.1243L48.5902 21.2153H48.482H48.2701H48.2369L48.2193 21.1879L48.0514 20.9249C48.0283 20.8887 48.0062 20.8559 47.9852 20.8263C47.9653 20.7989 47.9477 20.7748 47.9333 20.7561C47.919 20.7375 47.9057 20.7222 47.8936 20.7101C47.8814 20.6991 47.8715 20.6904 47.8637 20.6849C47.8538 20.6783 47.8439 20.6728 47.8339 20.6685C47.8251 20.6641 47.8152 20.6608 47.8063 20.6586C47.7997 20.6575 47.7898 20.6564 47.7776 20.6553H47.7765C47.7633 20.6542 47.7456 20.6542 47.7246 20.6542H47.5888V21.155V21.2142H47.5292H47.3614H47.3018L47.3029 21.1594ZM47.5899 20.3956H47.8925C47.962 20.3956 48.0161 20.389 48.0525 20.3759C48.068 20.3704 48.0824 20.3627 48.0934 20.3539C48.1044 20.3452 48.1144 20.3353 48.121 20.3243C48.1287 20.3123 48.1354 20.2991 48.1398 20.2849C48.1442 20.2717 48.1453 20.2575 48.1453 20.2433C48.1453 20.2213 48.1409 20.2027 48.1343 20.1852C48.1265 20.1687 48.1155 20.1534 48.1 20.1402C48.0857 20.1271 48.0647 20.1172 48.0393 20.1096C48.0106 20.1019 47.9753 20.0975 47.9333 20.0975H47.591L47.5899 20.3956Z" fill="#000200"/>
<path fill-rule="evenodd" clip-rule="evenodd" d="M52.3047 13.1649L52.4305 8.31229C52.4405 8.03503 52.4924 7.749 52.584 7.47284C52.1391 7.39941 51.7184 7.17366 51.3927 6.78462C50.5812 5.81366 50.9356 4.56873 51.8376 3.81256L51.7305 3.68982L51.6742 3.58023C50.2731 0.849273 53.3756 -0.473467 54.8364 1.32489L54.907 1.26681L54.9479 1.23831C55.8775 0.61037 57.1892 0.394479 57.9455 1.41366C58.6069 2.30571 58.2834 3.41804 57.516 4.08106C57.5337 4.0953 57.5525 4.10845 57.5701 4.1227L57.6452 4.17968L57.7081 4.24982C58.5395 5.17585 58.4556 6.56215 57.4454 7.31831C57.1539 7.5364 56.8436 7.66242 56.5301 7.70845C56.6559 8.37037 56.6294 9.09585 56.5588 9.73914V15.338L56.5444 15.4257C56.2132 17.4082 54.3616 17.8761 52.87 16.7715L52.7331 16.6695L52.6646 16.5742C52.5034 16.7364 52.3091 16.8778 52.0783 16.9928C50.3162 17.9298 48.988 17.0389 48.4602 15.2263L48.4492 15.1879L48.1676 13.863C48.1665 13.8652 48.1643 13.8685 48.1632 13.8706L48.1411 13.9123L48.1157 13.9517C47.2644 15.28 45.8126 15.5901 44.7261 14.8723C44.2491 17.0257 41.3995 17.6821 40.398 15.5934C39.7698 16.3156 38.8766 16.9172 37.661 17.3479L37.587 17.3742L37.5097 17.3895C35.6228 17.7665 33.8176 17.5386 32.6528 15.9868C31.0949 15.4948 29.5823 14.8854 28.1061 14.1939L28.0851 14.6158L28.0619 14.7123C27.5993 16.6575 25.0212 16.9128 24.0033 15.4904C23.9436 15.5693 23.8818 15.6482 23.8167 15.726L23.7902 15.7578L23.7615 15.7874C21.752 17.8674 19.3075 17.5989 17.3411 15.6263L17.2936 15.578L17.2517 15.5243C17.1578 15.4038 17.0684 15.2811 16.9823 15.1583C16.2988 15.9222 15.1782 16.0854 14.1403 15.7928L11.793 15.1068C11.7842 15.4213 11.7588 15.7369 11.7058 16.0668L11.6947 16.1348L11.676 16.2005C11.3878 17.1835 10.5663 17.7764 9.56934 17.9101L9.55167 17.9123C8.37912 18.0493 7.35782 17.235 7.05309 16.1369L7.02328 16.0285L6.90183 14.0789C6.08921 12.5589 6.10688 10.9106 7.54221 10.0032L7.47596 7.76873C6.76271 8.31667 6.02849 8.84051 5.26776 9.33475L5.33622 9.429L4.2023 10.1994C2.94584 11.223 1.97864 11.1693 1.1318 10.0383C0.468235 8.87667 0.552146 8.31996 1.53148 7.69092C2.09458 7.30626 2.5307 6.9216 2.84205 6.53585L2.89174 6.52818C4.1747 5.12325 7.19221 3.19448 10.7055 1.09585C11.9498 0.35941 14.0663 1.1879 12.3859 3.3227C12.0116 3.71174 11.6307 4.0964 11.2432 4.47557C11.5214 4.84599 11.6638 5.31831 11.6727 5.80927L11.6738 5.84215L11.5998 7.63174C12.6409 7.00708 13.7318 6.47229 14.8514 5.98352L14.869 5.97585L14.8867 5.96927C15.155 5.86297 15.431 5.78955 15.7092 5.75448C16.9944 3.78516 19.9534 4.8153 19.8596 7.51338L19.8585 7.54516L19.8551 7.57585C19.7646 8.5501 19.6498 10.9994 20.0141 11.898C20.1389 12.103 20.3973 12.5085 20.6081 12.7506C20.7925 12.4964 21.0056 12.0821 21.1149 11.8575C21.4738 10.5117 21.7067 9.16599 21.9485 7.79722C21.996 6.76489 22.293 5.67338 23.0824 4.95338C23.7626 4.33311 24.7375 4.10626 25.5976 4.48434C26.143 4.72434 26.525 5.14516 26.7348 5.65037C27.0384 5.62736 27.3476 5.67338 27.6368 5.79722C28.9209 5.03886 30.3077 4.81201 31.8744 4.90297L31.945 4.90736L32.0146 4.92051C32.9531 5.09804 33.7326 5.43886 34.2305 5.94626C34.3476 5.82681 34.4701 5.70955 34.5971 5.59338C36.3383 3.42681 39.857 5.18133 40.6233 7.49804C40.6674 7.60653 40.7105 7.71612 40.7525 7.82462C40.8264 7.6427 40.907 7.46188 40.9932 7.28215L41.193 6.86681L41.3034 6.83064C41.3211 6.66955 41.3465 6.51941 41.4425 6.31229C41.7208 5.72379 42.2441 5.28215 42.8878 5.14078C44.2646 4.83832 45.2561 5.90681 45.5697 7.12763L46.0797 8.46352L46.7996 6.97968L46.8339 6.92599C47.3484 6.1216 48.1577 5.46516 49.1745 5.57475C51.0239 5.7753 51.5561 8.05256 51.5749 9.57804C51.6897 10.7287 51.7968 11.8849 52.0264 13.0191C52.1247 13.0619 52.2174 13.1101 52.3047 13.1649ZM7.46382 7.43338L7.44394 6.75722C7.36003 5.9079 7.57312 5.03448 8.18921 4.41311C8.7523 3.84434 9.60025 3.57804 10.3742 3.84873C10.5774 3.91996 10.7551 4.01859 10.9108 4.14133C11.2111 3.87503 11.4861 3.6142 11.7124 3.36544C10.8876 3.31283 10.425 2.66736 10.5178 1.9364C8.85167 2.75503 7.26066 3.75338 5.71934 4.90516C4.80956 5.5353 3.99253 6.28708 3.21303 7.08927C3.24174 7.64051 3.37202 8.22352 3.62376 8.75283L3.64694 8.79229C4.08196 8.52489 4.57328 8.47338 4.90672 8.84927L4.92328 8.87229L6.61366 7.76325C6.81902 7.60215 7.0807 7.51557 7.36003 7.54078L7.46382 7.43338ZM11.729 1.42242C12.1077 1.42242 12.4135 1.72708 12.4135 2.10297C12.4135 2.47886 12.1066 2.78242 11.729 2.78242C11.3503 2.78242 11.0433 2.47777 11.0433 2.10297C11.0433 1.72708 11.3503 1.42242 11.729 1.42242ZM3.47581 8.85366L3.5012 8.89201C3.3654 8.99393 3.23842 9.11557 3.12691 9.24927C2.57265 9.84434 2.15199 9.78516 1.81413 9.55174C1.50499 9.35338 1.35041 9.01146 1.41887 8.67393C1.52486 8.36489 1.67943 8.26626 1.93558 8.22023C2.40483 8.149 2.92265 8.38681 3.47581 8.85366ZM36.9654 13.2011C37.2514 12.9643 37.449 12.6279 37.5528 12.2685C37.7537 11.5704 37.619 10.812 37.3463 10.1424C37.0692 9.97914 36.8384 9.75448 36.6551 9.48051C36.1715 10.0854 35.9353 11.2811 35.8326 12.2126C36.3438 12.389 36.728 12.7309 36.9654 13.2011Z" fill="#000200" stroke="#000200" stroke-width="0.0238486"/>
<path fill-rule="evenodd" clip-rule="evenodd" d="M58.9517 16.3881V14.9591V14.8999H59.0113H59.136H59.1648H59.2983H59.3414L59.3547 14.9404L59.6958 15.9531L59.7091 15.9925L59.729 15.9355L60.0734 14.9415L60.0867 14.9021H60.1286H60.2402H60.26H60.3848H60.4444V14.9613V16.3903V16.4495H60.3848H60.2015H60.1419V16.3903V15.5432L59.8394 16.4089L59.825 16.4484H59.7831H59.6108H59.5689L59.5556 16.4078L59.2553 15.5289V16.3881V16.4473H59.1957H59.0124H58.9528L58.9517 16.3881Z" fill="#000200"/>
<path fill-rule="evenodd" clip-rule="evenodd" d="M58.0949 16.388V15.1858H57.6797H57.6201V15.1266V14.9579V14.8987H57.6797H58.8214H58.881V14.9579V15.1266V15.1858H58.8214H58.404V16.388V16.4472H58.3444H58.1545H58.0949V16.388Z" fill="#000200"/>
<path fill-rule="evenodd" clip-rule="evenodd" d="M23.0361 7.91767C22.7678 9.43548 22.5602 10.7023 22.144 12.2388C21.0255 14.6048 20.2803 14.4656 19.0382 12.3988C18.5976 11.4322 18.6131 9.11986 18.7654 7.48041C18.824 5.78617 16.9757 5.07493 16.3916 6.84918C16.0449 6.78562 15.674 6.82946 15.2886 6.98178C13.5828 7.72589 12.1684 8.48425 10.8855 9.39932C10.5907 9.52425 10.4924 9.55822 10.4339 9.30507L10.5763 5.83548C10.5719 5.59548 10.5211 5.40041 10.4383 5.24808C10.212 5.45959 9.98343 5.66891 9.75267 5.87603C9.52192 5.87165 9.34305 5.65795 9.38611 5.43877C9.60031 5.25576 9.82223 5.07055 10.0419 4.88535C9.38501 4.62124 8.37586 5.27987 8.53375 6.68589L8.65188 10.6749C7.21434 11.1845 7.1492 12.3911 7.97397 13.7708L8.10425 15.8552C8.29526 16.5423 8.88816 16.9029 9.42144 16.8404C9.92491 16.7725 10.4449 16.5149 10.6238 15.9034C10.7342 15.2086 10.7077 14.6596 10.6724 14.013C10.7044 13.7971 10.721 13.7116 11.0136 13.7544L14.4429 14.756C15.2069 14.9719 16.0582 14.8579 16.3773 14.0941C16.6125 13.007 15.7921 12.8744 14.8812 12.7692C13.6568 12.6475 12.4334 12.3779 11.209 12.0415C10.9871 11.9626 10.8325 11.8727 10.9782 11.7741L13.4945 10.5544C14.4219 10.0853 15.3085 9.68206 16.2227 9.16589L16.2348 9.33904C16.4292 11.4377 16.8752 13.27 18.114 14.8689C19.6995 16.459 21.4352 16.6289 22.9677 15.0421C24.0994 13.6744 24.35 12.104 24.7276 10.1982C24.8303 9.57028 24.9407 8.94891 25.1527 8.37247C25.3238 7.95713 25.7412 7.20754 25.8218 6.77904C25.9852 4.89082 23.1465 4.61685 23.0361 7.91767Z" fill="#FE9DE2" stroke="#000200" stroke-width="0.0238486"/>
<path fill-rule="evenodd" clip-rule="evenodd" d="M33.342 15.0671C31.1603 14.4063 29.0957 13.5154 27.0972 12.4918L26.9968 14.4655C26.7296 15.5899 25.0469 15.58 24.7411 14.5488C24.4684 12.8622 24.7301 11.3093 25.5261 9.88796L25.7094 8.0633C25.8573 6.64412 27.1933 6.39755 27.5808 7.15152C28.7766 6.2233 30.0838 5.89015 31.8084 5.99097C33.766 6.36138 34.0167 7.19645 33.479 8.34604C32.6741 9.48138 30.563 10.2123 28.5326 10.8501C29.9602 11.7926 31.4165 12.4414 32.8838 12.9828C32.8242 10.3417 33.4447 8.06988 35.4012 6.33837C36.4788 4.88193 39.0624 6.18275 39.5924 7.87262C41.3545 12.1893 40.7506 15.1055 37.2903 16.3296C35.6154 16.6638 34.1955 16.46 33.342 15.0671ZM34.6736 13.1745C35.7722 13.0518 36.1917 13.6041 36.1476 14.6178C38.1029 14.5411 39.6078 12.22 38.1714 9.317C37.4681 9.13618 37.3698 8.40412 37.1954 8.02275C35.5094 8.12358 34.7133 10.5718 34.6736 13.1745ZM28.0854 9.09892L28.3449 8.86001C29.3596 8.20029 30.0143 7.97015 30.6966 8.04138C29.8586 8.45782 28.9908 8.81618 28.0854 9.09892Z" fill="#FE9DE2" stroke="#000200" stroke-width="0.0238486"/>
<path fill-rule="evenodd" clip-rule="evenodd" d="M51.1486 14.0742C51.895 13.5723 52.8191 15.4287 51.577 16.0304C50.6827 16.5115 49.9352 16.3866 49.5113 14.9268L48.5043 10.186C48.1499 11.2479 47.7513 12.3098 47.1949 13.3718C46.3911 14.6255 45.2792 14.2244 44.8023 13.3718L43.7445 10.9641L43.6938 14.426C43.5591 15.843 41.5617 16.563 41.2007 14.5268C40.9523 12.1871 40.9523 9.8923 41.9813 7.75422C42.5102 7.57888 42.2838 7.10217 42.4351 6.77559C42.848 5.90436 44.1619 5.88244 44.5251 7.45285L45.9605 11.215L47.7579 7.51093C48.8786 5.75861 50.4718 6.79422 50.4829 9.63916C50.6297 11.1175 50.7622 12.5959 51.1486 14.0742Z" fill="#FE9DE2" stroke="#000200" stroke-width="0.0238486"/>
<path fill-rule="evenodd" clip-rule="evenodd" d="M55.4667 9.67987C55.9216 5.727 53.5853 6.55549 53.5235 8.34617L53.3921 13.3927C53.1911 14.2684 53.094 15.3051 53.5235 15.9023C54.1716 16.3823 55.2392 16.6081 55.4667 15.2492V9.67987Z" fill="#FE9DE2" stroke="#000200" stroke-width="0.0238486"/>
<path fill-rule="evenodd" clip-rule="evenodd" d="M55.2394 6.17181C56.3634 7.55263 57.9345 6.0151 56.9518 4.9203C56.5842 4.63975 56.222 4.34386 55.8709 4.02715C56.0962 3.84962 56.3291 3.67756 56.5698 3.5088C57.9268 2.82058 57.2091 0.92907 55.5198 2.07099L54.6653 2.78003C54.4996 2.58058 54.3395 2.37455 54.1861 2.15866C53.5192 1.02112 51.6919 1.39373 52.5796 3.12304L53.2829 3.92852L52.5277 4.55537C51.1366 5.67099 52.6061 7.15263 53.7091 6.17619C53.9465 5.87044 54.2015 5.57674 54.4731 5.29181L55.2394 6.17181Z" fill="#FE9DE2" stroke="#000200" stroke-width="0.0238486"/>
</svg>
