<svg width="24" height="24" viewBox="0 0 24 24" fill="none" xmlns="http://www.w3.org/2000/svg">
<path d="M10.7566 2.76525C10.8709 2.53553 11.0478 2.34213 11.2671 2.2069C11.4865 2.07167 11.7396 2 11.9979 2C12.2562 2 12.5093 2.07167 12.7287 2.2069C12.948 2.34213 13.1249 2.53553 13.2392 2.76525L15.5789 7.46751L20.8104 8.22121C21.0661 8.2578 21.3064 8.36465 21.5041 8.52968C21.7018 8.6947 21.849 8.91132 21.9291 9.15501C22.0091 9.3987 22.0188 9.65975 21.957 9.90861C21.8952 10.1575 21.7644 10.3842 21.5795 10.5632L17.7924 14.2249L18.6861 19.3925C18.7295 19.645 18.7009 19.9045 18.6035 20.1417C18.506 20.3789 18.3436 20.5843 18.1347 20.7347C17.9257 20.8852 17.6784 20.9747 17.4209 20.9931C17.1633 21.0115 16.9057 20.9581 16.6772 20.8389L11.9979 18.4008L7.31863 20.8419C7.08982 20.9614 6.83186 21.0149 6.57396 20.9964C6.31606 20.9779 6.06854 20.8882 5.85944 20.7373C5.65034 20.5864 5.48801 20.3805 5.39086 20.1428C5.2937 19.9051 5.26559 19.6452 5.30972 19.3925L6.20188 14.2249L2.41786 10.5647C2.23293 10.3858 2.10214 10.1592 2.04028 9.91047C1.97843 9.66172 1.98796 9.40077 2.06782 9.15711C2.14768 8.91346 2.29467 8.69682 2.49217 8.5317C2.68967 8.36658 2.92981 8.25956 3.18543 8.22274L8.41538 7.46903L10.7566 2.76677V2.76525Z" fill="#121212"/>
</svg>
