<svg width="80" height="22" viewBox="0 0 80 22" fill="none" xmlns="http://www.w3.org/2000/svg">
<path d="M75.5819 4.70494L72.9119 11.2559L71.1065 6.68642C70.4103 4.78782 68.272 4.98747 68.272 4.98747H62.1326C59.4282 4.98747 57.1216 6.67135 56.2379 9.0333C56.2379 9.00693 56.2418 8.9768 56.2418 8.95043C56.2418 4.39227 52.4931 0.696777 47.8646 0.696777H41.3733V4.49775H43.0181V10.6908C42.7695 7.5001 40.0574 4.98747 36.7524 4.98747C33.4896 4.98747 30.8081 7.43983 30.4983 10.574C30.1922 7.43983 27.5108 4.98747 24.2441 4.98747C21.3255 4.98747 18.8735 6.94635 18.1658 9.60213C18.1697 9.51549 18.1735 9.42884 18.1735 9.33844V6.02718H10.3701V9.73021H14.1303C13.9275 12.0922 11.9155 13.9456 9.46354 13.9456C6.87771 13.9456 4.78151 11.8812 4.78151 9.33467C4.78151 6.78813 6.87771 4.72377 9.46354 4.72377H18.1544V0.726914H9.42912C4.5979 0.726914 0.680908 4.58063 0.680908 9.33844C0.680908 14.0962 4.5979 17.9537 9.42912 17.9537C13.6024 17.9537 17.091 15.0719 17.9631 11.2182C17.9861 14.6161 20.7899 17.3661 24.2441 17.3661C27.507 17.3661 30.1884 14.9175 30.4983 11.7795C30.8043 14.9137 33.4857 17.3661 36.7524 17.3661C40.0574 17.3661 42.7656 14.8534 43.0181 11.6627V17.2041H47.8646C51.6171 17.2041 54.792 14.7743 55.8593 11.4254C55.9893 14.7216 58.7511 17.2304 62.1364 17.3661C63.1462 17.4037 64.4583 16.9215 64.4583 16.9215C64.8676 16.7596 65.2769 16.8424 65.2769 16.8424H67.2468V8.22338C67.9469 8.22338 67.9851 8.58879 67.9851 8.58879L71.1065 15.9496L70.7775 16.9215C69.9972 18.9821 68.272 18.6619 68.272 18.6619H67.1627V21.3705H70.7354C73.1988 21.2499 73.7726 18.903 73.7726 18.903L79.3191 4.70871H75.5819V4.70494ZM24.2441 14.1678C22.5648 14.1678 21.203 12.8305 21.203 11.1768C21.203 9.52302 22.5648 8.18194 24.2441 8.18194C25.9233 8.18194 27.2851 9.52302 27.2851 11.1768C27.2851 12.8305 25.9233 14.1678 24.2441 14.1678ZM36.7524 14.1678C35.0732 14.1678 33.7114 12.8305 33.7114 11.1768C33.7114 9.52302 35.0732 8.18194 36.7524 8.18194C38.4317 8.18194 39.7935 9.52302 39.7935 11.1768C39.7935 12.8305 38.4317 14.1678 36.7524 14.1678ZM47.8187 13.3993H46.7094V4.50152H47.8187C50.3127 4.50152 52.3363 6.4943 52.3363 8.95043C52.3401 11.4103 50.3127 13.3993 47.8187 13.3993ZM63.6435 13.761C63.1921 14.0171 62.6949 14.1678 62.1326 14.1678C60.4571 14.1678 59.0954 12.8267 59.0954 11.1768C59.0954 9.52302 60.4571 8.18194 62.1326 8.18194C62.6719 8.18194 63.2074 8.31756 63.6435 8.56619V13.761Z" fill="#DF610F"/>
</svg>
