<svg width="28" height="28" viewBox="0 0 28 28" fill="none" xmlns="http://www.w3.org/2000/svg">
<path d="M12.549 3.22628C12.6824 2.95829 12.8887 2.73265 13.1446 2.57488C13.4006 2.41711 13.6959 2.3335 13.9972 2.3335C14.2986 2.3335 14.5939 2.41711 14.8498 2.57488C15.1057 2.73265 15.3121 2.95829 15.4455 3.22628L18.175 8.71226L24.2784 9.59158C24.5768 9.63426 24.8572 9.75892 25.0878 9.95145C25.3185 10.144 25.4902 10.3967 25.5836 10.681C25.677 10.9653 25.6882 11.2699 25.6162 11.5602C25.5441 11.8505 25.3915 12.1151 25.1757 12.3239L20.7574 16.5959L21.8001 22.6248C21.8508 22.9193 21.8174 23.2221 21.7037 23.4988C21.59 23.7755 21.4006 24.0152 21.1568 24.1907C20.913 24.3662 20.6245 24.4706 20.3241 24.4921C20.0236 24.5136 19.723 24.4513 19.4564 24.3122L13.9972 21.4678L8.53808 24.3158C8.27113 24.4551 7.97017 24.5176 7.66929 24.496C7.36841 24.4744 7.07964 24.3697 6.83569 24.1937C6.59174 24.0177 6.40236 23.7774 6.28901 23.5001C6.17565 23.2228 6.14286 22.9196 6.19434 22.6248L7.23521 16.5959L2.82051 12.3257C2.60476 12.117 2.45217 11.8526 2.38001 11.5624C2.30784 11.2722 2.31897 10.9677 2.41213 10.6835C2.5053 10.3992 2.67678 10.1465 2.9072 9.95382C3.13762 9.76118 3.41779 9.63632 3.71601 9.59336L9.81762 8.71404L12.549 3.22806V3.22628Z" fill="#F5BE00"/>
</svg>
