<svg width="51" height="51" viewBox="0 0 51 51" fill="none" xmlns="http://www.w3.org/2000/svg">
<g clip-path="url(#clip0_3919_3553)">
<path d="M26.4725 50.4958L29.4974 34.9927H19.4891L16.8003 48.9642C17.348 49.1634 18.0949 49.4 19.041 49.674C21.5057 50.3464 23.9829 50.6204 26.4725 50.4958Z" fill="#103B66"/>
<path d="M31.478 24.7696L34.5402 9.15438H44.3618C41.0506 5.29416 36.9178 2.71652 31.9634 1.42148C25.2912 -0.371661 18.98 0.462646 13.0297 3.9244C7.05461 7.36124 3.17078 12.4169 1.37824 19.0914C0.357488 22.852 0.233006 26.6375 1.00479 30.4479C1.75169 34.1089 3.24547 37.4461 5.48614 40.4596L11.5733 9.15438H24.5319L21.507 24.7696H31.478Z" fill="#103B66"/>
<path d="M49.626 32.004C50.5471 28.6419 50.7463 25.2424 50.2235 21.8056C49.7255 18.4932 48.5928 15.3926 46.8251 12.5037L40.4019 45.602C45.0824 42.1153 48.1571 37.5827 49.626 32.004Z" fill="#103B66"/>
</g>
<defs>
<clipPath id="clip0_3919_3553">
<rect width="51" height="51" fill="white"/>
</clipPath>
</defs>
</svg>
