<svg width="29" height="28" viewBox="0 0 29 28" fill="none" xmlns="http://www.w3.org/2000/svg">
<path d="M13.2155 3.22628C13.3489 2.95829 13.5552 2.73265 13.8111 2.57488C14.0671 2.41711 14.3624 2.3335 14.6637 2.3335C14.9651 2.3335 15.2604 2.41711 15.5163 2.57488C15.7722 2.73265 15.9786 2.95829 16.112 3.22628L18.8415 8.71226L24.9449 9.59158C25.2433 9.63426 25.5237 9.75892 25.7543 9.95145C25.985 10.144 26.1567 10.3967 26.2501 10.681C26.3435 10.9653 26.3547 11.2699 26.2827 11.5602C26.2106 11.8505 26.058 12.1151 25.8422 12.3239L21.424 16.5959L22.4666 22.6248C22.5173 22.9193 22.4839 23.2221 22.3702 23.4988C22.2565 23.7755 22.0671 24.0152 21.8233 24.1907C21.5795 24.3662 21.291 24.4706 20.9906 24.4921C20.6901 24.5136 20.3895 24.4513 20.1229 24.3122L14.6637 21.4678L9.20458 24.3158C8.93764 24.4551 8.63668 24.5176 8.3358 24.496C8.03492 24.4744 7.74614 24.3697 7.50219 24.1937C7.25824 24.0177 7.06886 23.7774 6.95551 23.5001C6.84216 23.2228 6.80937 22.9196 6.86085 22.6248L7.90171 16.5959L3.48702 12.3257C3.27126 12.117 3.11868 11.8526 3.04651 11.5624C2.97434 11.2722 2.98547 10.9677 3.07864 10.6835C3.1718 10.3992 3.34329 10.1465 3.57371 9.95382C3.80413 9.76118 4.08429 9.63632 4.38252 9.59336L10.4841 8.71404L13.2155 3.22806V3.22628Z" fill="#F5BE00"/>
</svg>
