<svg width="29" height="28" viewBox="0 0 29 28" fill="none" xmlns="http://www.w3.org/2000/svg">
<path d="M12.883 3.22604C13.0164 2.95804 13.2227 2.7324 13.4786 2.57463C13.7346 2.41686 14.0299 2.33325 14.3312 2.33325C14.6325 2.33325 14.9279 2.41686 15.1838 2.57463C15.4397 2.7324 15.646 2.95804 15.7794 3.22604L18.509 8.71201L24.6124 9.59133C24.9108 9.63402 25.1912 9.75868 25.4218 9.95121C25.6525 10.1437 25.8242 10.3965 25.9176 10.6808C26.0109 10.9651 26.0222 11.2696 25.9501 11.56C25.8781 11.8503 25.7255 12.1148 25.5097 12.3236L21.0914 16.5956L22.1341 22.6245C22.1848 22.9191 22.1514 23.2218 22.0377 23.4985C21.924 23.7753 21.7346 24.0149 21.4908 24.1905C21.247 24.366 20.9585 24.4704 20.658 24.4919C20.3576 24.5133 20.057 24.451 19.7904 24.312L14.3312 21.4675L8.87206 24.3155C8.60512 24.4549 8.30416 24.5173 8.00328 24.4957C7.7024 24.4742 7.41362 24.3694 7.16967 24.1934C6.92572 24.0174 6.73634 23.7772 6.62299 23.4999C6.50964 23.2226 6.47685 22.9193 6.52833 22.6245L7.56919 16.5956L3.1545 12.3254C2.93874 12.1167 2.78616 11.8523 2.71399 11.5621C2.64182 11.2719 2.65295 10.9675 2.74612 10.6832C2.83928 10.399 3.01077 10.1462 3.24119 9.95357C3.47161 9.76093 3.75177 9.63607 4.05 9.59311L10.1516 8.71379L12.883 3.22782V3.22604Z" fill="#F5BE00"/>
</svg>
