<svg width="13" height="24" viewBox="0 0 13 24" fill="none" xmlns="http://www.w3.org/2000/svg">
<path d="M7.55103 10.0975C5.3332 8.5936 3.26972 7.18178 3.26972 4.389C3.26972 1.90301 5.14872 1.01307 6.93488 1.01307C9.27569 1.01307 10.723 2.2098 11.1543 4.48112L11.1852 4.63451H11.7085V4.45028C11.678 3.99009 11.678 3.19186 11.678 2.73167C11.678 1.93385 11.7085 1.38114 11.7704 0.675432L11.801 0.460353L11.5856 0.491194C11.4226 0.516817 11.2577 0.527142 11.0928 0.522036C10.5427 0.507076 9.99567 0.434993 9.46058 0.306957C8.61857 0.137617 7.7628 0.0452498 6.90393 0.0310059C3.36216 0.0310059 0.898359 2.39404 0.898359 5.80081C0.898359 9.39142 3.42365 11.0796 5.85691 12.7369C8.16678 14.3021 10.3537 15.7752 10.3537 18.7522C10.3537 21.545 8.29017 22.8034 6.25723 22.8034C3.88587 22.8034 1.48356 21.5142 1.48356 19.0282C1.49007 18.8022 1.5106 18.5768 1.54506 18.3533L1.57601 18.0461H1.11379L1.0523 18.1382C0.785302 18.791 0.649298 19.4896 0.651978 20.1945C0.649648 20.5749 0.68058 20.9548 0.744422 21.3299C0.774965 21.6676 0.805915 22.0052 0.805915 22.3428C0.813783 22.599 0.803441 22.8555 0.774965 23.1102L0.713472 23.3557L0.959852 23.3249C1.10213 23.2996 1.24669 23.2894 1.39112 23.2945C2.01406 23.3116 2.63347 23.3939 3.23917 23.54C4.11608 23.7557 5.01521 23.869 5.91841 23.8776C9.8609 23.8776 12.6326 21.1765 12.6326 17.3404C12.6326 13.5656 10.0454 11.7853 7.55103 10.0975Z" fill="#990000"/>
</svg>
