<svg width="14" height="24" viewBox="0 0 14 24" fill="none" xmlns="http://www.w3.org/2000/svg">
<path d="M9.9847 0.0612773C8.84525 0.0612773 7.55185 0.0308416 6.87421 0H6.68932V0.49103L6.84326 0.521872C7.98271 0.705703 8.66036 0.797822 8.66036 3.19169V17.3094C8.66036 19.9488 7.39792 22.7724 5.39592 22.7724C5.03458 22.7735 4.67384 22.7427 4.31796 22.6803C3.15686 22.355 2.15142 21.6254 1.48438 20.6241C1.42289 20.532 1.33045 20.4094 1.26895 20.3173C0.910362 19.8046 0.620406 19.2474 0.406421 18.66C0.387268 18.6115 0.352986 18.5704 0.308628 18.5427C0.26427 18.5151 0.212182 18.5024 0.160041 18.5066C0.107777 18.5202 0.0627151 18.5532 0.0340929 18.5988C0.00547076 18.6445 -0.0045432 18.6993 0.00610401 18.7521L0.467914 22.4656C0.466983 22.5015 0.474931 22.537 0.491054 22.5691C0.507178 22.6011 0.53098 22.6288 0.560358 22.6495C1.58231 23.2742 2.72743 23.672 3.91764 23.8158C4.33484 23.8841 4.75735 23.915 5.18009 23.9079H5.51891C8.99918 23.9079 11.309 21.1151 11.309 16.9413V3.19169C11.309 0.859505 11.8328 0.767387 12.9417 0.521872L13.1262 0.49103V0H12.9417C12.3255 0.0308416 11.0627 0.0612773 9.9847 0.0612773Z" fill="#990000"/>
</svg>
