<svg width="82" height="40" viewBox="0 0 82 40" fill="none" xmlns="http://www.w3.org/2000/svg">
<path d="M74.937 36.8706C77.237 36.0689 79.1528 34.3486 80.2235 32.1678C81.6214 29.3247 80.4912 26.2601 79.4354 23.666C78.5481 21.4851 78.2903 19.4885 79.0066 17.3748C79.6981 15.3284 81.6437 12.8862 80.9621 10.4016C80.2111 7.67054 76.4117 5.62413 73.7523 6.06478C71.4573 6.44568 68.7707 7.00086 66.6714 5.0615C63.157 1.81512 60.1185 -0.48275 55.6077 1.71055C53.4217 2.77359 51.1936 3.7246 48.7499 3.82418C45.7559 3.94617 43.6641 2.43251 41.0469 1.28483C38.0207 -0.0445938 33.8793 0.684845 31.8643 2.17111C29.7874 3.70219 30.2112 3.42835 28.34 4.78018C25.9731 6.48801 23.8466 6.21664 21.1624 4.92456C19.0756 3.92127 17.125 3.0325 14.7358 2.58936C10.1408 1.73544 4.35367 4.40673 3.58783 9.12943C3.17394 11.6762 3.92986 13.1625 4.51725 15.8139C5.10464 18.4628 3.43169 20.7059 1.96446 22.7174C-0.568502 26.1829 1.56048 32.5686 6.51239 31.6948C9.80623 31.1147 14.0295 29.2127 15.7867 33.4225C17.3704 37.2141 21.0236 40.0423 25.2246 39.4423C27.822 39.0713 30.2979 37.8863 32.6673 37.122C35.173 36.3129 37.7382 37.1693 39.9985 38.4564C41.9466 39.5667 44.3011 40.0447 46.4772 39.6539C49.02 39.1958 50.9383 36.893 52.9731 35.6407C57.7069 32.7329 62.6291 33.8258 67.5885 36.4449C69.8389 37.6299 72.5503 37.7021 74.937 36.8706Z" fill="#007CC2"/>
</svg>
