<svg width="3" height="3" viewBox="0 0 3 3" fill="none" xmlns="http://www.w3.org/2000/svg">
<path d="M2.4268 0.360444C2.23348 0.345507 2.07238 0.33555 1.94351 0.330571C1.81958 0.310654 1.66344 0.300697 1.47508 0.300697C1.32141 0.300697 1.19501 0.308157 1.10083 0.323095C1.024 0.335542 0.971957 0.347994 0.942215 0.357952C0.885211 0.382848 0.855469 0.422673 0.855469 0.474954C0.855469 0.484912 0.85795 0.494884 0.85795 0.504843C0.875299 0.594467 1.01905 0.636781 1.29663 0.636781C1.33628 0.636781 1.38586 0.636781 1.44534 0.636781C1.50482 0.636781 1.53952 0.636781 1.55191 0.636781C1.57669 0.733874 1.58908 0.858354 1.58908 1.01271C1.58908 1.05254 1.58413 1.21436 1.57174 1.49817C1.56926 1.52058 1.5643 1.57037 1.55686 1.65003C1.54695 1.71974 1.54447 1.77201 1.54447 1.81434C1.54447 1.9413 1.57173 2.0384 1.62626 2.1081C1.80223 2.14794 1.89145 2.04089 1.89145 1.78945C1.89145 1.7297 1.88649 1.65003 1.8741 1.55294C1.86419 1.45584 1.85676 1.39859 1.85676 1.38365C1.85428 1.3239 1.86171 1.07992 1.87163 0.65421C2.14426 0.661679 2.31031 0.646738 2.37227 0.604416C2.3921 0.589478 2.41441 0.564583 2.43919 0.52724C2.46646 0.482428 2.48132 0.447576 2.48132 0.420191C2.48132 0.387827 2.46149 0.367913 2.4268 0.360444Z" fill="#DB87B9"/>
</svg>
