<svg width="3" height="3" viewBox="0 0 3 3" fill="none" xmlns="http://www.w3.org/2000/svg">
<path d="M2.61235 0.439923C2.59253 0.362747 2.55535 0.322906 2.50082 0.322906C2.45869 0.322906 2.41408 0.347799 2.36947 0.39759C2.17615 0.716253 2.06958 0.895512 2.04479 0.937835C1.88369 1.23907 1.76225 1.46562 1.68294 1.61997C1.56398 1.36106 1.47723 1.16936 1.42023 1.0399C1.24426 0.668956 1.12777 0.45237 1.07077 0.392621C1.02616 0.347809 0.984026 0.322906 0.941892 0.322906C0.9295 0.322906 0.917107 0.325403 0.902236 0.330382C0.840275 0.352788 0.798137 0.439917 0.773353 0.589291C0.763439 0.663977 0.756007 0.768546 0.753529 0.907961C0.748572 1.2565 0.746094 1.46811 0.746094 1.54529C0.751051 1.88387 0.795659 2.07804 0.882405 2.12783C0.902232 2.13779 0.922065 2.14526 0.941892 2.14526C0.974112 2.14526 1.00633 2.13282 1.03111 2.10544C1.0559 2.07805 1.07325 2.04818 1.0782 2.01083C1.08812 1.9461 1.08811 1.82411 1.08316 1.64486C1.08564 1.67225 1.08812 1.50296 1.09307 1.137L1.13521 1.21916C1.22939 1.40089 1.30126 1.54777 1.35579 1.6598L1.39296 1.732C1.40288 1.74943 1.42766 1.81166 1.47227 1.91374C1.50449 1.98842 1.53424 2.04817 1.5615 2.09298C1.57885 2.11787 1.60115 2.13033 1.62842 2.13033C1.68542 2.13033 1.75977 2.06311 1.85643 1.92618C1.91343 1.83656 1.97292 1.74694 2.0324 1.65483C2.09188 1.56271 2.13402 1.493 2.16128 1.44071C2.20837 1.35607 2.27033 1.25898 2.34468 1.14446C2.3422 1.32619 2.33972 1.46063 2.33724 1.55026C2.32733 1.92867 2.37938 2.11788 2.49091 2.11788C2.51074 2.11788 2.53552 2.11041 2.56278 2.09796C2.59996 2.07556 2.62474 2.02079 2.63961 1.92867C2.64705 1.88884 2.65201 1.82659 2.65201 1.73448C2.65201 1.71705 2.65201 1.61249 2.65201 1.42329V1.25898C2.65449 0.895507 2.64953 0.678919 2.6421 0.609211C2.6297 0.524566 2.61979 0.467308 2.61235 0.439923Z" fill="#DB87B9"/>
</svg>
