<svg width="12" height="20" viewBox="0 0 12 20" fill="none" xmlns="http://www.w3.org/2000/svg">
<path d="M5.45738 10.9807C6.07203 10.9807 6.65198 10.8861 7.19724 10.6969C9.65337 9.84051 10.9744 8.36669 11.1627 6.27546C11.3511 4.15187 10.3919 2.21251 8.43398 1.40589C7.03614 0.840761 5.8688 0.621677 4.80059 0.718771C3.202 0.863165 2.29737 1.48556 1.42744 2.39176C0.79792 3.04153 0.431113 3.88799 0.329497 4.93111C0.26258 5.58338 0.215489 6.20079 0.185748 6.78334C0.148571 7.53021 0.0742188 14.7474 0.0742188 15.1931C0.0742188 16.1341 0.116351 17.4038 0.200618 18.1407C0.217967 18.4494 0.24275 18.6535 0.277448 18.7556C0.48068 19.2336 0.84501 19.4751 1.37292 19.4751C1.89834 19.4751 2.34694 19.261 2.72119 18.8353C2.88972 18.6311 3.00125 18.2801 3.0533 17.7847C3.04834 17.4088 3.04834 17.0328 3.04834 16.6569C3.04834 14.9989 3.18217 10.9857 3.23174 10.56C3.98271 10.8388 4.72376 10.9807 5.45738 10.9807ZM3.34328 4.86887C3.51181 4.04981 4.04963 3.63903 4.9493 3.63903C6.05468 3.63903 6.99153 3.87305 7.75489 4.60498C8.09443 4.9112 8.26545 5.4813 8.26545 6.04643C8.26545 6.78085 7.7648 7.83393 6.30005 8.27458C6.06707 8.34429 4.46105 8.87954 3.36806 7.53269C3.23918 7.37335 3.16483 7.0547 3.16483 6.55928C3.16483 6.06137 3.22183 5.49873 3.34328 4.86887Z" fill="#DB87B9"/>
</svg>
