<svg width="28" height="28" viewBox="0 0 28 28" fill="none" xmlns="http://www.w3.org/2000/svg">
<path d="M12.5495 3.22604C12.6829 2.95804 12.8892 2.7324 13.1451 2.57463C13.4011 2.41686 13.6964 2.33325 13.9977 2.33325C14.299 2.33325 14.5944 2.41686 14.8503 2.57463C15.1062 2.7324 15.3125 2.95804 15.4459 3.22604L18.1755 8.71201L24.2789 9.59133C24.5773 9.63402 24.8577 9.75868 25.0883 9.95121C25.319 10.1437 25.4907 10.3965 25.5841 10.6808C25.6774 10.9651 25.6887 11.2696 25.6166 11.56C25.5446 11.8503 25.392 12.1148 25.1762 12.3236L20.7579 16.5956L21.8006 22.6245C21.8513 22.9191 21.8179 23.2218 21.7042 23.4985C21.5905 23.7753 21.4011 24.0149 21.1573 24.1905C20.9135 24.366 20.625 24.4704 20.3245 24.4919C20.0241 24.5133 19.7235 24.451 19.4569 24.312L13.9977 21.4675L8.53857 24.3155C8.27162 24.4549 7.97066 24.5173 7.66978 24.4957C7.3689 24.4742 7.08013 24.3694 6.83618 24.1934C6.59222 24.0174 6.40285 23.7772 6.28949 23.4999C6.17614 23.2226 6.14335 22.9193 6.19483 22.6245L7.23569 16.5956L2.821 12.3254C2.60525 12.1167 2.45266 11.8523 2.38049 11.5621C2.30833 11.2719 2.31945 10.9675 2.41262 10.6832C2.50579 10.399 2.67727 10.1462 2.90769 9.95357C3.13811 9.76093 3.41827 9.63607 3.7165 9.59311L9.81811 8.71379L12.5495 3.22782V3.22604Z" fill="#F5BE00"/>
</svg>
