<svg width="10" height="16" viewBox="0 0 10 16" fill="none" xmlns="http://www.w3.org/2000/svg">
<path d="M3.50117 0.949707C3.48878 0.944728 3.4739 0.93976 3.46399 0.929802C2.21486 0.989552 1.40441 1.39783 1.03264 2.15217C0.707969 2.78452 0.546873 4.04921 0.546873 5.94874C0.546873 5.94874 0.534482 7.72628 0.509698 8.00013C0.492349 9.9146 0.351074 12.9469 0.351074 13.1685C0.351074 13.6116 0.42295 14.0224 0.569178 14.4008C0.859155 15.1352 1.27801 15.5037 1.82575 15.5037C2.11572 15.5037 2.36356 15.3418 2.57423 15.0182C2.73533 14.7618 2.81464 14.3535 2.81464 13.7908C2.81464 13.8431 2.7626 13.2207 2.67833 11.9237C2.62132 11.0673 2.67337 9.8449 2.67337 9.8449C3.02778 9.88225 3.37477 9.89967 3.79362 9.89967C4.90892 9.89967 5.78133 9.7976 6.41085 9.59096C7.28326 9.29969 7.99705 8.7719 8.5547 8.00013C9.11234 7.23086 9.38993 6.36699 9.38993 5.40851C9.38993 4.04175 8.76784 2.92891 7.52367 2.07499C7.37 1.96794 7.21634 1.87085 7.05772 1.77624C6.58186 1.77873 6.04404 1.62687 5.64253 1.52978C4.90396 1.35302 4.1877 1.19866 3.50117 0.949707ZM6.83218 4.94794C6.89662 5.15457 6.92884 5.35124 6.92884 5.54045C6.92884 6.03836 6.71074 6.45662 6.27453 6.79271C5.83833 7.1288 5.33025 7.33791 4.7503 7.42505C4.39588 7.47733 3.74901 7.44248 2.81464 7.32298C2.76755 6.12799 2.76011 5.59024 2.85925 4.46496C2.90138 3.88738 3.20871 3.56375 3.55322 3.55877C3.87789 3.53388 3.83576 3.53886 4.07369 3.55877C5.63015 3.68574 6.49264 4.01933 6.83218 4.94794Z" fill="#DB87B9"/>
</svg>
