<svg width="12" height="10" viewBox="0 0 12 10" fill="none" xmlns="http://www.w3.org/2000/svg">
<path d="M2.96926 1.1641C2.91721 1.1641 2.86516 1.14169 2.82055 1.10932C2.2282 1.41056 1.75978 1.85121 1.41528 2.43377C0.988989 3.15325 0.77832 3.96733 0.77832 4.87353C0.77832 6.31249 1.217 7.50749 2.09437 8.4585C2.97173 9.40951 4.12421 9.88501 5.55426 9.88501C6.76374 9.88501 7.70059 9.5539 8.36233 8.89168C8.61761 9.23773 8.91502 9.4817 9.25704 9.61863C9.52967 9.74061 9.80973 9.80037 10.0997 9.80037C10.9498 9.80037 11.3513 9.40702 11.2993 8.61783C11.2819 8.12241 11.1159 7.74897 10.8011 7.50001C10.4864 7.25105 10.1666 7.00459 9.84443 6.75564C9.51976 6.50917 9.30909 6.05856 9.205 5.4063C9.13808 4.80632 9.06125 4.21629 8.97451 3.63374C8.8035 2.91425 8.46395 2.34165 7.95339 1.91344C7.35361 1.41304 6.72657 1.06202 6.06978 0.860367C5.7575 0.917626 5.44026 0.945017 5.18002 0.974892C4.4241 1.06203 3.69792 1.1641 2.96926 1.1641ZM6.95706 4.81378C7.21234 5.70753 7.22969 6.43698 6.88023 6.91497C6.54316 7.37803 5.86655 7.91826 4.40675 7.44525C4.0226 7.32077 3.74501 7.11165 3.61613 6.99713C3.04609 6.49922 2.89986 5.94653 2.89986 5.12249C2.89986 4.52001 3.06839 3.98725 3.41042 3.5242C3.74996 3.06114 4.1936 2.82712 4.73638 2.82712C5.12797 2.82712 5.53939 2.9516 5.97312 3.20056C6.40684 3.452 6.734 3.98974 6.95706 4.81378Z" fill="#DB87B9"/>
</svg>
