<svg width="12" height="20" viewBox="0 0 12 20" fill="none" xmlns="http://www.w3.org/2000/svg">
<path d="M9.12734 1.32607C7.72951 0.760941 6.56712 0.63895 5.49396 0.63895C4.11347 0.63895 2.99073 1.09205 2.1208 1.99825C1.4888 2.64803 1.12447 3.49448 1.02286 4.53761C0.955939 5.18987 0.908844 5.80728 0.879103 6.38984C0.844405 7.1367 0.767578 14.3539 0.767578 14.7996C0.767578 15.7406 0.809714 17.0103 0.893981 17.7447C0.91133 18.0534 0.936114 18.2576 0.970812 18.3596C1.17404 18.8376 1.53837 19.0791 2.06628 19.0791C2.5917 19.0791 3.0403 18.865 3.41455 18.4393C3.58308 18.2351 3.69461 17.8841 3.74418 17.3887C3.73922 17.0128 3.73922 16.6368 3.73922 16.2609C3.73922 14.6029 3.87306 10.5922 3.92263 10.164C4.67359 10.4453 5.41464 10.5872 6.14826 10.5872C6.76291 10.5872 7.34287 10.4926 7.88813 10.3034C10.3443 9.44701 11.6653 7.97318 11.8536 5.88196C12.042 3.75836 11.0853 2.13269 9.12734 1.32607ZM6.99589 7.87859C6.76291 7.94829 5.15688 8.48355 4.06389 7.1367C3.93502 6.97737 3.86067 6.6587 3.86067 6.16328C3.86067 5.66786 3.92014 5.10522 4.03911 4.47287C4.20764 3.65381 4.74547 3.24303 5.64514 3.24303C6.75052 3.24303 7.68489 3.47456 8.45073 4.20898C8.79027 4.51769 8.96128 5.08779 8.96128 5.65043C8.95881 6.38485 8.46064 7.44042 6.99589 7.87859Z" fill="#DB87B9"/>
</svg>
