<svg width="29" height="28" viewBox="0 0 29 28" fill="none" xmlns="http://www.w3.org/2000/svg">
<path d="M13.216 3.22604C13.3494 2.95804 13.5557 2.7324 13.8116 2.57463C14.0676 2.41686 14.3629 2.33325 14.6642 2.33325C14.9655 2.33325 15.2609 2.41686 15.5168 2.57463C15.7727 2.7324 15.9791 2.95804 16.1125 3.22604L18.842 8.71201L24.9454 9.59133C25.2438 9.63402 25.5242 9.75868 25.7548 9.95121C25.9855 10.1437 26.1572 10.3965 26.2506 10.6808C26.3439 10.9651 26.3552 11.2696 26.2832 11.56C26.2111 11.8503 26.0585 12.1148 25.8427 12.3236L21.4244 16.5956L22.4671 22.6245C22.5178 22.9191 22.4844 23.2218 22.3707 23.4985C22.257 23.7753 22.0676 24.0149 21.8238 24.1905C21.58 24.366 21.2915 24.4704 20.991 24.4919C20.6906 24.5133 20.39 24.451 20.1234 24.312L14.6642 21.4675L9.20507 24.3155C8.93813 24.4549 8.63717 24.5173 8.33629 24.4957C8.03541 24.4742 7.74663 24.3694 7.50268 24.1934C7.25873 24.0174 7.06935 23.7772 6.956 23.4999C6.84265 23.2226 6.80985 22.9193 6.86134 22.6245L7.9022 16.5956L3.4875 12.3254C3.27175 12.1167 3.11917 11.8523 3.047 11.5621C2.97483 11.2719 2.98596 10.9675 3.07912 10.6832C3.17229 10.399 3.34378 10.1462 3.5742 9.95357C3.80462 9.76093 4.08478 9.63607 4.38301 9.59311L10.4846 8.71379L13.216 3.22782V3.22604Z" fill="#121212"/>
</svg>
