<svg width="6" height="3" viewBox="0 0 6 3" fill="none" xmlns="http://www.w3.org/2000/svg">
<path d="M0.797994 1.49673C0.557586 1.62618 0.64433 1.97222 0.820299 2.10665C0.864911 2.14151 0.916959 2.16392 0.969006 2.16143C1.69767 2.16143 2.42385 2.05936 3.17977 1.97472C3.44001 1.94484 3.75725 1.91745 4.06953 1.86019C4.43882 1.79297 4.80067 1.68344 5.04604 1.47431C5.32858 1.23532 5.2567 0.772256 4.9122 0.632841C4.35455 0.411271 3.52923 0.687613 2.97159 0.836987C2.51308 0.958975 2.06448 1.09092 1.62084 1.22785C1.36556 1.30503 1.11276 1.38468 0.859955 1.46684C0.83517 1.4768 0.815343 1.48677 0.797994 1.49673Z" fill="#231F20"/>
</svg>
