<svg width="2" height="4" viewBox="0 0 2 4" fill="none" xmlns="http://www.w3.org/2000/svg">
<path d="M0.46077 1.05954C0.46077 1.06452 0.460765 1.06701 0.463243 1.07199C0.562381 1.88358 0.681347 2.69766 0.797834 3.48187L0.800315 3.49683C0.817664 3.48687 0.837489 3.4769 0.859795 3.47192C1.11259 3.38977 1.36788 3.31009 1.62068 3.23292C1.53641 2.69268 1.47197 2.13254 1.41001 1.58982C1.41001 1.58982 1.34805 1.05954 1.33566 0.949999C1.33566 0.94502 1.33566 0.942533 1.33566 0.937554C1.30839 0.706026 1.27865 0.472008 1.24643 0.23799C0.953974 0.240479 0.664 0.240482 0.374023 0.240482C0.396329 0.499396 0.426072 0.770752 0.46077 1.05954Z" fill="#F4BFD9"/>
</svg>
