<svg width="19" height="12" viewBox="0 0 19 12" fill="none" xmlns="http://www.w3.org/2000/svg">
<path d="M0.927734 11.7228C6.80906 11.8373 12.7251 12.1037 18.6039 11.7726C18.1231 8.27228 17.6373 4.52301 15.89 1.41106C15.6422 0.967922 15.3473 0.559631 15.0226 0.178729C14.6954 0.440133 14.3509 0.676635 13.9866 0.888247C13.5454 1.14218 13.082 1.35878 12.6111 1.53554C12.5194 1.57039 12.4277 1.60276 12.336 1.63264C11.642 1.86915 10.9183 2.03097 10.1797 2.11561C9.19083 2.22764 8.18459 2.19527 7.21552 1.9961C6.48191 1.84673 5.76812 1.60027 5.10142 1.25422C4.75692 1.07497 4.43968 0.868336 4.14475 0.644276C3.9663 0.890741 3.79528 1.14468 3.63666 1.41106C1.84475 4.43338 1.39616 8.27228 0.927734 11.7228Z" fill="#F1635D"/>
</svg>
