<svg width="19" height="24" viewBox="0 0 19 24" fill="none" xmlns="http://www.w3.org/2000/svg">
<path d="M18.9074 23.4169C17.0288 22.7724 14.8419 18.8746 13.2407 16.0206C12.3781 14.4554 11.639 13.1969 11.1153 12.6446C13.8255 11.5705 15.4581 9.36082 15.4581 6.75187C15.4581 2.73151 12.3472 0.122559 7.57351 0.122559C7.23469 0.122559 6.71097 0.122559 6.12577 0.1534C5.44853 0.184242 4.70939 0.184242 4.18568 0.184242C2.76889 0.184242 2.15274 0.184242 1.04423 0.122559H0.859345V0.613994L1.01328 0.64443C2.09124 0.797826 2.43007 1.22758 2.43007 3.40678V20.7162C2.43007 23.2326 2.02975 23.2943 0.951791 23.4781L0.797852 23.509V24H0.982736C1.62943 23.9692 2.55346 23.9387 3.8159 23.9387C5.14025 23.9387 6.24917 23.9692 6.64948 24H6.83437V23.509L6.68043 23.4781C5.60246 23.2943 5.20215 23.2326 5.20215 20.7162V13.4425H7.1117C7.5559 13.4404 7.99906 13.3994 8.43604 13.3199C8.9903 13.8722 9.63699 15.0998 10.0373 15.8363C10.1298 15.9897 10.1912 16.1431 10.2531 16.2352C14.1028 23.4477 14.5341 23.8775 18.0143 24C18.2919 24.007 18.5696 23.9967 18.8459 23.9692L18.9998 23.9387V23.4781L18.9074 23.4169ZM5.20215 1.44225C5.91318 1.2426 6.65009 1.14959 7.38862 1.1663C10.4071 1.1663 12.3781 3.4989 12.3781 7.12035C12.3781 10.7418 10.592 12.3683 6.58799 12.3683H5.20215V1.44225Z" fill="#990000"/>
</svg>
