<svg width="19" height="24" viewBox="0 0 19 24" fill="none" xmlns="http://www.w3.org/2000/svg">
<path d="M18.7896 0H18.5432C17.003 0.0308416 8.93397 0.153396 1.66555 0H1.51162L1.48067 0.122555C1.32673 0.705703 1.20334 1.22758 1.0494 1.71861C0.864514 2.3326 0.710576 2.8849 0.587589 3.49889L0.556641 3.71357H1.0494L1.11089 3.62145C2.03492 1.68776 3.39021 1.65733 8.41026 1.65733V20.6853C8.41026 23.2326 8.00994 23.2943 6.93198 23.4477L6.77804 23.4781V23.9692H6.96293C7.60963 23.9387 8.53366 23.9079 9.76556 23.9079C11.0899 23.9079 12.1679 23.9387 12.5682 23.9692H12.7531V23.4781L12.5991 23.4477C11.5212 23.2635 11.1204 23.2022 11.1204 20.6853V1.65733C16.6646 1.65733 17.4652 1.872 17.4652 2.67023C17.4643 2.81546 17.4436 2.95989 17.4037 3.09958L17.3418 3.31466H17.8965L17.927 3.16126C18.0195 2.67023 18.3893 1.10502 18.6662 0.214673L18.7896 0Z" fill="#990000"/>
</svg>
