<svg width="10" height="16" viewBox="0 0 10 16" fill="none" xmlns="http://www.w3.org/2000/svg">
<path d="M7.91628 1.65776C6.81834 0.888483 5.57416 0.502598 4.18376 0.502598C2.74626 0.502598 1.82429 0.913378 1.4203 1.73493C1.09811 2.36728 0.934529 3.63446 0.934529 5.53151C0.934529 5.53151 0.922138 7.30905 0.897354 7.5829C0.880005 9.49737 0.741211 12.5296 0.741211 12.7512C0.741211 13.1944 0.813087 13.6051 0.959314 13.9835C1.24929 14.718 1.66815 15.0864 2.21588 15.0864C2.50586 15.0864 2.7537 14.9246 2.96437 14.601C3.12547 14.3445 3.20478 13.9362 3.20478 13.3736C3.20478 13.4259 3.15273 12.8035 3.06846 11.5064C3.01394 10.65 3.06598 9.42765 3.06598 9.42765C3.42288 9.465 3.76738 9.48243 4.18624 9.48243C5.30153 9.48243 6.17394 9.38036 6.80346 9.17373C7.67587 8.88494 8.38967 8.35466 8.94731 7.5829C9.50496 6.81362 9.78255 5.94974 9.78255 4.99375C9.78255 3.6245 9.16046 2.51167 7.91628 1.65776ZM6.66715 6.37298C6.23095 6.70907 5.72287 6.91818 5.14291 7.00532C4.7885 7.0576 4.14163 7.02275 3.20726 6.90325C3.16017 5.70827 3.15273 5.17051 3.25187 4.04523C3.294 3.46766 3.59885 3.14401 3.94583 3.13903C4.2705 3.11413 4.22837 3.11664 4.4663 3.13655C6.02276 3.26601 6.88525 3.60209 7.2248 4.52821C7.28924 4.73484 7.32146 4.93152 7.32146 5.12072C7.31898 5.62112 7.10335 6.03689 6.66715 6.37298Z" fill="#DB87B9"/>
</svg>
