<svg width="14" height="18" viewBox="0 0 14 18" fill="none" xmlns="http://www.w3.org/2000/svg">
<path d="M10.1862 14.3619C9.77234 14.0931 9.29401 13.9163 8.80575 13.8466C10.3399 11.9048 10.6001 8.50153 10.6001 7.07501C10.6001 5.72567 10.3548 4.3838 9.86156 3.4776C9.23204 2.31498 8.60995 1.73989 7.9953 1.3316C7.19477 0.818754 6.26784 0.562338 5.21202 0.562338C4.15621 0.562338 3.19457 0.818754 2.32712 1.3316C1.39027 1.8793 0.75332 2.61372 0.411296 3.53734C0.208064 4.06762 0.106445 4.63276 0.106445 5.23026C0.106445 6.42773 0.480689 7.44595 1.22918 8.28244C2.04706 9.18864 3.11031 9.62431 4.4214 9.59195C5.6978 9.5571 6.88001 9.11644 7.97052 8.2675C7.93582 10.5255 7.21212 11.7803 6.13152 12.5769C5.24672 13.2292 4.59985 12.2931 4.44619 12.1413C3.98768 11.6956 3.45977 11.4741 2.86246 11.4741C2.07928 11.4741 1.74717 11.8823 1.86614 12.7014C2.00245 13.503 2.39404 14.1578 3.04091 14.6707C3.68778 15.181 4.67668 15.5793 5.35825 15.5793C6.2951 15.5793 6.99154 15.3752 8.03 14.6109L8.03248 14.6084C8.44638 14.5885 8.87267 14.6632 9.25435 14.83C8.46125 15.4399 8.00274 16.4631 8.74875 17.4141C9.91609 18.8979 11.9236 17.1005 11.247 15.5694C11.2049 15.4723 11.1578 15.3827 11.1033 15.293C11.7848 15.3677 12.392 15.7984 12.4565 16.5926C12.5184 17.3295 13.5445 17.2449 13.4627 16.5079C13.2818 14.9121 11.7253 13.9437 10.1862 14.3619ZM7.43765 5.43937C7.34595 6.27088 6.39919 7.30406 4.58993 7.08C3.99511 7.00531 3.55643 6.79867 3.17475 6.40781C2.79307 6.01695 2.64189 5.41697 2.6865 4.91159C2.75837 4.11493 3.06074 3.65436 3.99263 3.24856C4.88487 2.8577 5.7077 3.00708 6.10425 3.10915C7.2369 3.40292 7.5467 4.4311 7.43765 5.43937ZM10.4465 16.2191C10.4043 16.488 10.0103 16.9262 9.73021 16.8739C9.37083 16.8042 9.15521 16.1594 9.61125 15.7461C9.75747 15.6117 9.93096 15.5096 10.1168 15.4325C10.325 15.654 10.4936 15.9279 10.4465 16.2191Z" fill="#DB87B9"/>
</svg>
