<svg width="7" height="4" viewBox="0 0 7 4" fill="none" xmlns="http://www.w3.org/2000/svg">
<path d="M1.74914 1.18825L2.57446 1.52932L2.65377 1.56665C2.65377 1.56665 2.68103 1.57911 2.70086 1.58658C2.70334 1.58907 2.70582 1.58907 2.70829 1.59156C2.70829 1.59156 4.30937 2.33345 4.30937 2.33593C4.3168 2.33842 4.32176 2.33841 4.32919 2.3409C4.33415 2.34837 4.33663 2.35336 4.34158 2.36082L4.40354 2.47286L4.53738 2.88612C4.57951 3.03798 4.62412 3.19732 4.69104 3.34669C4.76044 3.50354 4.91162 3.57075 5.07768 3.51349C5.21647 3.46619 5.34535 3.33425 5.34535 3.16496C5.34535 3.14007 5.34287 3.11268 5.33544 3.08529C5.30817 2.96331 5.26852 2.83384 5.21895 2.68945L5.78403 3.15998L5.93274 3.28695C6.11615 3.44379 6.32434 3.38902 6.43834 3.27201C6.54987 3.15749 6.59944 2.95335 6.4433 2.7741C6.14341 2.43054 5.76669 2.17163 5.34535 1.90275C5.42466 1.87786 5.50397 1.85545 5.5808 1.83802L5.94761 1.79321L6.27972 1.75337C6.47552 1.71852 6.56226 1.52932 6.55978 1.36999C6.55483 1.18327 6.44329 1.04136 6.27724 1.01895C5.81129 0.954221 5.15699 1.19073 4.71335 1.45462C4.67369 1.47703 4.63652 1.50193 4.60182 1.52434C4.09374 1.25297 3.56335 1.00153 3.02553 0.782454H3.02306C3.02306 0.782454 3.02058 0.782451 3.02058 0.779962C2.19774 0.443871 1.42942 0.207357 0.728027 0.0729208C0.871777 0.354241 1.00313 0.643037 1.12705 0.936805C1.33524 1.02394 1.54343 1.1061 1.74914 1.18825Z" fill="#F4BFD9"/>
</svg>
