<svg width="3" height="4" viewBox="0 0 3 4" fill="none" xmlns="http://www.w3.org/2000/svg">
<path d="M1.07452 0.855353C1.07204 0.860332 1.07204 0.86531 1.06956 0.870289C0.888634 1.66197 0.72506 2.46361 0.568919 3.23786L0.563965 3.26524C0.583792 3.26275 0.606096 3.26028 0.63088 3.26277C0.896072 3.27272 1.16127 3.28516 1.42894 3.29761C1.53303 2.75986 1.6619 2.21216 1.7883 1.6794C1.7883 1.6794 1.91223 1.1566 1.93454 1.05204C1.93454 1.04706 1.93701 1.04456 1.93701 1.04207C2.00145 0.768218 2.06342 0.484407 2.12042 0.200598C1.82549 0.193129 1.53055 0.185669 1.23809 0.1782C1.18357 0.394792 1.12905 0.618845 1.07452 0.855353Z" fill="#F4BFD9"/>
</svg>
