<svg width="6" height="6" viewBox="0 0 6 6" fill="none" xmlns="http://www.w3.org/2000/svg">
<path d="M4.79565 4.76625C5.58379 3.95715 5.29381 2.69246 4.68164 1.86344C3.83649 0.715752 2.68154 0.441901 1.33575 0.55642C1.3184 0.578826 1.29857 0.601235 1.27131 0.621151C0.21302 1.36304 1.03834 3.36215 1.58855 4.16379C2.31969 5.22683 3.7324 5.85917 4.79565 4.76625ZM3.74479 2.06758C4.46849 1.97796 4.47593 3.35718 3.65805 3.14307C3.12766 3.00366 3.2144 2.13231 3.74479 2.06758ZM2.21064 2.46591C2.93434 2.37628 2.94178 3.7555 2.12389 3.5414C1.59351 3.40198 1.68026 2.53063 2.21064 2.46591Z" fill="#F4BFD9"/>
</svg>
