<svg width="8" height="4" viewBox="0 0 8 4" fill="none" xmlns="http://www.w3.org/2000/svg">
<path d="M7.2226 0.267268C7.18047 0.137811 7.0392 0.0183113 6.86571 0.0481861C6.85331 0.0506756 6.84092 0.0531573 6.82853 0.0556467C6.10979 0.185104 5.31668 0.426594 4.46658 0.775132C4.46658 0.775132 4.4641 0.775135 4.4641 0.777624C3.91885 1.00168 3.3835 1.25313 2.88286 1.522C2.84816 1.49959 2.81099 1.4747 2.76885 1.44981C2.32521 1.18591 1.66843 0.949407 1.20496 1.01414C1.03891 1.03654 0.927373 1.17844 0.922416 1.36516C0.919938 1.52449 1.00421 1.7137 1.20248 1.74856L1.53459 1.78838L1.89892 1.83319C1.97575 1.85062 2.05506 1.87303 2.13685 1.89792C1.71304 2.1668 1.33879 2.42571 1.0389 2.76927C0.882762 2.94852 0.932328 3.15266 1.04386 3.26718C1.15787 3.38419 1.36606 3.43896 1.54946 3.28212L1.69817 3.15515C1.69817 3.15515 2.03523 2.87382 2.26325 2.68462C2.21864 2.8091 2.17898 2.94354 2.14676 3.08046C2.14181 3.10785 2.13685 3.13275 2.13685 3.16013C2.13685 3.32942 2.26325 3.46136 2.40452 3.50866C2.57058 3.56343 2.72176 3.49871 2.79116 3.34186C2.85808 3.19249 2.90269 3.03317 2.94482 2.8813L3.07866 2.46803L3.14062 2.35601C3.14558 2.34854 3.15053 2.34356 3.15301 2.33609C3.16044 2.3336 3.16788 2.33359 3.17531 2.32861C3.17531 2.32861 4.77143 1.58673 4.77391 1.58673C4.77391 1.58673 4.77638 1.58673 4.77638 1.58424L4.91022 1.52449L5.73554 1.18592C5.97099 1.0938 6.20892 0.996701 6.44437 0.897118C6.66247 0.802515 6.87809 0.705432 7.08628 0.595891C7.21268 0.531163 7.26721 0.401704 7.2226 0.267268Z" fill="#F4BFD9"/>
</svg>
