<svg width="16" height="16" viewBox="0 0 16 16" fill="none" xmlns="http://www.w3.org/2000/svg">
<path d="M7.1712 1.84342C7.24743 1.69027 7.36533 1.56134 7.51157 1.47118C7.65782 1.38103 7.82657 1.33325 7.99876 1.33325C8.17095 1.33325 8.33971 1.38103 8.48595 1.47118C8.63219 1.56134 8.7501 1.69027 8.82633 1.84342L10.3861 4.97826L13.8737 5.48073C14.0442 5.50512 14.2045 5.57635 14.3363 5.68637C14.4681 5.79639 14.5662 5.9408 14.6195 6.10326C14.6729 6.26572 14.6793 6.43975 14.6382 6.60566C14.597 6.77157 14.5098 6.92273 14.3865 7.04205L11.8617 9.48319L12.4576 12.9283C12.4865 13.0966 12.4674 13.2696 12.4025 13.4277C12.3375 13.5858 12.2292 13.7228 12.0899 13.8231C11.9506 13.9234 11.7858 13.983 11.6141 13.9953C11.4424 14.0076 11.2706 13.972 11.1183 13.8925L7.99876 12.2671L4.87925 13.8946C4.72671 13.9742 4.55473 14.0099 4.3828 13.9975C4.21087 13.9852 4.04586 13.9254 3.90646 13.8248C3.76706 13.7242 3.65884 13.5869 3.59407 13.4285C3.52929 13.27 3.51056 13.0967 3.53997 12.9283L4.13475 9.48319L1.61207 7.04306C1.48878 6.92381 1.40159 6.77273 1.36035 6.6069C1.31911 6.44107 1.32547 6.2671 1.37871 6.10466C1.43195 5.94222 1.52994 5.7978 1.66161 5.68772C1.79328 5.57764 1.95337 5.50629 2.12378 5.48174L5.61042 4.97927L7.1712 1.84443V1.84342Z" fill="#121212"/>
</svg>
