<svg width="16" height="22" viewBox="0 0 16 22" fill="none" xmlns="http://www.w3.org/2000/svg">
<path d="M13.09 5.76005L14.62 3.09346C15.07 2.31005 14.8 1.31573 14.02 0.863765C13.645 0.652848 13.195 0.592587 12.79 0.698046C12.37 0.803504 12.025 1.08975 11.8 1.45132L10.27 4.11791C7.00003 3.07839 3.34003 4.41923 1.55503 7.52272C0.460029 9.40591 0.250028 11.6808 0.970028 13.7448L3.80503 8.83342C4.45003 7.7035 5.51503 6.88997 6.76003 6.55853C8.00503 6.22708 9.34003 6.3928 10.465 7.04062C12.79 8.38145 13.6 11.3795 12.25 13.7146C10.9 16.0498 7.91503 16.8483 5.59003 15.5074L7.21003 12.6902C7.58503 12.9011 8.02003 12.9614 8.44003 12.8559C8.86003 12.7504 9.20503 12.4642 9.43003 12.1026C9.88003 11.3192 9.61003 10.3249 8.83003 9.87294C8.45503 9.66202 8.02003 9.60176 7.60003 9.70722C7.18003 9.81267 6.83503 10.0989 6.61003 10.4605L1.42003 19.4546C0.970028 20.238 1.24003 21.2323 2.02003 21.6843C2.39503 21.8952 2.83003 21.9555 3.25003 21.85C3.67003 21.7446 4.01503 21.4583 4.24003 21.0967L5.77003 18.4301C9.04003 19.4697 12.7 18.1288 14.485 15.0253C16.285 11.9218 15.61 8.08014 13.09 5.76005Z" fill="#FE3A2B"/>
</svg>
