<svg width="11" height="10" viewBox="0 0 11 10" fill="none" xmlns="http://www.w3.org/2000/svg">
<path d="M2.49828 2.31655C3.04858 2.92539 4.10737 4.06586 5.67478 5.73819C7.30862 7.43733 8.36725 8.51611 8.84644 8.97424C9.41531 9.51876 9.71259 9.77382 9.73553 9.73788C9.78385 9.73788 9.81509 9.69248 9.8317 9.599C9.83849 9.50125 9.84258 9.26462 9.84258 8.89257L9.86749 1.88872C9.85904 1.53037 9.88802 1.27182 9.9552 1.11227C10.0118 0.953362 10.1329 0.857695 10.3192 0.825688C10.4572 0.804073 10.5559 0.791953 10.61 0.791953C10.7019 0.791953 10.7483 0.763783 10.7483 0.708423C10.7397 0.654855 10.6666 0.629123 10.5283 0.629123C10.2834 0.629123 10.0684 0.632645 9.88183 0.640809C9.69583 0.656433 9.56614 0.664578 9.49458 0.664578C9.2814 0.648778 8.86125 0.6367 8.23108 0.629123C8.06788 0.629123 7.98846 0.65479 7.98846 0.708423C7.98031 0.763753 8.01187 0.791953 8.08282 0.791953C8.22097 0.791953 8.41934 0.81181 8.67676 0.849636C8.87302 0.889519 9.00527 0.989002 9.06823 1.14791C9.12485 1.31518 9.15172 1.59405 9.15172 1.98408L9.2879 8.06239C8.72265 7.45482 7.75023 6.4145 6.36897 4.94175C4.23947 2.68878 2.95227 1.32354 2.50478 0.845872C2.44182 0.770354 2.37298 0.690413 2.29779 0.604816C2.20993 0.515265 2.13852 0.467511 2.08432 0.459946C2.04038 0.459946 2.00672 0.497487 1.98392 0.570938C1.95855 0.656383 1.94829 0.819714 1.94829 1.06076L1.93545 7.90745C1.93545 8.4302 1.91673 8.80683 1.87688 9.03163C1.82479 9.25424 1.72424 9.38397 1.57342 9.42322C1.35843 9.48108 1.19296 9.50489 1.07369 9.49292C1.00666 9.49292 0.973145 9.5178 0.973145 9.56652C0.973145 9.62626 1.03821 9.65639 1.1679 9.65639C1.77678 9.64059 2.16599 9.63055 2.33523 9.62309C2.46945 9.63055 2.89806 9.64059 3.62017 9.65639C3.76209 9.65639 3.83335 9.62631 3.83335 9.56652C3.83335 9.51777 3.8021 9.49292 3.73899 9.49292C3.6016 9.5049 3.39824 9.48105 3.13268 9.42322C2.97763 9.38399 2.86259 9.26272 2.78725 9.05526C2.7098 8.85678 2.66617 8.51833 2.65756 8.03877L2.49828 2.31655Z" fill="#525252"/>
</svg>
