<svg width="11" height="10" viewBox="0 0 11 10" fill="none" xmlns="http://www.w3.org/2000/svg">
<path d="M2.11709 4.66492C2.12491 3.35864 2.46554 2.37868 3.13677 1.72948C3.79169 1.08043 4.63278 0.755392 5.66121 0.755392C6.65221 0.755392 7.50959 1.12553 8.23336 1.86789C8.9597 2.61641 9.33335 3.70515 9.3474 5.14054C9.33958 5.995 9.22073 6.68596 8.98672 7.2163C8.74909 7.75482 8.4482 8.1707 8.08556 8.46345C7.72866 8.75069 7.36556 8.94225 6.99432 9.04361C6.62307 9.15586 6.29123 9.21136 5.99955 9.21136C4.88113 9.20366 3.96094 8.7879 3.24352 7.96481C2.50073 7.15718 2.12494 6.0568 2.11709 4.66492ZM0.967431 4.99581C0.958825 6.12773 1.33022 7.17057 2.08132 8.12072C2.82592 9.12069 4.02345 9.63319 5.67405 9.66504C7.15722 9.64107 8.33376 9.16229 9.20171 8.22602C10.0654 7.30535 10.5013 6.16574 10.5096 4.80334C10.4933 3.40405 10.0402 2.3117 9.14781 1.52771C8.27548 0.749871 7.14046 0.357954 5.74485 0.350071C4.08595 0.391363 2.87634 0.924057 2.11046 1.94515C1.34048 2.94307 0.958825 3.95833 0.967431 4.99581Z" fill="#525252"/>
</svg>
