<svg width="16" height="14" viewBox="0 0 16 14" fill="none" xmlns="http://www.w3.org/2000/svg">
<path fill-rule="evenodd" clip-rule="evenodd" d="M13.9055 11.0959C14.8651 10.4476 16.0533 12.8455 14.4563 13.6226C13.3064 14.244 12.3454 14.0826 11.8003 12.1972L10.5056 6.0736C10.0499 7.44524 9.53748 8.81689 8.82202 10.1885C7.78859 11.8079 6.35909 11.2898 5.74584 10.1885L4.3859 7.07862L4.32061 11.5503C4.14742 13.3805 1.57944 14.3105 1.11525 11.6805C0.795845 8.65835 0.795842 5.69424 2.11887 2.93255C2.79884 2.70606 2.50783 2.09031 2.70231 1.66848C3.23323 0.543142 4.9225 0.514831 5.38953 2.54328L7.23496 7.40278L9.546 2.6183C10.9869 0.354876 13.0353 1.69255 13.0495 5.36725C13.2383 7.2768 13.4086 9.18634 13.9055 11.0959Z" fill="#FE9DE2" stroke="#000200" stroke-width="0.0306625"/>
</svg>
