<svg width="8" height="8" viewBox="0 0 8 8" fill="none" xmlns="http://www.w3.org/2000/svg">
<path fill-rule="evenodd" clip-rule="evenodd" d="M5.165 6.88841C6.61011 8.67198 8.63014 6.68599 7.36673 5.27188C6.89402 4.90951 6.42841 4.52732 5.97699 4.11823C6.26658 3.88892 6.56611 3.66668 6.87557 3.44869C8.62021 2.55974 7.69749 0.116543 5.52557 1.59152L4.42683 2.50736C4.2139 2.24974 4.00806 1.98362 3.81074 1.70476C2.95333 0.235446 0.60396 0.716725 1.74528 2.95042L2.64954 3.99083L1.67857 4.80052C-0.110078 6.24152 1.77935 8.15531 3.19749 6.89408C3.5027 6.49914 3.83061 6.11978 4.17982 5.75175L5.165 6.88841Z" fill="#FE9DE2" stroke="#000200" stroke-width="0.0306625"/>
</svg>
