<svg width="21" height="7" viewBox="0 0 21 7" fill="none" xmlns="http://www.w3.org/2000/svg">
<path fill-rule="evenodd" clip-rule="evenodd" d="M1.57496 5.43564C1.69496 5.76809 2.14496 6.25164 2.68496 6.25164C3.46496 6.25164 3.91496 5.58675 3.91496 4.6952C3.91496 3.81875 3.44996 3.12364 2.68496 3.12364C2.20496 3.12364 1.76996 3.48631 1.57496 3.81875V5.43564ZM1.55996 6.55386C1.55996 6.65964 1.48496 6.7352 1.36496 6.7352H1.13996C1.03496 6.7352 0.959961 6.64453 0.959961 6.53875V0.932529C0.959961 0.826751 1.03496 0.736084 1.15496 0.736084H1.37996C1.49996 0.736084 1.57496 0.81164 1.57496 0.932529V3.0632C1.87496 2.76097 2.26496 2.56453 2.69996 2.56453C3.83996 2.56453 4.52996 3.48631 4.52996 4.68008C4.51496 5.88897 3.80996 6.79564 2.69996 6.79564C2.23496 6.79564 1.79996 6.53875 1.57496 6.22142L1.55996 6.55386ZM5.74496 4.68008C5.74496 5.60186 6.26996 6.23653 7.00496 6.23653C7.73996 6.23653 8.26496 5.60186 8.26496 4.68008C8.26496 3.78853 7.73996 3.13875 7.00496 3.13875C6.26996 3.13875 5.74496 3.78853 5.74496 4.68008ZM5.14496 4.68008C5.14496 3.45608 5.98496 2.56453 6.98996 2.56453C8.00996 2.56453 8.84996 3.45608 8.84996 4.68008C8.84996 5.9192 8.05496 6.81075 6.98996 6.81075C5.93996 6.81075 5.14496 5.9192 5.14496 4.68008ZM10.065 4.68008C10.065 5.60186 10.59 6.23653 11.325 6.23653C12.06 6.23653 12.585 5.60186 12.585 4.68008C12.585 3.78853 12.06 3.13875 11.325 3.13875C10.59 3.13875 10.065 3.78853 10.065 4.68008ZM9.47996 4.68008C9.47996 3.45608 10.32 2.56453 11.325 2.56453C12.345 2.56453 13.185 3.45608 13.185 4.68008C13.185 5.9192 12.39 6.81075 11.325 6.81075C10.275 6.81075 9.47996 5.9192 9.47996 4.68008ZM15.615 4.4232L17.34 6.52364C17.385 6.56897 17.385 6.65964 17.34 6.70497C17.31 6.7352 17.28 6.7352 17.25 6.7352H16.95C16.83 6.7352 16.725 6.67475 16.665 6.5992L15.195 4.81608L14.64 5.32986V6.53875C14.64 6.64453 14.55 6.72009 14.445 6.7352H14.205C14.115 6.7352 14.04 6.64453 14.04 6.53875V0.932529C14.04 0.826751 14.115 0.736084 14.205 0.736084H14.445C14.55 0.736084 14.64 0.826751 14.64 0.932529V4.57431L16.59 2.74586C16.65 2.70053 16.74 2.62497 16.845 2.62497H17.19C17.31 2.62497 17.355 2.77608 17.265 2.85164C17.28 2.86675 15.615 4.4232 15.615 4.4232ZM19.32 6.26675C19.995 6.28186 20.355 5.96453 20.355 5.57164C20.355 5.25431 20.115 5.08808 19.83 5.04275C19.47 4.98231 19.125 4.90675 18.78 4.80097C18.33 4.66497 17.88 4.33253 17.88 3.7432C17.88 3.04809 18.48 2.56453 19.335 2.56453C20.145 2.56453 20.7 3.04808 20.805 3.65253C20.82 3.75831 20.76 3.83386 20.655 3.83386H20.4C20.295 3.83386 20.205 3.77342 20.175 3.66764C20.115 3.41075 19.845 3.09342 19.32 3.09342C18.78 3.09342 18.45 3.35031 18.45 3.7432C18.45 4.03031 18.675 4.21164 18.945 4.27209C19.245 4.34764 19.62 4.4232 19.95 4.49875C20.46 4.60453 20.955 4.92186 20.955 5.58675C20.955 6.26675 20.355 6.82586 19.32 6.82586C18.39 6.82586 17.76 6.28186 17.7 5.54142C17.685 5.43564 17.76 5.36009 17.85 5.36009H18.12C18.24 5.36009 18.315 5.43564 18.315 5.55653C18.345 5.9192 18.735 6.25164 19.32 6.26675Z" fill="#E95220"/>
</svg>
