<svg width="11" height="10" viewBox="0 0 11 10" fill="none" xmlns="http://www.w3.org/2000/svg">
<path d="M7.49439 1.88234L6.4609 0.496022C6.34494 0.341573 6.19642 0.216583 6.02681 0.130623C5.8572 0.0446633 5.6709 0 5.4821 0C5.29331 0 5.10701 0.0446633 4.9374 0.130623C4.76779 0.216583 4.61936 0.341573 4.50341 0.496022L3.46991 1.88234C3.32473 2.07767 3.12906 2.22627 2.90563 2.31088L1.31612 2.90441C1.13465 2.96855 0.970009 3.07544 0.835101 3.21667C0.700193 3.35789 0.598665 3.5296 0.538576 3.71834C0.478487 3.90708 0.461404 4.10766 0.488718 4.30439C0.516032 4.50111 0.587026 4.68858 0.696023 4.8521L1.64686 6.30271C1.77759 6.50687 1.8493 6.74555 1.85356 6.99056L1.90725 8.74113C1.91123 8.93938 1.95946 9.13401 2.04805 9.30976C2.13663 9.48551 2.26323 9.63759 2.41795 9.7542C2.57267 9.87081 2.75124 9.94876 2.93984 9.98192C3.12844 10.0151 3.32188 10.0025 3.50504 9.9453L5.12976 9.45681C5.35719 9.38782 5.59884 9.38782 5.82626 9.45681L7.45099 9.9453C7.63415 10.0025 7.82759 10.0151 8.01619 9.98192C8.20479 9.94876 8.38336 9.87081 8.53808 9.7542C8.6928 9.63759 8.8194 9.48551 8.90798 9.30976C8.99657 9.13401 9.0448 8.93938 9.04878 8.74113L9.10247 6.99056C9.10808 6.74578 9.17968 6.50748 9.30917 6.30271L10.26 4.8521C10.3671 4.68866 10.4367 4.50203 10.4636 4.30643C10.4904 4.11083 10.4739 3.91149 10.415 3.72357C10.3562 3.53565 10.2567 3.36413 10.1242 3.22216C9.99161 3.08019 9.82947 2.97151 9.6502 2.90441L8.05868 2.31088C7.83525 2.22627 7.63958 2.07767 7.49439 1.88234Z" fill="#EC888D"/>
</svg>
