<svg width="9" height="7" viewBox="0 0 9 7" fill="none" xmlns="http://www.w3.org/2000/svg">
<path d="M2.05292 1.41226C2.48093 1.85505 3.30443 2.68448 4.52353 3.90073C5.79429 5.13646 6.61767 5.92103 6.99038 6.25421C7.43283 6.65023 7.66404 6.83573 7.68189 6.80959C7.71947 6.80959 7.74377 6.77657 7.75669 6.70858C7.76197 6.6375 7.76515 6.4654 7.76515 6.19482L7.78452 1.10111C7.77795 0.840495 7.80049 0.652452 7.85275 0.536422C7.89678 0.420849 7.99095 0.351273 8.13586 0.327996C8.24318 0.312276 8.31998 0.303462 8.36202 0.303462C8.43353 0.303462 8.46957 0.282973 8.46957 0.242712C8.46288 0.203753 8.40605 0.185039 8.29849 0.185039C8.10803 0.185039 7.94081 0.187601 7.79568 0.193539C7.65101 0.204902 7.55014 0.210825 7.49448 0.210825C7.32868 0.199334 7.00189 0.190549 6.51176 0.185039C6.38482 0.185039 6.32306 0.203706 6.32306 0.242712C6.31672 0.282952 6.34126 0.303462 6.39645 0.303462C6.50389 0.303462 6.65819 0.317903 6.8584 0.345413C7.01105 0.374418 7.11391 0.44677 7.16288 0.562338C7.20691 0.68399 7.22781 0.886806 7.22781 1.17046L7.33373 5.59105C6.89409 5.14918 6.13776 4.39259 5.06345 3.32149C3.40718 1.68297 2.40602 0.690073 2.05797 0.342675C2.00901 0.287753 1.95546 0.229614 1.89698 0.167362C1.82864 0.102234 1.7731 0.0675035 1.73094 0.0620012C1.69677 0.0620012 1.67059 0.0893044 1.65286 0.142723C1.63313 0.204864 1.62515 0.323651 1.62515 0.498956L1.61516 5.47837C1.61516 5.85855 1.6006 6.13246 1.5696 6.29596C1.52909 6.45785 1.45088 6.5522 1.33358 6.58075C1.16636 6.62283 1.03767 6.64014 0.944904 6.63143C0.892768 6.63143 0.866699 6.64953 0.866699 6.68496C0.866699 6.72841 0.917309 6.75033 1.01818 6.75033C1.49175 6.73884 1.79447 6.73153 1.9261 6.72611C2.03049 6.73153 2.36386 6.73884 2.9255 6.75033C3.03588 6.75033 3.0913 6.72844 3.0913 6.68496C3.0913 6.64951 3.067 6.63143 3.01791 6.63143C2.91106 6.64015 2.75288 6.6228 2.54634 6.58075C2.42574 6.55221 2.33627 6.46402 2.27767 6.31314C2.21743 6.16879 2.18349 5.92264 2.1768 5.57387L2.05292 1.41226Z" fill="#525252"/>
</svg>
