<svg width="51" height="18" viewBox="0 0 51 18" fill="none" xmlns="http://www.w3.org/2000/svg">
<path d="M21.524 7.57842C21.5798 7.72286 21.6915 7.83397 21.8366 7.83397C21.9818 7.83397 22.0935 7.74509 22.1158 7.57842L22.8193 5.52286L23.5228 7.57842C23.5786 7.72286 23.668 7.83397 23.802 7.83397H23.8355C23.9806 7.83397 24.0923 7.74509 24.1146 7.57842L25.0526 5.01175C25.0526 4.97842 25.0861 4.92286 25.0861 4.86731C25.0861 4.72286 24.9745 4.61175 24.807 4.61175C24.6618 4.61175 24.5836 4.70064 24.5501 4.81175L23.8131 6.9562L23.1096 4.84508C23.0538 4.70064 22.9645 4.62286 22.8305 4.62286H22.797C22.6518 4.62286 22.5736 4.71175 22.5178 4.84508L21.8143 6.9562L21.1108 4.84508C21.055 4.70064 20.9656 4.62286 20.8316 4.62286C20.6865 4.62286 20.5525 4.73397 20.5525 4.87842C20.5525 4.93397 20.586 4.96731 20.586 5.02286L21.524 7.57842ZM26.5378 7.83397C27.0515 7.83397 27.3865 7.61175 27.5875 7.41175V7.5562C27.5875 7.70064 27.6991 7.81175 27.8666 7.81175C28.0118 7.81175 28.1235 7.70064 28.1235 7.53397V5.90064C28.1235 5.50064 28.0118 5.20064 27.7885 4.96731C27.5651 4.74509 27.219 4.63397 26.7723 4.63397C26.4038 4.63397 26.0911 4.68953 25.7561 4.83397C25.6668 4.86731 25.5886 4.94509 25.5886 5.0562C25.5886 5.20064 25.7003 5.31175 25.8455 5.31175C25.879 5.31175 25.9013 5.31175 25.9571 5.27842C26.214 5.16731 26.4708 5.11175 26.7165 5.11175C27.1185 5.11175 27.5651 5.2562 27.5651 5.86731V5.90064C27.3418 5.84508 27.085 5.78953 26.683 5.78953C25.8566 5.78953 25.3206 6.18953 25.3206 6.80064C25.3541 7.48953 25.946 7.83397 26.5378 7.83397ZM25.9236 6.81175C25.9236 6.44509 26.2363 6.24509 26.75 6.24509C27.0291 6.24509 27.3195 6.27842 27.5986 6.3562V6.61175C27.5986 7.03397 27.1743 7.36731 26.6383 7.36731C26.2921 7.37842 25.9236 7.21175 25.9236 6.81175ZM29.1508 7.80064C29.296 7.80064 29.43 7.68953 29.43 7.52286V6.51175C29.43 5.7562 29.7985 5.26731 30.4461 5.18953C30.5913 5.1562 30.703 5.04508 30.703 4.91175C30.703 4.74509 30.5913 4.63397 30.4238 4.63397C30.0553 4.63397 29.6645 4.88953 29.43 5.27842V4.91175C29.43 4.74509 29.3183 4.63397 29.1508 4.63397C29.0056 4.63397 28.8716 4.74509 28.8716 4.91175V7.53397C28.8605 7.68953 29.0056 7.80064 29.1508 7.80064ZM33.651 7.17842C33.651 7.03397 33.5393 6.92286 33.3941 6.92286C33.3048 6.92286 33.249 6.9562 33.2266 6.97842C32.9698 7.20064 32.713 7.31175 32.378 7.31175C31.842 7.31175 31.44 6.94508 31.3618 6.37842H33.4835C33.6286 6.37842 33.7403 6.26731 33.7403 6.12286C33.7403 5.33397 33.2266 4.54508 32.2998 4.54508C31.4511 4.54508 30.8035 5.24508 30.8035 6.17842C30.8035 7.11175 31.4846 7.81175 32.3668 7.81175C32.847 7.81175 33.2155 7.66731 33.5616 7.33397C33.6286 7.32286 33.651 7.26731 33.651 7.17842ZM32.3221 5.06731C32.914 5.06731 33.1708 5.54509 33.2266 6.00064H31.3841C31.44 5.4562 31.842 5.06731 32.3221 5.06731ZM36.5431 7.52286C36.5431 7.68953 36.6548 7.80064 36.8223 7.80064C36.9675 7.80064 37.1015 7.68953 37.1015 7.52286V5.8562C37.1015 5.10064 36.6213 4.58953 35.8843 4.58953C35.46 4.58953 35.1473 4.7562 34.8905 5.06731V3.6562C34.8905 3.51175 34.7788 3.37842 34.6113 3.37842C34.4661 3.37842 34.3321 3.48953 34.3321 3.6562V7.52286C34.3321 7.68953 34.4438 7.80064 34.6113 7.80064C34.7788 7.80064 34.8905 7.68953 34.8905 7.52286V6.00064C34.8905 5.46731 35.2255 5.10064 35.7391 5.10064C36.2193 5.10064 36.532 5.41175 36.532 5.97842V7.52286H36.5431ZM40.9316 6.22286C40.9316 5.28953 40.2281 4.58953 39.2901 4.58953C38.3856 4.58953 37.6486 5.28953 37.6486 6.22286C37.6486 7.12286 38.3521 7.83397 39.2678 7.83397C40.1946 7.8562 40.9316 7.12286 40.9316 6.22286ZM40.3621 6.22286C40.3621 6.84509 39.9043 7.32286 39.2901 7.32286C38.6983 7.32286 38.2181 6.84509 38.2181 6.20064C38.2181 5.5562 38.676 5.07842 39.2678 5.07842C39.882 5.10064 40.3621 5.57842 40.3621 6.22286ZM43.6786 7.37842V7.54508C43.6786 7.71175 43.7903 7.82286 43.9578 7.82286C44.103 7.82286 44.237 7.71175 44.237 7.54508V4.92286C44.237 4.7562 44.1253 4.64509 43.9578 4.64509C43.8126 4.64509 43.6786 4.7562 43.6786 4.92286V6.44509C43.6786 6.97842 43.3436 7.34508 42.83 7.34508C42.3498 7.34508 42.0371 7.03397 42.0371 6.50064V4.94509C42.0371 4.80064 41.9255 4.66731 41.758 4.66731C41.5905 4.66731 41.4788 4.77842 41.4788 4.94509V6.61175C41.4788 7.36731 41.959 7.87842 42.696 7.87842C43.0868 7.83397 43.4218 7.68953 43.6786 7.37842ZM44.8735 7.43397C45.2085 7.68953 45.6663 7.83397 46.0683 7.83397C46.7495 7.83397 47.1961 7.43397 47.1961 6.87842C47.1961 6.2562 46.6043 6.08953 46.18 5.97842C45.8115 5.86731 45.443 5.7562 45.443 5.52286C45.443 5.30064 45.6663 5.12286 45.979 5.12286C46.2023 5.12286 46.4926 5.21175 46.7383 5.34508C46.7718 5.34508 46.7941 5.37842 46.85 5.37842C46.9951 5.37842 47.1068 5.26731 47.1068 5.12286C47.1068 5.03397 47.051 4.9562 46.9616 4.90064C46.649 4.73397 46.2805 4.64509 45.9678 4.64509C45.3201 4.64509 44.8958 5.01175 44.8958 5.57842C44.8958 6.20064 45.4876 6.36731 45.9455 6.47842C46.3475 6.58953 46.649 6.70064 46.649 6.9562C46.649 7.21175 46.4256 7.37842 46.0795 7.37842C45.7668 7.37842 45.4541 7.26731 45.1415 7.06731C45.108 7.03397 45.0521 7.01175 44.9963 7.01175C44.8511 7.01175 44.7395 7.12286 44.7395 7.26731C44.7506 7.34508 44.8065 7.41175 44.8735 7.43397ZM50.5908 6.16731C50.5908 5.37842 50.0771 4.58953 49.1168 4.58953C48.2681 4.58953 47.6205 5.28953 47.6205 6.22286C47.6205 7.1562 48.3016 7.8562 49.1838 7.8562C49.664 7.8562 50.0325 7.71175 50.3786 7.37842C50.4345 7.32286 50.468 7.26731 50.468 7.17842C50.468 7.03397 50.3563 6.92286 50.2111 6.92286C50.1218 6.92286 50.066 6.9562 50.0436 6.97842C49.7868 7.20064 49.53 7.31175 49.195 7.31175C48.659 7.31175 48.257 6.94508 48.1788 6.37842H50.3005C50.4791 6.44508 50.5908 6.31175 50.5908 6.16731ZM48.1788 6.00064C48.2681 5.46731 48.6366 5.06731 49.1168 5.06731C49.7086 5.06731 49.9655 5.54509 50.0213 6.00064H48.1788ZM21.9483 11.5229C21.5463 11.4118 21.2113 11.3006 21.2113 11.0451C21.2113 10.8229 21.4346 10.6451 21.7473 10.6451C21.9706 10.6451 22.261 10.734 22.5066 10.8673C22.5401 10.8673 22.5625 10.9006 22.6183 10.9006C22.7635 10.9006 22.8751 10.7895 22.8751 10.6451C22.8751 10.5562 22.8193 10.4784 22.73 10.4229C22.4173 10.2562 22.0488 10.1673 21.7361 10.1673C21.0885 10.1673 20.6641 10.534 20.6641 11.0673C20.6641 11.6895 21.256 11.8562 21.7138 11.9673C22.1158 12.0784 22.4173 12.1895 22.4173 12.4451C22.4173 12.7006 22.194 12.8673 21.8478 12.8673C21.5351 12.8673 21.2225 12.7562 20.9098 12.5562C20.8763 12.5229 20.8205 12.5006 20.7646 12.5006C20.6195 12.5006 20.5078 12.6118 20.5078 12.7562C20.5078 12.8673 20.5636 12.9229 20.6195 12.9562C20.9545 13.2118 21.4123 13.3562 21.8143 13.3562C22.4955 13.3562 22.9421 12.9562 22.9421 12.4006C22.9756 11.834 22.3503 11.634 21.9483 11.5229ZM24.9521 10.734C25.0973 10.734 25.209 10.6229 25.209 10.4784C25.209 10.334 25.0973 10.2229 24.9521 10.2229H24.2151V9.57842C24.2151 9.43397 24.07 9.30064 23.936 9.30064C23.802 9.30064 23.6568 9.41175 23.6568 9.57842V10.2229H23.4558C23.3106 10.2229 23.199 10.334 23.199 10.4784C23.199 10.6229 23.3106 10.734 23.4558 10.734H23.6568V12.5118C23.6568 13.1006 23.9695 13.4118 24.5613 13.4118C24.7288 13.4118 24.874 13.3784 25.0191 13.3229C25.1308 13.2895 25.1866 13.2118 25.1866 13.1006C25.1866 12.9562 25.075 12.8451 24.9298 12.8451C24.8963 12.8451 24.8963 12.8451 24.874 12.8451C24.8181 12.8451 24.7623 12.8784 24.6506 12.8784C24.338 12.8784 24.1928 12.734 24.1928 12.4229V10.7006L24.9521 10.734ZM26.9621 10.2006C26.5936 10.2006 26.281 10.2562 25.946 10.4006C25.8566 10.434 25.8008 10.5118 25.8008 10.6229C25.8008 10.7673 25.9125 10.8784 26.0576 10.8784C26.0911 10.8784 26.1135 10.8784 26.1693 10.8451C26.4261 10.734 26.683 10.6784 26.9286 10.6784C27.3306 10.6784 27.7773 10.8229 27.7773 11.434V11.4673C27.554 11.4118 27.2971 11.3562 26.8951 11.3562C26.0688 11.3562 25.5328 11.7562 25.5328 12.3673C25.5328 13.0118 26.1246 13.3562 26.7276 13.3562C27.2413 13.3562 27.5763 13.134 27.7773 12.934V13.0784C27.7773 13.2229 27.889 13.334 28.0341 13.334C28.1793 13.334 28.291 13.2229 28.291 13.0562V11.3895C28.291 10.9895 28.1793 10.6895 27.9783 10.4562C27.755 10.3118 27.42 10.2006 26.9621 10.2006ZM27.7885 12.1673C27.7885 12.5895 27.3641 12.9229 26.8281 12.9229C26.4931 12.9229 26.1246 12.7562 26.1246 12.3895C26.1246 12.0229 26.4373 11.8229 26.951 11.8229C27.2301 11.8229 27.5205 11.8562 27.7996 11.934V12.1673H27.7885ZM30.4461 10.734C30.5913 10.734 30.703 10.6229 30.703 10.4784C30.703 10.334 30.5913 10.2229 30.4461 10.2229H29.7091V9.57842C29.7091 9.43397 29.564 9.30064 29.43 9.30064C29.2848 9.30064 29.1508 9.41175 29.1508 9.57842V10.2229H28.9498C28.8046 10.2229 28.693 10.334 28.693 10.4784C28.693 10.6229 28.8046 10.734 28.9498 10.734H29.1508V12.5118C29.1508 13.1006 29.4635 13.4118 30.0553 13.4118C30.2228 13.4118 30.368 13.3784 30.5131 13.3229C30.6248 13.2895 30.6806 13.2118 30.6806 13.1006C30.6806 12.9562 30.569 12.8451 30.4238 12.8451C30.3903 12.8451 30.3903 12.8451 30.368 12.8451C30.3121 12.8451 30.2563 12.8784 30.1446 12.8784C29.832 12.8784 29.6868 12.734 29.6868 12.4229V10.7006L30.4461 10.734ZM31.5851 10.2006C31.44 10.2006 31.306 10.3118 31.306 10.4784V13.1006C31.306 13.2673 31.4176 13.3784 31.5851 13.3784C31.7526 13.3784 31.8643 13.2673 31.8643 13.1006V10.4784C31.8643 10.3118 31.7526 10.2006 31.5851 10.2006ZM31.5851 9.04508C31.4176 9.04508 31.2725 9.1562 31.2725 9.32286V9.41175C31.2725 9.57842 31.4176 9.68953 31.5851 9.68953C31.7526 9.68953 31.8978 9.57842 31.8978 9.41175V9.32286C31.8978 9.1562 31.7861 9.04508 31.5851 9.04508ZM34.1311 10.1673C33.2266 10.1673 32.4896 10.8673 32.4896 11.8006C32.4896 12.7006 33.1931 13.4118 34.1088 13.4118C35.0245 13.4118 35.7503 12.7118 35.7503 11.7784C35.7726 10.8784 35.0691 10.1673 34.1311 10.1673ZM35.2143 11.8006C35.2143 12.4229 34.7565 12.9006 34.1423 12.9006C33.5505 12.9006 33.0703 12.4229 33.0703 11.7784C33.0703 11.134 33.5281 10.6562 34.12 10.6562C34.723 10.6784 35.2143 11.1562 35.2143 11.8006ZM37.9055 10.1673C37.4811 10.1673 37.1685 10.334 36.9116 10.6451V10.4784C36.9116 10.3118 36.8 10.2006 36.6325 10.2006C36.4873 10.2006 36.3533 10.3118 36.3533 10.4784V13.1006C36.3533 13.2673 36.465 13.3784 36.6325 13.3784C36.8 13.3784 36.9116 13.2673 36.9116 13.1006V11.5784C36.9116 11.0451 37.2466 10.6784 37.7603 10.6784C38.2405 10.6784 38.5531 10.9895 38.5531 11.5229V13.0784C38.5531 13.2451 38.6648 13.3562 38.8323 13.3562C38.9775 13.3562 39.1115 13.2451 39.1115 13.0784V11.4118C39.1226 10.6451 38.6425 10.1673 37.9055 10.1673ZM41.1885 10.1673C40.3398 10.1673 39.6921 10.8673 39.6921 11.7784C39.6921 12.7118 40.3733 13.4118 41.2555 13.4118C41.7356 13.4118 42.1041 13.2673 42.4503 12.934C42.5061 12.8784 42.5396 12.8229 42.5396 12.734C42.5396 12.5895 42.428 12.4784 42.2828 12.4784C42.1935 12.4784 42.1376 12.5118 42.1153 12.534C41.8585 12.7562 41.6016 12.8673 41.2666 12.8673C40.7306 12.8673 40.3286 12.5006 40.2505 11.934H42.3721C42.5173 11.934 42.629 11.8229 42.629 11.6784C42.629 10.9562 42.1265 10.1673 41.1885 10.1673ZM40.2505 11.5784C40.3398 11.0451 40.7083 10.6451 41.1885 10.6451C41.7803 10.6451 42.0371 11.1229 42.093 11.5784H40.2505ZM44.7506 10.2006C44.3821 10.2006 43.9913 10.4562 43.7568 10.8451V10.4784C43.7568 10.3118 43.6451 10.2006 43.4776 10.2006C43.3325 10.2006 43.1985 10.3118 43.1985 10.4784V13.1006C43.1985 13.2673 43.3101 13.3784 43.4776 13.3784C43.6228 13.3784 43.7568 13.2673 43.7568 13.1006V12.0895C43.7568 11.334 44.1253 10.8451 44.773 10.7673C44.9181 10.734 45.0298 10.6229 45.0298 10.4895C45.041 10.3118 44.9293 10.2006 44.7506 10.2006ZM47.9555 10.2006C47.8661 10.2006 47.7545 10.234 47.6986 10.4006L46.7941 12.6562L45.8003 10.4006C45.7445 10.2562 45.6551 10.2006 45.5211 10.2006C45.3536 10.2006 45.242 10.3118 45.242 10.4784C45.242 10.534 45.242 10.5673 45.2755 10.6229L46.5261 13.2673V13.3006C46.3586 13.6673 46.2135 13.8118 45.9566 13.8118C45.8115 13.8118 45.7333 13.7784 45.644 13.7562C45.6105 13.7562 45.5546 13.7229 45.4988 13.7229C45.3536 13.7229 45.242 13.834 45.242 13.9784C45.242 14.0895 45.2978 14.1784 45.4095 14.234C45.5546 14.2895 45.6886 14.3229 45.9231 14.3229C46.4033 14.3229 46.716 14.0673 46.9951 13.4451L48.19 10.6229C48.19 10.5895 48.2235 10.534 48.2235 10.5118C48.2346 10.3118 48.1006 10.2006 47.9555 10.2006Z" fill="black"/>
<path d="M9.15132 0.27832C4.28265 0.27832 0.34082 4.20054 0.34082 9.04499C0.34082 13.8894 4.28265 17.8117 9.15132 17.8117C14.02 17.8117 17.9618 13.8894 17.9618 9.04499C17.9618 4.18943 14.02 0.27832 9.15132 0.27832Z" fill="white" stroke="black" stroke-width="0.333333" stroke-miterlimit="10"/>
<path d="M7.08546 13.4897C7.08546 13.2342 6.88446 13.012 6.62763 13.012C6.37079 13.012 6.14746 13.212 6.14746 13.4897C6.14746 13.7453 6.34846 13.9453 6.62763 13.9453C6.85096 13.9453 7.08546 13.7453 7.08546 13.4897Z" fill="#777777"/>
<path d="M8.78273 13.4897C8.78273 13.2342 8.58173 13.012 8.30256 13.012C8.04573 13.012 7.84473 13.212 7.84473 13.4897C7.84473 13.7453 8.04573 13.9453 8.30256 13.9453C8.55939 13.9453 8.78273 13.7453 8.78273 13.4897Z" fill="#999999"/>
<path d="M10.4804 13.4897C10.4804 13.2342 10.2794 13.012 10.0002 13.012C9.72102 13.012 9.52002 13.212 9.52002 13.4897C9.52002 13.7453 9.72102 13.9453 10.0002 13.9453C10.2794 13.9453 10.4804 13.7453 10.4804 13.4897Z" fill="#BBBBBA"/>
<path d="M12.1553 13.4897C12.1553 13.2342 11.9543 13.012 11.6751 13.012C11.4183 13.012 11.2173 13.212 11.2173 13.4897C11.2173 13.7453 11.4183 13.9453 11.6751 13.9453C11.9543 13.9453 12.1553 13.7453 12.1553 13.4897Z" fill="#E5E4E4"/>
<path d="M10.625 7.15637L9.29622 10.8786C9.12872 11.3341 8.83838 11.523 8.46988 11.523H8.41405C8.04555 11.523 7.76638 11.323 7.62122 10.9008L6.79488 8.27859L5.94622 10.9008C5.80105 11.323 5.48838 11.523 5.15338 11.523H5.09755C4.72905 11.523 4.44988 11.323 4.27122 10.8786L2.99822 7.21192C2.96472 7.12304 2.94238 6.9897 2.94238 6.84526C2.94238 6.51192 3.22155 6.16748 3.64588 6.16748C4.01438 6.16748 4.27122 6.3897 4.34938 6.73415L5.14222 9.37859L5.96855 6.75637C6.08022 6.42304 6.33705 6.16748 6.72788 6.16748H6.81722C7.18572 6.16748 7.46488 6.42304 7.57655 6.75637L8.40288 9.40081L9.22922 6.75637C9.31855 6.44526 9.54188 6.1897 9.93272 6.1897C10.3235 6.1897 10.6139 6.50081 10.6139 6.86748C10.6809 6.95637 10.6474 7.10081 10.625 7.15637Z" fill="#333333"/>
<path d="M15.0356 9.85637C15.0356 11.0119 14.1535 11.5453 13.0256 11.5453C12.378 11.5453 11.6968 11.3453 11.038 10.9564C10.8705 10.8675 10.7588 10.6786 10.7588 10.4453C10.7588 10.1119 11.0156 9.85637 11.3506 9.85637C11.4623 9.85637 11.574 9.88971 11.6298 9.94526C12.1435 10.2564 12.6236 10.423 13.048 10.423C13.4723 10.423 13.6733 10.2786 13.6733 10.023V9.98971C13.6733 9.6786 13.1596 9.56748 12.6013 9.40082C11.8643 9.20082 11.038 8.83415 11.038 7.84526V7.81193C11.038 6.74526 11.8866 6.14526 12.9363 6.14526C13.4723 6.14526 14.0418 6.28971 14.5555 6.54526C14.7788 6.65637 14.8905 6.85637 14.8905 7.11193C14.8905 7.44526 14.6336 7.70082 14.2986 7.70082C14.187 7.70082 14.1311 7.66749 14.0195 7.64526C13.5951 7.44526 13.1931 7.31193 12.8916 7.31193C12.5231 7.31193 12.3556 7.45637 12.3556 7.6786V7.71193C12.3556 7.98971 12.8693 8.13415 13.4276 8.33415C14.187 8.53415 15.0356 8.86749 15.0356 9.85637Z" fill="#333333"/>
</svg>
