<svg width="18" height="12" viewBox="0 0 18 12" fill="none" xmlns="http://www.w3.org/2000/svg">
<path fill-rule="evenodd" clip-rule="evenodd" d="M16.6665 0.666748H15.6665C15.1142 0.666748 14.6665 1.11446 14.6665 1.66675V10.3334C14.6665 10.8857 15.1142 11.3334 15.6665 11.3334H16.6665C17.2188 11.3334 17.6665 10.8857 17.6665 10.3334V1.66675C17.6665 1.11446 17.2188 0.666748 16.6665 0.666748ZM10.9998 3.00008H11.9998C12.5521 3.00008 12.9998 3.4478 12.9998 4.00008V10.3334C12.9998 10.8857 12.5521 11.3334 11.9998 11.3334H10.9998C10.4476 11.3334 9.99984 10.8857 9.99984 10.3334V4.00008C9.99984 3.4478 10.4476 3.00008 10.9998 3.00008ZM7.33317 5.33341H6.33317C5.78089 5.33341 5.33317 5.78113 5.33317 6.33341V10.3334C5.33317 10.8857 5.78089 11.3334 6.33317 11.3334H7.33317C7.88546 11.3334 8.33317 10.8857 8.33317 10.3334V6.33341C8.33317 5.78113 7.88546 5.33341 7.33317 5.33341ZM2.6665 7.33341H1.6665C1.11422 7.33341 0.666504 7.78113 0.666504 8.33341V10.3334C0.666504 10.8857 1.11422 11.3334 1.6665 11.3334H2.6665C3.21879 11.3334 3.6665 10.8857 3.6665 10.3334V8.33341C3.6665 7.78113 3.21879 7.33341 2.6665 7.33341Z" fill="#121212"/>
</svg>
