<svg width="11" height="12" viewBox="0 0 11 12" fill="none" xmlns="http://www.w3.org/2000/svg">
<path d="M7.11946 1.64215C7.72908 0.673042 8.91021 0.910756 9.59908 1.62858C10.2879 2.34641 10.3901 3.41936 9.67225 4.10823M9.67225 4.10823C10.1126 5.28036 10.1126 6.57249 9.67225 7.74462C8.54445 10.7135 5.33175 10.4788 5.33175 10.4788C5.33175 10.4788 2.11906 10.7135 0.991257 7.74462C0.551978 6.57229 0.551972 5.28055 0.991251 4.10822M9.67225 4.10823C8.54445 1.13938 5.33175 1.37561 5.33175 1.37561C5.33175 1.37561 2.11905 1.13937 0.991251 4.10822M3.53792 1.64423C2.7759 0.825418 1.70296 0.855918 1.01562 1.57375C0.328268 2.29157 0.273423 3.41935 0.991251 4.10822M8.00673 9.7972L8.92697 11M2.65795 9.79792L1.7365 11M5.33173 3.84915V5.13849C5.33189 5.38395 5.38848 5.62611 5.49709 5.84623C5.6057 6.06635 5.7634 6.25857 5.9581 6.40804L7.249 7.39714" stroke="#EC888D" stroke-width="0.762026" stroke-linecap="round" stroke-linejoin="round"/>
</svg>
