<svg width="28" height="28" viewBox="0 0 28 28" fill="none" xmlns="http://www.w3.org/2000/svg">
<rect width="28" height="28" rx="13.8409" fill="#FFC6C9"/>
<path d="M14.7243 21.5039C14.6976 21.7281 14.5895 21.9349 14.4206 22.0848C14.2518 22.2348 14.0337 22.3176 13.8078 22.3176C13.582 22.3176 13.364 22.2348 13.1951 22.0848C13.0262 21.9349 12.9181 21.7281 12.8914 21.5039M8.21195 15.9896C8.61418 14.9715 8.76447 13.8714 8.65007 12.7827C8.60075 12.3357 8.61121 11.884 8.68117 11.4398C8.89442 10.17 9.55084 9.01686 10.5338 8.1852C11.5168 7.35355 12.7627 6.89718 14.0503 6.89718C15.3379 6.89718 16.5838 7.35355 17.5667 8.1852C18.5497 9.01686 19.2061 10.17 19.4193 11.4398C19.4893 11.884 19.4998 12.3357 19.4504 12.7827C19.3387 13.8713 19.4889 14.9709 19.8886 15.9896C20.0517 16.3746 20.1228 16.7922 20.0964 17.2095C20.07 17.6267 19.9467 18.032 19.7364 18.3933C19.5261 18.7546 19.2344 19.062 18.8846 19.2909C18.5348 19.5199 18.1365 19.6642 17.7212 19.7125C15.2824 19.9855 12.8207 19.9855 10.3819 19.7125C9.96661 19.6641 9.56831 19.5197 9.2185 19.2907C8.8687 19.0618 8.57698 18.7546 8.36645 18.3934C8.15592 18.0322 8.03237 17.6269 8.00555 17.2097C7.97873 16.7925 8.04939 16.3748 8.21195 15.9896ZM15.0198 5.967C15.0198 6.50106 14.5869 6.93401 14.0528 6.93401C13.5188 6.93401 13.0858 6.50106 13.0858 5.967C13.0858 5.43294 13.5188 5 14.0528 5C14.5869 5 15.0198 5.43294 15.0198 5.967Z" stroke="#EC888D" stroke-width="1.29625" stroke-linecap="round" stroke-linejoin="round"/>
</svg>
