<svg width="26" height="27" viewBox="0 0 26 27" fill="none" xmlns="http://www.w3.org/2000/svg">
<path d="M1.01953 15.163L10.1519 19.7465C11.7036 20.5137 13.4124 20.5137 14.9641 19.7465L24.0965 15.163M1.01953 19.8411L10.1519 24.4245C11.7036 25.1917 13.4124 25.1917 14.9641 24.4245L24.0965 19.8411M22.1628 5.78603L14.6187 2.36951C13.2801 1.76518 11.8279 1.76518 10.4893 2.36951L2.9452 5.78603C2.48737 5.99498 2.09023 6.38779 1.80909 6.90977C1.52795 7.43176 1.37684 8.05691 1.37684 8.69798C1.37684 9.33906 1.52795 9.96408 1.80909 10.4861C2.09023 11.008 2.48737 11.401 2.9452 11.6099L10.394 14.9844C11.7837 15.6151 13.2925 15.6151 14.6822 14.9844L22.131 11.6099C22.59 11.4054 22.9893 11.0163 23.2734 10.497C23.5574 9.97768 23.7119 9.3541 23.7154 8.713C23.7189 8.0719 23.5713 7.44523 23.2929 6.92055C23.0146 6.39588 22.6196 5.99932 22.1628 5.78603Z" stroke="#FFFDF9" stroke-width="2.05756" stroke-linecap="round" stroke-linejoin="round"/>
</svg>
